SplineFontDB: 3.0
FontName: CheyenneSans-Black
FullName: Cheyenne Sans Black
FamilyName: Cheyenne Sans Black
Weight: Black
Copyright: 
Version: 1.000; ttfautohint (v1.8.2)
ItalicAngle: 0
UnderlinePosition: -150
UnderlineWidth: 50
Ascent: 800
Descent: 200
InvalidEm: 0
sfntRevision: 0x00010000
LayerCount: 2
Layer: 0 1 "Back" 1
Layer: 1 1 "Fore" 0
XUID: [1021 646 1163163066 10022515]
StyleMap: 0x0040
FSType: 0
OS2Version: 3
OS2_WeightWidthSlopeOnly: 0
OS2_UseTypoMetrics: 0
CreationTime: 1513572760
ModificationTime: 1543765338
PfmFamily: 81
TTFWeight: 900
TTFWidth: 5
LineGap: 0
VLineGap: 0
Panose: 0 0 10 0 0 0 0 0 0 0
OS2TypoAscent: 743
OS2TypoAOffset: 0
OS2TypoDescent: -161
OS2TypoDOffset: 0
OS2TypoLinegap: 0
OS2WinAscent: 822
OS2WinAOffset: 0
OS2WinDescent: 178
OS2WinDOffset: 0
HheadAscent: 822
HheadAOffset: 0
HheadDescent: -178
HheadDOffset: 0
OS2SubXSize: 650
OS2SubYSize: 600
OS2SubXOff: 0
OS2SubYOff: 75
OS2SupXSize: 650
OS2SupYSize: 600
OS2SupXOff: 0
OS2SupYOff: 350
OS2StrikeYSize: 50
OS2StrikeYPos: 310
OS2CapHeight: 723
OS2XHeight: 517
OS2Vendor: 'IMPA'
OS2CodePages: 20000193.00000000
OS2UnicodeRanges: 00000007.00000000.00000000.00000000
Lookup: 1 0 0 "'aalt' Access All Alternates in Latin lookup 0" { "'aalt' Access All Alternates in Latin lookup 0 subtable"  } ['aalt' ('DFLT' <'dflt' > 'latn' <'AZE ' 'CAT ' 'CRT ' 'KAZ ' 'MOL ' 'ROM ' 'TAT ' 'TRK ' 'dflt' > ) ]
Lookup: 3 0 0 "'aalt' Access All Alternates in Latin lookup 1" { "'aalt' Access All Alternates in Latin lookup 1 subtable"  } ['aalt' ('DFLT' <'dflt' > 'latn' <'AZE ' 'CAT ' 'CRT ' 'KAZ ' 'MOL ' 'ROM ' 'TAT ' 'TRK ' 'dflt' > ) ]
Lookup: 6 0 0 "'ccmp' Glyph Composition/Decomposition in Latin lookup 2" { "'ccmp' Glyph Composition/Decomposition in Latin lookup 2 contextual 0"  "'ccmp' Glyph Composition/Decomposition in Latin lookup 2 contextual 1"  } ['ccmp' ('DFLT' <'dflt' > 'latn' <'AZE ' 'CAT ' 'CRT ' 'KAZ ' 'MOL ' 'ROM ' 'TAT ' 'TRK ' 'dflt' > ) ]

StartChar: .notdef
Encoding: 65536 -1 0
Width: 626
Flags: W
LayerCount: 2
Fore
SplineSet
556 820.5 m 128,-1,1
 561 815 561 815 561 805 c 2,2,-1
 561 -133 l 2,3,4
 561 -148 561 -148 553 -154.5 c 128,-1,5
 545 -161 545 -161 528 -161 c 2,6,-1
 92 -161 l 2,7,8
 77 -161 77 -161 71 -155.5 c 128,-1,9
 65 -150 65 -150 65 -137 c 2,10,-1
 65 803 l 2,11,12
 65 814 65 814 70 820 c 128,-1,13
 75 826 75 826 84 826 c 2,14,-1
 543 826 l 2,15,0
 551 826 551 826 556 820.5 c 128,-1,1
506 772.5 m 128,-1,17
 502 777 502 777 495 777 c 2,18,-1
 152 777 l 1,19,-1
 510 -57 l 1,20,-1
 510 760 l 2,21,16
 510 768 510 768 506 772.5 c 128,-1,17
121 -107 m 128,-1,23
 126 -112 126 -112 138 -112 c 2,24,-1
 474 -112 l 1,25,-1
 116 716 l 1,26,-1
 116 -92 l 2,27,22
 116 -102 116 -102 121 -107 c 128,-1,23
EndSplineSet
EndChar

StartChar: exclam
Encoding: 33 33 4
Width: 299
GlyphClass: 2
Flags: W
LayerCount: 2
Fore
SplineSet
204 259 m 1,0,-1
 85 259 l 1,1,-1
 30 723 l 1,2,-1
 255 723 l 1,3,-1
 204 259 l 1,0,-1
245 0 m 1,4,-1
 40 0 l 1,5,-1
 40 192 l 1,6,-1
 245 192 l 1,7,-1
 245 0 l 1,4,-1
EndSplineSet
EndChar

StartChar: quotedbl
Encoding: 34 34 5
Width: 526
GlyphClass: 2
Flags: W
LayerCount: 2
Fore
SplineSet
452 401 m 1,0,-1
 361 401 l 1,1,-1
 315 723 l 1,2,-1
 498 723 l 1,3,-1
 452 401 l 1,0,-1
196 401 m 1,4,-1
 105 401 l 1,5,-1
 59 723 l 1,6,-1
 242 723 l 1,7,-1
 196 401 l 1,4,-1
EndSplineSet
EndChar

StartChar: numbersign
Encoding: 35 35 6
Width: 617
GlyphClass: 2
Flags: W
LayerCount: 2
Fore
SplineSet
470 421 m 1,0,-1
 454 310 l 1,1,-1
 561 310 l 1,2,-1
 561 216 l 1,3,-1
 441 216 l 1,4,-1
 409 -3 l 1,5,-1
 314 9 l 1,6,-1
 344 216 l 1,7,-1
 222 216 l 1,8,-1
 190 -3 l 1,9,-1
 96 9 l 1,10,-1
 126 216 l 1,11,-1
 15 216 l 1,12,-1
 15 310 l 1,13,-1
 140 310 l 1,14,-1
 156 421 l 1,15,-1
 47 421 l 1,16,-1
 47 515 l 1,17,-1
 170 515 l 1,18,-1
 201 725 l 1,19,-1
 294 716 l 1,20,-1
 265 515 l 1,21,-1
 388 515 l 1,22,-1
 419 725 l 1,23,-1
 513 716 l 1,24,-1
 484 515 l 1,25,-1
 593 515 l 1,26,-1
 593 421 l 1,27,-1
 470 421 l 1,0,-1
374 421 m 1,28,-1
 251 421 l 1,29,-1
 235 310 l 1,30,-1
 358 310 l 1,31,-1
 374 421 l 1,28,-1
EndSplineSet
EndChar

StartChar: dollar
Encoding: 36 36 7
Width: 693
GlyphClass: 2
Flags: W
LayerCount: 2
Fore
SplineSet
584.5 74 m 128,-1,1
 524 12 524 12 420 -1 c 0,2,3
 407 -2 407 -2 403.5 -6 c 128,-1,4
 400 -10 400 -10 400 -21 c 2,5,-1
 400 -71 l 1,6,-1
 278 -71 l 1,7,-1
 278 -3 l 1,8,9
 200 4 200 4 137.5 28.5 c 128,-1,10
 75 53 75 53 16 97 c 1,11,-1
 123 217 l 1,12,13
 195 150 195 150 280 131 c 1,14,-1
 281 280 l 1,15,16
 156 297 156 297 100 357 c 128,-1,17
 44 417 44 417 44 502 c 0,18,19
 44 580 44 580 98.5 636.5 c 128,-1,20
 153 693 153 693 257 716 c 0,21,22
 266 718 266 718 273.5 723 c 128,-1,23
 281 728 281 728 281 736 c 2,24,-1
 281 782 l 1,25,-1
 400 782 l 1,26,-1
 400 722 l 1,27,28
 523 685 523 685 594 641 c 1,29,-1
 503 519 l 1,30,31
 466 556 466 556 412 578 c 0,32,33
 410 579 410 579 407 579 c 0,34,35
 399 579 399 579 399 570 c 2,36,-1
 399 449 l 1,37,-1
 477 431 l 2,38,39
 550 413 550 413 597.5 357.5 c 128,-1,40
 645 302 645 302 645 228 c 0,41,0
 645 136 645 136 584.5 74 c 128,-1,1
281 585 m 1,42,43
 256 585 256 585 229 568 c 128,-1,44
 202 551 202 551 202 526 c 0,45,46
 202 496 202 496 222 481.5 c 128,-1,47
 242 467 242 467 281 463 c 1,48,-1
 281 585 l 1,42,43
463 155.5 m 128,-1,50
 486 173 486 173 486 195 c 0,51,52
 486 251 486 251 399 264 c 1,53,-1
 399 131 l 1,54,49
 440 138 440 138 463 155.5 c 128,-1,50
EndSplineSet
EndChar

StartChar: percent
Encoding: 37 37 8
Width: 962
GlyphClass: 2
Flags: W
LayerCount: 2
Fore
SplineSet
326 705 m 128,-1,1
 370 676 370 676 396 628 c 128,-1,2
 422 580 422 580 422 527 c 0,3,4
 422 475 422 475 396.5 428.5 c 128,-1,5
 371 382 371 382 327 354 c 128,-1,6
 283 326 283 326 230 326 c 0,7,8
 176 326 176 326 131.5 354 c 128,-1,9
 87 382 87 382 61.5 428.5 c 128,-1,10
 36 475 36 475 36 527 c 0,11,12
 36 580 36 580 62 628 c 128,-1,13
 88 676 88 676 132.5 705 c 128,-1,14
 177 734 177 734 230 734 c 0,15,0
 282 734 282 734 326 705 c 128,-1,1
301 -4 m 1,16,-1
 195 -2 l 1,17,-1
 682 731 l 1,18,-1
 787 731 l 1,19,-1
 301 -4 l 1,16,-1
270 446.5 m 128,-1,21
 281 472 281 472 281 527 c 0,22,23
 281 585 281 585 269 612.5 c 128,-1,24
 257 640 257 640 229 640 c 128,-1,25
 201 640 201 640 189 612 c 128,-1,26
 177 584 177 584 177 527 c 0,27,28
 177 472 177 472 188.5 446.5 c 128,-1,29
 200 421 200 421 229 421 c 0,30,20
 259 421 259 421 270 446.5 c 128,-1,21
820.5 369.5 m 128,-1,32
 865 340 865 340 891 292.5 c 128,-1,33
 917 245 917 245 917 192 c 0,34,35
 917 140 917 140 891.5 93.5 c 128,-1,36
 866 47 866 47 821.5 18.5 c 128,-1,37
 777 -10 777 -10 724 -10 c 128,-1,38
 671 -10 671 -10 626 18.5 c 128,-1,39
 581 47 581 47 555.5 93.5 c 128,-1,40
 530 140 530 140 530 192 c 0,41,42
 530 245 530 245 556 292.5 c 128,-1,43
 582 340 582 340 627 369.5 c 128,-1,44
 672 399 672 399 724 399 c 128,-1,31
 776 399 776 399 820.5 369.5 c 128,-1,32
763.5 111 m 128,-1,46
 775 136 775 136 775 191 c 0,47,48
 775 249 775 249 763 276.5 c 128,-1,49
 751 304 751 304 723 304 c 128,-1,50
 695 304 695 304 683.5 276 c 128,-1,51
 672 248 672 248 672 191 c 0,52,53
 672 137 672 137 683 111.5 c 128,-1,54
 694 86 694 86 723 86 c 128,-1,45
 752 86 752 86 763.5 111 c 128,-1,46
EndSplineSet
EndChar

StartChar: ampersand
Encoding: 38 38 9
Width: 846
GlyphClass: 2
Flags: W
LayerCount: 2
Fore
SplineSet
515.5 713.5 m 128,-1,1
 571 693 571 693 602.5 656.5 c 128,-1,2
 634 620 634 620 634 574 c 0,3,4
 634 522 634 522 594.5 476.5 c 128,-1,5
 555 431 555 431 484 384 c 1,6,-1
 556 299 l 1,7,-1
 567 336 l 2,8,9
 591 427 591 427 592 430 c 2,10,-1
 794 430 l 1,11,12
 782 402 782 402 759.5 367 c 128,-1,13
 737 332 737 332 714 298 c 0,14,15
 666 228 666 228 646 189 c 1,16,-1
 808 0 l 1,17,-1
 586 0 l 1,18,-1
 532 62 l 1,19,20
 428 -5 428 -5 293 -5 c 0,21,22
 167 -5 167 -5 106.5 45 c 128,-1,23
 46 95 46 95 46 181 c 0,24,25
 46 254 46 254 91 303.5 c 128,-1,26
 136 353 136 353 238 407 c 1,27,-1
 219 428 l 2,28,29
 184 468 184 468 169 493.5 c 128,-1,30
 154 519 154 519 154 556 c 0,31,32
 154 607 154 607 184 647.5 c 128,-1,33
 214 688 214 688 268.5 711 c 128,-1,34
 323 734 323 734 392 734 c 0,35,0
 460 734 460 734 515.5 713.5 c 128,-1,1
362 607.5 m 128,-1,37
 345 593 345 593 345 570 c 0,38,39
 345 542 345 542 383 501 c 2,40,-1
 406 477 l 1,41,42
 439 500 439 500 453 520.5 c 128,-1,43
 467 541 467 541 467 564 c 0,44,45
 467 591 467 591 450 606.5 c 128,-1,46
 433 622 433 622 407 622 c 0,47,36
 379 622 379 622 362 607.5 c 128,-1,37
282.5 260 m 128,-1,49
 263 237 263 237 263 211 c 0,50,51
 263 177 263 177 289 158.5 c 128,-1,52
 315 140 315 140 343 140 c 0,53,54
 364 140 364 140 392.5 148.5 c 128,-1,55
 421 157 421 157 440 174 c 1,56,-1
 331 299 l 1,57,48
 302 283 302 283 282.5 260 c 128,-1,49
EndSplineSet
EndChar

StartChar: quotesingle
Encoding: 39 39 10
Width: 261
GlyphClass: 2
Flags: W
LayerCount: 2
Fore
SplineSet
176 401 m 1,0,-1
 85 401 l 1,1,-1
 39 723 l 1,2,-1
 222 723 l 1,3,-1
 176 401 l 1,0,-1
EndSplineSet
EndChar

StartChar: parenleft
Encoding: 40 40 11
Width: 353
GlyphClass: 2
Flags: W
LayerCount: 2
Fore
SplineSet
241.5 508 m 128,-1,1
 212 394 212 394 212 277 c 0,2,3
 212 166 212 166 240 62 c 128,-1,4
 268 -42 268 -42 325 -161 c 1,5,-1
 187 -161 l 1,6,7
 115 -42 115 -42 79.5 58 c 128,-1,8
 44 158 44 158 44 278 c 0,9,10
 44 399 44 399 81.5 512.5 c 128,-1,11
 119 626 119 626 186 723 c 1,12,-1
 325 723 l 1,13,0
 271 622 271 622 241.5 508 c 128,-1,1
EndSplineSet
EndChar

StartChar: parenright
Encoding: 41 41 12
Width: 353
GlyphClass: 2
Flags: W
LayerCount: 2
Fore
SplineSet
90.5 508 m 128,-1,1
 120 394 120 394 120 277 c 0,2,3
 120 166 120 166 92 62 c 128,-1,4
 64 -42 64 -42 7 -161 c 1,5,-1
 145 -161 l 1,6,7
 217 -42 217 -42 252.5 58 c 128,-1,8
 288 158 288 158 288 278 c 0,9,10
 288 399 288 399 250.5 512.5 c 128,-1,11
 213 626 213 626 146 723 c 1,12,-1
 7 723 l 1,13,0
 61 622 61 622 90.5 508 c 128,-1,1
EndSplineSet
EndChar

StartChar: asterisk
Encoding: 42 42 13
Width: 537
GlyphClass: 2
Flags: W
LayerCount: 2
Fore
SplineSet
264 420 m 1,0,-1
 177 272 l 1,1,-1
 78 342 l 1,2,-1
 189 471 l 1,3,-1
 28 515 l 1,4,-1
 68 624 l 1,5,-1
 219 555 l 1,6,-1
 206 723 l 1,7,-1
 326 723 l 1,8,-1
 309 554 l 1,9,-1
 463 623 l 1,10,-1
 498 513 l 1,11,-1
 342 471 l 1,12,-1
 451 343 l 1,13,-1
 351 274 l 1,14,-1
 264 420 l 1,0,-1
EndSplineSet
EndChar

StartChar: plus
Encoding: 43 43 14
Width: 608
GlyphClass: 2
Flags: W
LayerCount: 2
Fore
SplineSet
555 295 m 1,0,-1
 370 295 l 1,1,-1
 370 110 l 1,2,-1
 232 110 l 1,3,-1
 232 295 l 1,4,-1
 46 295 l 1,5,-1
 46 433 l 1,6,-1
 232 433 l 1,7,-1
 232 619 l 1,8,-1
 370 619 l 1,9,-1
 370 433 l 1,10,-1
 555 433 l 1,11,-1
 555 295 l 1,0,-1
EndSplineSet
EndChar

StartChar: comma
Encoding: 44 44 15
Width: 301
GlyphClass: 2
Flags: W
LayerCount: 2
Fore
SplineSet
106 -6 m 1,0,-1
 48 1 l 1,1,-1
 48 170 l 1,2,-1
 225 170 l 1,3,-1
 225 20 l 1,4,-1
 110 -153 l 1,5,-1
 46 -153 l 1,6,-1
 106 -6 l 1,0,-1
EndSplineSet
Substitution2: "'tnum' Tabular Numbers in Latin lookup 23 subtable" comma.tf
Substitution2: "'aalt' Access All Alternates in Latin lookup 0 subtable" comma.tf
EndChar

StartChar: hyphen
Encoding: 45 45 16
Width: 400
GlyphClass: 2
Flags: W
LayerCount: 2
Fore
SplineSet
340 188 m 1,0,-1
 50 188 l 1,1,-1
 50 325 l 1,2,-1
 340 325 l 1,3,-1
 340 188 l 1,0,-1
EndSplineSet
EndChar

StartChar: period
Encoding: 46 46 17
Width: 301
GlyphClass: 2
Flags: W
LayerCount: 2
Fore
SplineSet
246 0 m 1,0,-1
 41 0 l 1,1,-1
 41 196 l 1,2,-1
 246 196 l 1,3,-1
 246 0 l 1,0,-1
EndSplineSet
Substitution2: "'tnum' Tabular Numbers in Latin lookup 23 subtable" period.tf
Substitution2: "'aalt' Access All Alternates in Latin lookup 0 subtable" period.tf
EndChar

StartChar: slash
Encoding: 47 47 18
Width: 400
GlyphClass: 2
Flags: W
LayerCount: 2
Fore
SplineSet
259 723 m 1,0,-1
 388 723 l 1,1,-1
 133 0 l 1,2,-1
 4 0 l 1,3,-1
 259 723 l 1,0,-1
EndSplineSet
Substitution2: "'frac' Diagonal Fractions in Latin lookup 16 subtable" fraction
Substitution2: "'aalt' Access All Alternates in Latin lookup 0 subtable" fraction
EndChar

StartChar: zero
Encoding: 48 48 19
Width: 681
GlyphClass: 2
Flags: W
LayerCount: 2
Fore
SplineSet
504.5 689.5 m 128,-1,1
 575 645 575 645 613.5 560.5 c 128,-1,2
 652 476 652 476 652 360 c 0,3,4
 652 245 652 245 614 162 c 128,-1,5
 576 79 576 79 506 35.5 c 128,-1,6
 436 -8 436 -8 341 -8 c 128,-1,7
 246 -8 246 -8 175.5 35.5 c 128,-1,8
 105 79 105 79 66.5 162 c 128,-1,9
 28 245 28 245 28 360 c 0,10,11
 28 476 28 476 67 560.5 c 128,-1,12
 106 645 106 645 177 689.5 c 128,-1,13
 248 734 248 734 341 734 c 128,-1,0
 434 734 434 734 504.5 689.5 c 128,-1,1
397.5 165 m 128,-1,15
 419 186 419 186 428.5 232.5 c 128,-1,16
 438 279 438 279 438 359 c 0,17,18
 438 481 438 481 415.5 532.5 c 128,-1,19
 393 584 393 584 340 584 c 0,20,21
 288 584 288 584 265.5 532.5 c 128,-1,22
 243 481 243 481 243 359 c 0,23,24
 243 280 243 280 252.5 233 c 128,-1,25
 262 186 262 186 283 165 c 128,-1,26
 304 144 304 144 340 144 c 128,-1,14
 376 144 376 144 397.5 165 c 128,-1,15
EndSplineSet
Substitution2: "'onum' Oldstyle Figures in Latin lookup 24 subtable" zero.osf
Substitution2: "'tnum' Tabular Numbers in Latin lookup 23 subtable" zero.tf
Substitution2: "'frac' Diagonal Fractions in Latin lookup 17 subtable" zero.numr
Substitution2: "'dnom' Denominators in Latin lookup 15 subtable" zero.dnom
Substitution2: "'numr' Numerators in Latin lookup 14 subtable" zero.numr
Substitution2: "'sups' Superscript in Latin lookup 13 subtable" uni2070
Substitution2: "'sinf' Scientific Inferiors in Latin lookup 12 subtable" zero.subs
Substitution2: "'subs' Subscript in Latin lookup 11 subtable" zero.subs
AlternateSubs2: "'aalt' Access All Alternates in Latin lookup 1 subtable" zero.subs uni2070 zero.numr zero.dnom zero.tf zero.osf
EndChar

StartChar: one
Encoding: 49 49 20
Width: 421
GlyphClass: 2
Flags: W
LayerCount: 2
Fore
SplineSet
139 511 m 1,0,-1
 19 484 l 1,1,-1
 19 613 l 1,2,-1
 239 723 l 1,3,-1
 334 723 l 1,4,-1
 334 0 l 1,5,-1
 139 0 l 1,6,-1
 139 511 l 1,0,-1
EndSplineSet
Substitution2: "'onum' Oldstyle Figures in Latin lookup 24 subtable" one.osf
Substitution2: "'tnum' Tabular Numbers in Latin lookup 23 subtable" one.tf
Substitution2: "'frac' Diagonal Fractions in Latin lookup 17 subtable" one.numr
Substitution2: "'dnom' Denominators in Latin lookup 15 subtable" one.dnom
Substitution2: "'numr' Numerators in Latin lookup 14 subtable" one.numr
Substitution2: "'sups' Superscript in Latin lookup 13 subtable" uni00B9
Substitution2: "'sinf' Scientific Inferiors in Latin lookup 12 subtable" one.subs
Substitution2: "'subs' Subscript in Latin lookup 11 subtable" one.subs
AlternateSubs2: "'aalt' Access All Alternates in Latin lookup 1 subtable" one.subs uni00B9 one.numr one.dnom one.tf one.osf
EndChar

StartChar: two
Encoding: 50 50 21
Width: 645
GlyphClass: 2
Flags: W
LayerCount: 2
Fore
SplineSet
31 136 m 1,0,-1
 253 320 l 2,1,2
 323 379 323 379 354 408 c 128,-1,3
 385 437 385 437 395.5 456.5 c 128,-1,4
 406 476 406 476 406 501 c 0,5,6
 406 534 406 534 383 555 c 128,-1,7
 360 576 360 576 321 576 c 0,8,9
 277 576 277 576 245.5 550 c 128,-1,10
 214 524 214 524 203 468 c 1,11,-1
 20 468 l 1,12,13
 20 545 20 545 54 604.5 c 128,-1,14
 88 664 88 664 156.5 698.5 c 128,-1,15
 225 733 225 733 325 733 c 0,16,17
 413 733 413 733 477 704 c 128,-1,18
 541 675 541 675 575.5 623 c 128,-1,19
 610 571 610 571 610 503 c 0,20,21
 610 449 610 449 584.5 408.5 c 128,-1,22
 559 368 559 368 491 306 c 2,23,-1
 332 160 l 1,24,-1
 617 160 l 1,25,-1
 617 0 l 1,26,-1
 31 0 l 1,27,-1
 31 136 l 1,0,-1
EndSplineSet
Substitution2: "'onum' Oldstyle Figures in Latin lookup 24 subtable" two.osf
Substitution2: "'tnum' Tabular Numbers in Latin lookup 23 subtable" two.tf
Substitution2: "'frac' Diagonal Fractions in Latin lookup 17 subtable" two.numr
Substitution2: "'dnom' Denominators in Latin lookup 15 subtable" two.dnom
Substitution2: "'numr' Numerators in Latin lookup 14 subtable" two.numr
Substitution2: "'sups' Superscript in Latin lookup 13 subtable" uni00B2
Substitution2: "'sinf' Scientific Inferiors in Latin lookup 12 subtable" two.subs
Substitution2: "'subs' Subscript in Latin lookup 11 subtable" two.subs
AlternateSubs2: "'aalt' Access All Alternates in Latin lookup 1 subtable" two.subs uni00B2 two.numr two.dnom two.tf two.osf
EndChar

StartChar: three
Encoding: 51 51 22
Width: 694
GlyphClass: 2
Flags: W
LayerCount: 2
Fore
SplineSet
113 677 m 128,-1,1
 207 733 207 733 352 733 c 0,2,3
 433 733 433 733 501 709 c 128,-1,4
 569 685 569 685 608.5 641 c 128,-1,5
 648 597 648 597 648 540 c 0,6,7
 648 433 648 433 519 388 c 1,8,9
 579 372 579 372 625 328 c 128,-1,10
 671 284 671 284 671 215 c 0,11,12
 671 144 671 144 622.5 93 c 128,-1,13
 574 42 574 42 500.5 16 c 128,-1,14
 427 -10 427 -10 353 -10 c 0,15,16
 192 -10 192 -10 105.5 44.5 c 128,-1,17
 19 99 19 99 19 238 c 1,18,-1
 203 238 l 1,19,20
 213 186 213 186 251 164 c 128,-1,21
 289 142 289 142 336 142 c 0,22,23
 388 142 388 142 421 163.5 c 128,-1,24
 454 185 454 185 454 215 c 0,25,26
 454 246 454 246 426.5 268.5 c 128,-1,27
 399 291 399 291 354 292 c 2,28,-1
 256 294 l 1,29,-1
 256 444 l 1,30,-1
 342 449 l 2,31,32
 387 451 387 451 413.5 472 c 128,-1,33
 440 493 440 493 440 523 c 0,34,35
 440 551 440 551 410 569 c 128,-1,36
 380 587 380 587 345 587 c 0,37,38
 285 587 285 587 246.5 568.5 c 128,-1,39
 208 550 208 550 202 490 c 1,40,-1
 19 490 l 1,41,0
 19 621 19 621 113 677 c 128,-1,1
EndSplineSet
Substitution2: "'onum' Oldstyle Figures in Latin lookup 24 subtable" three.osf
Substitution2: "'tnum' Tabular Numbers in Latin lookup 23 subtable" three.tf
Substitution2: "'frac' Diagonal Fractions in Latin lookup 17 subtable" three.numr
Substitution2: "'dnom' Denominators in Latin lookup 15 subtable" three.dnom
Substitution2: "'numr' Numerators in Latin lookup 14 subtable" three.numr
Substitution2: "'sups' Superscript in Latin lookup 13 subtable" uni00B3
Substitution2: "'sinf' Scientific Inferiors in Latin lookup 12 subtable" three.subs
Substitution2: "'subs' Subscript in Latin lookup 11 subtable" three.subs
AlternateSubs2: "'aalt' Access All Alternates in Latin lookup 1 subtable" three.subs uni00B3 three.numr three.dnom three.tf three.osf
EndChar

StartChar: four
Encoding: 52 52 23
Width: 638
GlyphClass: 2
Flags: W
LayerCount: 2
Fore
SplineSet
525 723 m 1,0,-1
 525 302 l 1,1,-1
 629 302 l 1,2,-1
 629 138 l 1,3,-1
 525 138 l 1,4,-1
 525 0 l 1,5,-1
 329 0 l 1,6,-1
 330 138 l 1,7,-1
 14 138 l 1,8,-1
 14 295 l 1,9,-1
 332 723 l 1,10,-1
 525 723 l 1,0,-1
332 302 m 1,11,-1
 332 458 l 1,12,-1
 216 302 l 1,13,-1
 332 302 l 1,11,-1
EndSplineSet
Substitution2: "'onum' Oldstyle Figures in Latin lookup 24 subtable" four.osf
Substitution2: "'tnum' Tabular Numbers in Latin lookup 23 subtable" four.tf
Substitution2: "'frac' Diagonal Fractions in Latin lookup 17 subtable" four.numr
Substitution2: "'dnom' Denominators in Latin lookup 15 subtable" four.dnom
Substitution2: "'numr' Numerators in Latin lookup 14 subtable" four.numr
Substitution2: "'sups' Superscript in Latin lookup 13 subtable" uni2074
Substitution2: "'sinf' Scientific Inferiors in Latin lookup 12 subtable" four.subs
Substitution2: "'subs' Subscript in Latin lookup 11 subtable" four.subs
AlternateSubs2: "'aalt' Access All Alternates in Latin lookup 1 subtable" four.subs uni2074 four.numr four.dnom four.tf four.osf
EndChar

StartChar: five
Encoding: 53 53 24
Width: 678
GlyphClass: 2
Flags: W
LayerCount: 2
Fore
SplineSet
599 723 m 1,0,-1
 591 567 l 1,1,-1
 254 567 l 1,2,-1
 243 447 l 1,3,4
 294 461 294 461 322.5 466.5 c 128,-1,5
 351 472 351 472 385 472 c 0,6,7
 464 472 464 472 523.5 444 c 128,-1,8
 583 416 583 416 616 362.5 c 128,-1,9
 649 309 649 309 649 236 c 0,10,11
 649 120 649 120 569 55 c 128,-1,12
 489 -10 489 -10 350 -10 c 0,13,14
 240 -10 240 -10 152 33 c 128,-1,15
 64 76 64 76 23 145 c 1,16,-1
 168 243 l 1,17,18
 195 208 195 208 215 188 c 128,-1,19
 235 168 235 168 262.5 155 c 128,-1,20
 290 142 290 142 327 142 c 0,21,22
 379 142 379 142 408.5 166.5 c 128,-1,23
 438 191 438 191 438 229 c 0,24,25
 438 266 438 266 410.5 292 c 128,-1,26
 383 318 383 318 330 318 c 0,27,28
 307 318 307 318 286.5 312.5 c 128,-1,29
 266 307 266 307 232 292 c 0,30,31
 223 288 223 288 218 288 c 0,32,33
 212 288 212 288 203 293 c 2,34,-1
 71 364 l 1,35,-1
 105 723 l 1,36,-1
 599 723 l 1,0,-1
EndSplineSet
Substitution2: "'onum' Oldstyle Figures in Latin lookup 24 subtable" five.osf
Substitution2: "'tnum' Tabular Numbers in Latin lookup 23 subtable" five.tf
Substitution2: "'frac' Diagonal Fractions in Latin lookup 17 subtable" five.numr
Substitution2: "'dnom' Denominators in Latin lookup 15 subtable" five.dnom
Substitution2: "'numr' Numerators in Latin lookup 14 subtable" five.numr
Substitution2: "'sups' Superscript in Latin lookup 13 subtable" uni2075
Substitution2: "'sinf' Scientific Inferiors in Latin lookup 12 subtable" five.subs
Substitution2: "'subs' Subscript in Latin lookup 11 subtable" five.subs
AlternateSubs2: "'aalt' Access All Alternates in Latin lookup 1 subtable" five.subs uni2075 five.numr five.dnom five.tf five.osf
EndChar

StartChar: six
Encoding: 54 54 25
Width: 670
GlyphClass: 2
Flags: W
LayerCount: 2
Fore
SplineSet
489 705.5 m 128,-1,1
 553 678 553 678 591 626.5 c 128,-1,2
 629 575 629 575 629 506 c 1,3,-1
 453 506 l 1,4,5
 441 546 441 546 417 564.5 c 128,-1,6
 393 583 393 583 354 583 c 0,7,8
 302 583 302 583 271.5 544.5 c 128,-1,9
 241 506 241 506 241 451 c 0,10,11
 241 435 241 435 244 418 c 1,12,13
 298 451 298 451 389 451 c 0,14,15
 464 451 464 451 521 424 c 128,-1,16
 578 397 578 397 609.5 348 c 128,-1,17
 641 299 641 299 641 236 c 0,18,19
 641 167 641 167 602.5 112 c 128,-1,20
 564 57 564 57 496.5 25.5 c 128,-1,21
 429 -6 429 -6 345 -6 c 0,22,23
 247 -6 247 -6 175 37.5 c 128,-1,24
 103 81 103 81 65 160.5 c 128,-1,25
 27 240 27 240 27 345 c 0,26,27
 27 465 27 465 66.5 552.5 c 128,-1,28
 106 640 106 640 178.5 686.5 c 128,-1,29
 251 733 251 733 349 733 c 0,30,0
 425 733 425 733 489 705.5 c 128,-1,1
294.5 302 m 128,-1,32
 272 293 272 293 257 280 c 128,-1,33
 242 267 242 267 242 258 c 0,34,35
 242 197 242 197 267.5 166 c 128,-1,36
 293 135 293 135 337 135 c 0,37,38
 377 135 377 135 407 161.5 c 128,-1,39
 437 188 437 188 437 227 c 0,40,41
 437 270 437 270 407.5 290.5 c 128,-1,42
 378 311 378 311 338 311 c 0,43,31
 317 311 317 311 294.5 302 c 128,-1,32
EndSplineSet
Substitution2: "'onum' Oldstyle Figures in Latin lookup 24 subtable" six.osf
Substitution2: "'tnum' Tabular Numbers in Latin lookup 23 subtable" six.tf
Substitution2: "'frac' Diagonal Fractions in Latin lookup 17 subtable" six.numr
Substitution2: "'dnom' Denominators in Latin lookup 15 subtable" six.dnom
Substitution2: "'numr' Numerators in Latin lookup 14 subtable" six.numr
Substitution2: "'sups' Superscript in Latin lookup 13 subtable" uni2076
Substitution2: "'sinf' Scientific Inferiors in Latin lookup 12 subtable" six.subs
Substitution2: "'subs' Subscript in Latin lookup 11 subtable" six.subs
AlternateSubs2: "'aalt' Access All Alternates in Latin lookup 1 subtable" six.subs uni2076 six.numr six.dnom six.tf six.osf
EndChar

StartChar: seven
Encoding: 55 55 26
Width: 597
GlyphClass: 2
Flags: W
LayerCount: 2
Fore
SplineSet
588 723 m 1,0,-1
 588 524 l 1,1,2
 534 464 534 464 480.5 373.5 c 128,-1,3
 427 283 427 283 392.5 183.5 c 128,-1,4
 358 84 358 84 360 0 c 1,5,-1
 151 0 l 1,6,7
 151 61 151 61 176 153.5 c 128,-1,8
 201 246 201 246 259 356 c 128,-1,9
 317 466 317 466 410 567 c 1,10,-1
 19 567 l 1,11,-1
 19 723 l 1,12,-1
 588 723 l 1,0,-1
EndSplineSet
Substitution2: "'onum' Oldstyle Figures in Latin lookup 24 subtable" seven.osf
Substitution2: "'tnum' Tabular Numbers in Latin lookup 23 subtable" seven.tf
Substitution2: "'frac' Diagonal Fractions in Latin lookup 17 subtable" seven.numr
Substitution2: "'dnom' Denominators in Latin lookup 15 subtable" seven.dnom
Substitution2: "'numr' Numerators in Latin lookup 14 subtable" seven.numr
Substitution2: "'sups' Superscript in Latin lookup 13 subtable" uni2077
Substitution2: "'sinf' Scientific Inferiors in Latin lookup 12 subtable" seven.subs
Substitution2: "'subs' Subscript in Latin lookup 11 subtable" seven.subs
AlternateSubs2: "'aalt' Access All Alternates in Latin lookup 1 subtable" seven.subs uni2077 seven.numr seven.dnom seven.tf seven.osf
EndChar

StartChar: eight
Encoding: 56 56 27
Width: 652
GlyphClass: 2
Flags: W
LayerCount: 2
Fore
SplineSet
466 706 m 128,-1,1
 530 679 530 679 566 632.5 c 128,-1,2
 602 586 602 586 602 530 c 0,3,4
 602 475 602 475 565.5 442.5 c 128,-1,5
 529 410 529 410 492 397 c 1,6,7
 535 375 535 375 562 356.5 c 128,-1,8
 589 338 589 338 611.5 302.5 c 128,-1,9
 634 267 634 267 634 214 c 0,10,11
 634 108 634 108 548 49 c 128,-1,12
 462 -10 462 -10 316 -10 c 0,13,14
 182 -10 182 -10 100.5 39 c 128,-1,15
 19 88 19 88 19 177 c 0,16,17
 19 243 19 243 56 279 c 128,-1,18
 93 315 93 315 150 335 c 1,19,20
 147 337 147 337 119 355 c 128,-1,21
 91 373 91 373 64.5 412.5 c 128,-1,22
 38 452 38 452 38 502 c 0,23,24
 38 565 38 565 72 617.5 c 128,-1,25
 106 670 106 670 170 701.5 c 128,-1,26
 234 733 234 733 322 733 c 0,27,0
 402 733 402 733 466 706 c 128,-1,1
267 575.5 m 128,-1,29
 244 559 244 559 244 530 c 0,30,31
 244 491 244 491 291 474 c 2,32,-1
 353 452 l 2,33,34
 361 450 361 450 365 450 c 0,35,36
 388 450 388 450 406.5 474 c 128,-1,37
 425 498 425 498 425 523 c 0,38,39
 425 551 425 551 398.5 571.5 c 128,-1,40
 372 592 372 592 326 592 c 0,41,28
 290 592 290 592 267 575.5 c 128,-1,29
397.5 148.5 m 128,-1,43
 421 165 421 165 421 194 c 0,44,45
 421 215 421 215 407.5 231 c 128,-1,46
 394 247 394 247 358 260 c 2,47,-1
 289 285 l 2,48,49
 282 288 282 288 273 288 c 0,50,51
 247 288 247 288 225.5 266 c 128,-1,52
 204 244 204 244 204 213 c 0,53,54
 204 174 204 174 233.5 153 c 128,-1,55
 263 132 263 132 330 132 c 0,56,42
 374 132 374 132 397.5 148.5 c 128,-1,43
EndSplineSet
Substitution2: "'onum' Oldstyle Figures in Latin lookup 24 subtable" eight.osf
Substitution2: "'tnum' Tabular Numbers in Latin lookup 23 subtable" eight.tf
Substitution2: "'frac' Diagonal Fractions in Latin lookup 17 subtable" eight.numr
Substitution2: "'dnom' Denominators in Latin lookup 15 subtable" eight.dnom
Substitution2: "'numr' Numerators in Latin lookup 14 subtable" eight.numr
Substitution2: "'sups' Superscript in Latin lookup 13 subtable" uni2078
Substitution2: "'sinf' Scientific Inferiors in Latin lookup 12 subtable" eight.subs
Substitution2: "'subs' Subscript in Latin lookup 11 subtable" eight.subs
AlternateSubs2: "'aalt' Access All Alternates in Latin lookup 1 subtable" eight.subs uni2078 eight.numr eight.dnom eight.tf eight.osf
EndChar

StartChar: nine
Encoding: 57 57 28
Width: 670
GlyphClass: 2
Flags: W
LayerCount: 2
Fore
SplineSet
179 20.5 m 128,-1,1
 114 49 114 49 75 101 c 128,-1,2
 36 153 36 153 36 219 c 1,3,-1
 219 219 l 1,4,5
 225 183 225 183 248.5 162.5 c 128,-1,6
 272 142 272 142 310 142 c 0,7,8
 372 142 372 142 410 175 c 128,-1,9
 448 208 448 208 448 284 c 0,10,11
 448 293 448 293 446 315 c 1,12,13
 397 264 397 264 293 264 c 0,14,15
 218 264 218 264 157.5 292 c 128,-1,16
 97 320 97 320 62.5 371 c 128,-1,17
 28 422 28 422 28 489 c 0,18,19
 28 558 28 558 66.5 613 c 128,-1,20
 105 668 105 668 172.5 699.5 c 128,-1,21
 240 731 240 731 324 731 c 0,22,23
 423 731 423 731 494.5 687.5 c 128,-1,24
 566 644 566 644 604 564.5 c 128,-1,25
 642 485 642 485 642 380 c 0,26,27
 642 182 642 182 557 87 c 128,-1,28
 472 -8 472 -8 319 -8 c 0,29,0
 244 -8 244 -8 179 20.5 c 128,-1,1
374.5 423 m 128,-1,31
 397 432 397 432 412 445 c 128,-1,32
 427 458 427 458 427 467 c 0,33,34
 427 529 427 529 401.5 560 c 128,-1,35
 376 591 376 591 332 591 c 0,36,37
 293 591 293 591 266.5 565 c 128,-1,38
 240 539 240 539 240 498 c 0,39,40
 240 458 240 458 267 436 c 128,-1,41
 294 414 294 414 331 414 c 0,42,30
 352 414 352 414 374.5 423 c 128,-1,31
EndSplineSet
Substitution2: "'onum' Oldstyle Figures in Latin lookup 24 subtable" nine.osf
Substitution2: "'tnum' Tabular Numbers in Latin lookup 23 subtable" nine.tf
Substitution2: "'frac' Diagonal Fractions in Latin lookup 17 subtable" nine.numr
Substitution2: "'dnom' Denominators in Latin lookup 15 subtable" nine.dnom
Substitution2: "'numr' Numerators in Latin lookup 14 subtable" nine.numr
Substitution2: "'sups' Superscript in Latin lookup 13 subtable" uni2079
Substitution2: "'sinf' Scientific Inferiors in Latin lookup 12 subtable" nine.subs
Substitution2: "'subs' Subscript in Latin lookup 11 subtable" nine.subs
AlternateSubs2: "'aalt' Access All Alternates in Latin lookup 1 subtable" nine.subs uni2079 nine.numr nine.dnom nine.tf nine.osf
EndChar

StartChar: colon
Encoding: 58 58 29
Width: 301
GlyphClass: 2
Flags: W
LayerCount: 2
Fore
SplineSet
246 320 m 1,0,-1
 41 320 l 1,1,-1
 41 512 l 1,2,-1
 246 512 l 1,3,-1
 246 320 l 1,0,-1
246 3 m 1,4,-1
 41 3 l 1,5,-1
 41 195 l 1,6,-1
 246 195 l 1,7,-1
 246 3 l 1,4,-1
EndSplineSet
EndChar

StartChar: semicolon
Encoding: 59 59 30
Width: 301
GlyphClass: 2
Flags: W
LayerCount: 2
Fore
SplineSet
41 509 m 1,0,-1
 246 509 l 1,1,-1
 246 313 l 1,2,-1
 41 313 l 1,3,-1
 41 509 l 1,0,-1
111 0 m 1,4,-1
 41 0 l 1,5,-1
 41 193 l 1,6,-1
 246 193 l 1,7,-1
 246 22 l 1,8,-1
 115 -165 l 1,9,-1
 38 -165 l 1,10,-1
 111 0 l 1,4,-1
EndSplineSet
EndChar

StartChar: less
Encoding: 60 60 31
Width: 607
GlyphClass: 2
Flags: W
LayerCount: 2
Fore
SplineSet
537 72 m 1,0,-1
 41 263 l 1,1,-1
 41 418 l 1,2,-1
 537 609 l 1,3,-1
 537 449 l 1,4,-1
 247 339 l 1,5,-1
 537 234 l 1,6,-1
 537 72 l 1,0,-1
EndSplineSet
EndChar

StartChar: equal
Encoding: 61 61 32
Width: 608
GlyphClass: 2
Flags: W
LayerCount: 2
Fore
SplineSet
555 389 m 1,0,-1
 46 389 l 1,1,-1
 46 527 l 1,2,-1
 555 527 l 1,3,-1
 555 389 l 1,0,-1
555 154 m 1,4,-1
 46 154 l 1,5,-1
 46 292 l 1,6,-1
 555 292 l 1,7,-1
 555 154 l 1,4,-1
EndSplineSet
EndChar

StartChar: greater
Encoding: 62 62 33
Width: 607
GlyphClass: 2
Flags: W
LayerCount: 2
Fore
SplineSet
351 339 m 1,0,-1
 60 449 l 1,1,-1
 60 609 l 1,2,-1
 557 418 l 1,3,-1
 557 263 l 1,4,-1
 60 72 l 1,5,-1
 60 234 l 1,6,-1
 351 339 l 1,0,-1
EndSplineSet
EndChar

StartChar: question
Encoding: 63 63 34
Width: 540
GlyphClass: 2
Flags: W
LayerCount: 2
Fore
SplineSet
97.5 686.5 m 128,-1,1
 166 733 166 733 267 733 c 0,2,3
 340 733 340 733 397.5 710 c 128,-1,4
 455 687 455 687 487 648.5 c 128,-1,5
 519 610 519 610 519 566 c 0,6,7
 519 528 519 528 505.5 499.5 c 128,-1,8
 492 471 492 471 472.5 450.5 c 128,-1,9
 453 430 453 430 421 404 c 0,10,11
 377 368 377 368 354.5 337.5 c 128,-1,12
 332 307 332 307 332 262 c 1,13,-1
 180 262 l 1,14,15
 180 313 180 313 194 351.5 c 128,-1,16
 208 390 208 390 228 415.5 c 128,-1,17
 248 441 248 441 278 471 c 0,18,19
 305 500 305 500 317 517.5 c 128,-1,20
 329 535 329 535 329 555 c 0,21,22
 329 578 329 578 310 592 c 128,-1,23
 291 606 291 606 265 606 c 0,24,25
 232 606 232 606 203.5 582.5 c 128,-1,26
 175 559 175 559 159 516 c 1,27,-1
 -3 551 l 1,28,0
 29 640 29 640 97.5 686.5 c 128,-1,1
358 0 m 1,29,-1
 153 0 l 1,30,-1
 153 192 l 1,31,-1
 358 192 l 1,32,-1
 358 0 l 1,29,-1
EndSplineSet
EndChar

StartChar: at
Encoding: 64 64 35
Width: 837
GlyphClass: 2
Flags: W
LayerCount: 2
Fore
SplineSet
571 -88 m 128,-1,1
 505 -110 505 -110 424 -110 c 0,2,3
 306 -110 306 -110 219 -61.5 c 128,-1,4
 132 -13 132 -13 85.5 70.5 c 128,-1,5
 39 154 39 154 39 255 c 0,6,7
 39 361 39 361 88.5 450 c 128,-1,8
 138 539 138 539 230.5 591.5 c 128,-1,9
 323 644 323 644 446 644 c 0,10,11
 541 644 541 644 622 610.5 c 128,-1,12
 703 577 703 577 753 506 c 128,-1,13
 803 435 803 435 803 330 c 0,14,15
 803 257 803 257 778.5 200 c 128,-1,16
 754 143 754 143 710 111 c 128,-1,17
 666 79 666 79 608 79 c 0,18,19
 568 79 568 79 546 91.5 c 128,-1,20
 524 104 524 104 509 121 c 0,21,22
 504 126 504 126 503 126 c 0,23,24
 500 126 500 126 496 120 c 0,25,26
 473 95 473 95 440.5 80 c 128,-1,27
 408 65 408 65 370 65 c 0,28,29
 302 65 302 65 258.5 112 c 128,-1,30
 215 159 215 159 215 236 c 0,31,32
 215 295 215 295 240 347 c 128,-1,33
 265 399 265 399 311 431 c 128,-1,34
 357 463 357 463 418 463 c 0,35,36
 455 463 455 463 476 452.5 c 128,-1,37
 497 442 497 442 519 422 c 0,38,39
 522 419 522 419 524.5 420 c 128,-1,40
 527 421 527 421 528 426 c 2,41,-1
 530 438 l 1,42,-1
 634 438 l 1,43,-1
 599 229 l 2,44,45
 597 215 597 215 597 210 c 0,46,47
 597 180 597 180 622 180 c 0,48,49
 640 180 640 180 657.5 195.5 c 128,-1,50
 675 211 675 211 686 243.5 c 128,-1,51
 697 276 697 276 697 324 c 0,52,53
 697 443 697 443 627 494.5 c 128,-1,54
 557 546 557 546 446 546 c 0,55,56
 294 546 294 546 221.5 465.5 c 128,-1,57
 149 385 149 385 149 258 c 0,58,59
 149 122 149 122 227.5 51 c 128,-1,60
 306 -20 306 -20 441 -20 c 0,61,62
 503 -20 503 -20 540 -6.5 c 128,-1,63
 577 7 577 7 621 37 c 1,64,-1
 674 -34 l 1,65,0
 637 -66 637 -66 571 -88 c 128,-1,1
359 197 m 128,-1,67
 375 174 375 174 405 174 c 0,68,69
 441 174 441 174 466 205.5 c 128,-1,70
 491 237 491 237 491 276 c 0,71,72
 491 308 491 308 474.5 331.5 c 128,-1,73
 458 355 458 355 428 355 c 0,74,75
 394 355 394 355 368.5 325 c 128,-1,76
 343 295 343 295 343 252 c 0,77,66
 343 220 343 220 359 197 c 128,-1,67
EndSplineSet
EndChar

StartChar: A
Encoding: 65 65 36
Width: 724
GlyphClass: 2
Flags: W
AnchorPoint: "Anchor-5" 0 0 basechar 0
AnchorPoint: "Anchor-4" 0 0 basechar 0
AnchorPoint: "Anchor-3" 377 723 basechar 0
AnchorPoint: "Anchor-2" 720 9 basechar 0
LayerCount: 2
Fore
SplineSet
263 723 m 1,0,-1
 462 723 l 1,1,-1
 718 0 l 1,2,-1
 526 0 l 1,3,-1
 478 140 l 1,4,-1
 250 140 l 1,5,-1
 201 0 l 1,6,-1
 7 0 l 1,7,-1
 263 723 l 1,0,-1
434 306 m 1,8,-1
 363 537 l 1,9,-1
 291 306 l 1,10,-1
 434 306 l 1,8,-1
EndSplineSet
Substitution2: "Single Substitution lookup 30 subtable" ordfeminine
Substitution2: "'aalt' Access All Alternates in Latin lookup 0 subtable" ordfeminine
EndChar

StartChar: B
Encoding: 66 66 37
Width: 697
GlyphClass: 2
Flags: W
LayerCount: 2
Fore
SplineSet
65 723 m 1,0,-1
 354 723 l 2,1,2
 503 723 503 723 573.5 674.5 c 128,-1,3
 644 626 644 626 644 532 c 0,4,5
 644 480 644 480 617.5 442 c 128,-1,6
 591 404 591 404 527 372 c 1,7,8
 611 347 611 347 636 301 c 128,-1,9
 661 255 661 255 661 197 c 0,10,11
 661 94 661 94 593 47 c 128,-1,12
 525 0 525 0 370 0 c 2,13,-1
 65 0 l 1,14,-1
 65 723 l 1,0,-1
382 441 m 2,15,16
 416 441 416 441 436.5 459.5 c 128,-1,17
 457 478 457 478 457 507 c 0,18,19
 457 539 457 539 433.5 558 c 128,-1,20
 410 577 410 577 375 577 c 2,21,-1
 260 577 l 1,22,-1
 260 441 l 1,23,-1
 382 441 l 2,15,16
377 146 m 2,24,25
 418 146 418 146 440.5 168 c 128,-1,26
 463 190 463 190 463 221 c 0,27,28
 463 251 463 251 440.5 271 c 128,-1,29
 418 291 418 291 382 291 c 2,30,-1
 260 291 l 1,31,-1
 260 146 l 1,32,-1
 377 146 l 2,24,25
EndSplineSet
EndChar

StartChar: C
Encoding: 67 67 38
Width: 732
GlyphClass: 2
Flags: W
AnchorPoint: "Anchor-5" 0 0 basechar 0
AnchorPoint: "Anchor-4" 382 0 basechar 0
AnchorPoint: "Anchor-3" 382 723 basechar 0
AnchorPoint: "Anchor-2" 0 0 basechar 0
LayerCount: 2
Fore
SplineSet
535.5 699.5 m 128,-1,1
 604 666 604 666 646 605.5 c 128,-1,2
 688 545 688 545 696 468 c 1,3,-1
 493 468 l 1,4,5
 485 519 485 519 454.5 548 c 128,-1,6
 424 577 424 577 375 577 c 0,7,8
 316 577 316 577 282.5 529 c 128,-1,9
 249 481 249 481 249 368 c 0,10,11
 249 253 249 253 283 199.5 c 128,-1,12
 317 146 317 146 375 146 c 0,13,14
 423 146 423 146 453.5 181 c 128,-1,15
 484 216 484 216 493 270 c 1,16,-1
 696 270 l 1,17,18
 679 140 679 140 610 65 c 128,-1,19
 541 -10 541 -10 382 -10 c 0,20,21
 279 -10 279 -10 200.5 39 c 128,-1,22
 122 88 122 88 79 175 c 128,-1,23
 36 262 36 262 36 371 c 128,-1,24
 36 480 36 480 78.5 562 c 128,-1,25
 121 644 121 644 199 688.5 c 128,-1,26
 277 733 277 733 382 733 c 0,27,0
 467 733 467 733 535.5 699.5 c 128,-1,1
EndSplineSet
EndChar

StartChar: D
Encoding: 68 68 39
Width: 735
GlyphClass: 2
Flags: W
AnchorPoint: "Anchor-5" 0 0 basechar 0
AnchorPoint: "Anchor-4" 0 0 basechar 0
AnchorPoint: "Anchor-3" 369 723 basechar 0
AnchorPoint: "Anchor-2" 0 0 basechar 0
LayerCount: 2
Fore
SplineSet
179 723 m 2,0,1
 294 723 294 723 325 722 c 0,2,3
 514 715 514 715 606.5 620 c 128,-1,4
 699 525 699 525 699 364 c 0,5,6
 699 256 699 256 658 174 c 128,-1,7
 617 92 617 92 532.5 46 c 128,-1,8
 448 0 448 0 324 0 c 2,9,-1
 65 0 l 1,10,-1
 65 723 l 1,11,-1
 179 723 l 2,0,1
260 153 m 1,12,-1
 330 153 l 2,13,14
 370 153 370 153 408 175 c 128,-1,15
 446 197 446 197 471 245 c 128,-1,16
 496 293 496 293 496 367 c 0,17,18
 496 465 496 465 451 517.5 c 128,-1,19
 406 570 406 570 330 570 c 2,20,-1
 260 570 l 1,21,-1
 260 153 l 1,12,-1
EndSplineSet
EndChar

StartChar: E
Encoding: 69 69 40
Width: 650
GlyphClass: 2
Flags: W
AnchorPoint: "Anchor-5" 0 0 basechar 0
AnchorPoint: "Anchor-4" 332 0 basechar 0
AnchorPoint: "Anchor-3" 332 723 basechar 0
AnchorPoint: "Anchor-2" 599 10 basechar 0
LayerCount: 2
Fore
SplineSet
65 723 m 1,0,-1
 599 723 l 1,1,-1
 598 562 l 1,2,-1
 261 562 l 1,3,-1
 261 442 l 1,4,-1
 543 442 l 1,5,-1
 543 285 l 1,6,-1
 260 285 l 1,7,-1
 260 162 l 1,8,-1
 600 162 l 1,9,-1
 600 0 l 1,10,-1
 65 0 l 1,11,-1
 65 723 l 1,0,-1
EndSplineSet
EndChar

StartChar: F
Encoding: 70 70 41
Width: 621
GlyphClass: 2
Flags: W
LayerCount: 2
Fore
SplineSet
595 723 m 1,0,-1
 594 564 l 1,1,-1
 260 564 l 1,2,-1
 260 434 l 1,3,-1
 539 434 l 1,4,-1
 539 279 l 1,5,-1
 260 279 l 1,6,-1
 260 0 l 1,7,-1
 65 0 l 1,8,-1
 65 723 l 1,9,-1
 595 723 l 1,0,-1
EndSplineSet
EndChar

StartChar: G
Encoding: 71 71 42
Width: 772
GlyphClass: 2
Flags: W
AnchorPoint: "Anchor-5" 0 0 basechar 0
AnchorPoint: "Anchor-4" 380 0 basechar 0
AnchorPoint: "Anchor-3" 380 723 basechar 0
AnchorPoint: "Anchor-2" 0 0 basechar 0
LayerCount: 2
Fore
SplineSet
198.5 36.5 m 128,-1,1
 121 83 121 83 78.5 167 c 128,-1,2
 36 251 36 251 36 359 c 0,3,4
 36 470 36 470 81 555 c 128,-1,5
 126 640 126 640 206.5 686.5 c 128,-1,6
 287 733 287 733 390 733 c 0,7,8
 483 733 483 733 555 695.5 c 128,-1,9
 627 658 627 658 666 597.5 c 128,-1,10
 705 537 705 537 706 468 c 1,11,-1
 503 468 l 1,12,13
 493 515 493 515 463.5 543.5 c 128,-1,14
 434 572 434 572 385 572 c 0,15,16
 325 572 325 572 286.5 523 c 128,-1,17
 248 474 248 474 248 365 c 0,18,19
 248 246 248 246 290.5 202.5 c 128,-1,20
 333 159 333 159 393 159 c 0,21,22
 432 159 432 159 461 179.5 c 128,-1,23
 490 200 490 200 498 227 c 2,24,-1
 507 253 l 1,25,-1
 381 253 l 1,26,-1
 381 384 l 1,27,-1
 712 382 l 1,28,-1
 712 0 l 1,29,-1
 584 0 l 1,30,-1
 584 80 l 1,31,32
 558 53 558 53 534.5 35 c 128,-1,33
 511 17 511 17 472 3.5 c 128,-1,34
 433 -10 433 -10 378 -10 c 0,35,0
 276 -10 276 -10 198.5 36.5 c 128,-1,1
EndSplineSet
EndChar

StartChar: H
Encoding: 72 72 43
Width: 739
GlyphClass: 2
Flags: W
AnchorPoint: "Anchor-5" 0 0 basechar 0
AnchorPoint: "Anchor-4" 365 0 basechar 0
AnchorPoint: "Anchor-3" 367 723 basechar 0
AnchorPoint: "Anchor-2" 0 0 basechar 0
LayerCount: 2
Fore
SplineSet
260 290 m 1,0,-1
 260 0 l 1,1,-1
 65 0 l 1,2,-1
 65 723 l 1,3,-1
 260 723 l 1,4,-1
 260 449 l 1,5,-1
 479 449 l 1,6,-1
 479 723 l 1,7,-1
 674 723 l 1,8,-1
 674 0 l 1,9,-1
 479 0 l 1,10,-1
 479 290 l 1,11,-1
 260 290 l 1,0,-1
EndSplineSet
EndChar

StartChar: I
Encoding: 73 73 44
Width: 325
GlyphClass: 2
Flags: W
AnchorPoint: "Anchor-5" 0 0 basechar 0
AnchorPoint: "Anchor-4" 173 0 basechar 0
AnchorPoint: "Anchor-3" 163 723 basechar 0
AnchorPoint: "Anchor-2" 236 3 basechar 0
LayerCount: 2
Fore
SplineSet
260 723 m 1,0,-1
 260 0 l 1,1,-1
 65 0 l 1,2,-1
 65 723 l 1,3,-1
 260 723 l 1,0,-1
EndSplineSet
EndChar

StartChar: J
Encoding: 74 74 45
Width: 431
GlyphClass: 2
Flags: W
AnchorPoint: "Anchor-5" 0 0 basechar 0
AnchorPoint: "Anchor-4" 0 0 basechar 0
AnchorPoint: "Anchor-3" 219 723 basechar 0
AnchorPoint: "Anchor-2" 0 0 basechar 0
LayerCount: 2
Fore
SplineSet
348.5 93 m 128,-1,1
 331 42 331 42 284.5 16 c 128,-1,2
 238 -10 238 -10 152 -10 c 0,3,4
 120 -10 120 -10 81.5 -7 c 128,-1,5
 43 -4 43 -4 21 0 c 1,6,-1
 21 175 l 1,7,8
 66 170 66 170 85 170 c 0,9,10
 135 170 135 170 153 195 c 128,-1,11
 171 220 171 220 171 279 c 2,12,-1
 171 723 l 1,13,-1
 366 723 l 1,14,-1
 366 229 l 2,15,0
 366 144 366 144 348.5 93 c 128,-1,1
EndSplineSet
EndChar

StartChar: K
Encoding: 75 75 46
Width: 744
GlyphClass: 2
Flags: W
AnchorPoint: "Anchor-5" 0 0 basechar 0
AnchorPoint: "Anchor-4" 357 0 basechar 0
AnchorPoint: "Anchor-3" 357 723 basechar 0
AnchorPoint: "Anchor-2" 0 0 basechar 0
LayerCount: 2
Fore
SplineSet
518 0 m 1,0,-1
 357 305 l 1,1,-1
 267 189 l 1,2,-1
 267 0 l 1,3,-1
 65 0 l 1,4,-1
 65 723 l 1,5,-1
 267 723 l 1,6,-1
 267 431 l 1,7,-1
 476 723 l 1,8,-1
 695 723 l 1,9,-1
 496 447 l 1,10,-1
 727 0 l 1,11,-1
 518 0 l 1,0,-1
EndSplineSet
EndChar

StartChar: L
Encoding: 76 76 47
Width: 570
GlyphClass: 2
Flags: W
AnchorPoint: "Anchor-5" 486 723 basechar 0
AnchorPoint: "Anchor-4" 304 0 basechar 0
AnchorPoint: "Anchor-3" 152 723 basechar 0
AnchorPoint: "Anchor-2" 0 0 basechar 0
LayerCount: 2
Fore
SplineSet
260 723 m 1,0,-1
 260 160 l 1,1,-1
 549 160 l 1,2,-1
 549 0 l 1,3,-1
 65 0 l 1,4,-1
 65 723 l 1,5,-1
 260 723 l 1,0,-1
EndSplineSet
EndChar

StartChar: M
Encoding: 77 77 48
Width: 942
GlyphClass: 2
Flags: W
LayerCount: 2
Fore
SplineSet
65 723 m 1,0,-1
 354 723 l 1,1,-1
 471 282 l 1,2,-1
 589 723 l 1,3,-1
 877 723 l 1,4,-1
 877 0 l 1,5,-1
 682 0 l 1,6,-1
 682 524 l 1,7,-1
 541 0 l 1,8,-1
 401 0 l 1,9,-1
 260 524 l 1,10,-1
 260 0 l 1,11,-1
 65 0 l 1,12,-1
 65 723 l 1,0,-1
EndSplineSet
EndChar

StartChar: N
Encoding: 78 78 49
Width: 803
GlyphClass: 2
Flags: W
AnchorPoint: "Anchor-5" 0 0 basechar 0
AnchorPoint: "Anchor-4" 401 0 basechar 0
AnchorPoint: "Anchor-3" 401 723 basechar 0
AnchorPoint: "Anchor-2" 0 0 basechar 0
LayerCount: 2
Fore
SplineSet
738 723 m 1,0,-1
 738 0 l 1,1,-1
 562 0 l 1,2,-1
 260 431 l 1,3,-1
 260 0 l 1,4,-1
 65 0 l 1,5,-1
 65 723 l 1,6,-1
 261 723 l 1,7,-1
 543 320 l 1,8,-1
 543 723 l 1,9,-1
 738 723 l 1,0,-1
EndSplineSet
EndChar

StartChar: O
Encoding: 79 79 50
Width: 772
GlyphClass: 2
Flags: W
AnchorPoint: "Anchor-5" 0 0 basechar 0
AnchorPoint: "Anchor-4" 388 0 basechar 0
AnchorPoint: "Anchor-3" 386 723 basechar 0
AnchorPoint: "Anchor-2" 477 10 basechar 0
LayerCount: 2
Fore
SplineSet
201.5 35.5 m 128,-1,1
 122 81 122 81 79 164.5 c 128,-1,2
 36 248 36 248 36 360 c 128,-1,3
 36 472 36 472 79.5 556.5 c 128,-1,4
 123 641 123 641 202.5 687 c 128,-1,5
 282 733 282 733 387 733 c 0,6,7
 491 733 491 733 570 687 c 128,-1,8
 649 641 649 641 692.5 556.5 c 128,-1,9
 736 472 736 472 736 360 c 0,10,11
 736 249 736 249 693 165 c 128,-1,12
 650 81 650 81 571 35.5 c 128,-1,13
 492 -10 492 -10 387 -10 c 0,14,0
 281 -10 281 -10 201.5 35.5 c 128,-1,1
488 196 m 128,-1,16
 525 246 525 246 525 357 c 0,17,18
 525 472 525 472 488 524.5 c 128,-1,19
 451 577 451 577 387 577 c 128,-1,20
 323 577 323 577 285.5 524.5 c 128,-1,21
 248 472 248 472 248 357 c 0,22,23
 248 246 248 246 285 196 c 128,-1,24
 322 146 322 146 387 146 c 0,25,15
 451 146 451 146 488 196 c 128,-1,16
EndSplineSet
Substitution2: "Single Substitution lookup 30 subtable" ordmasculine
Substitution2: "'aalt' Access All Alternates in Latin lookup 0 subtable" ordmasculine
EndChar

StartChar: P
Encoding: 80 80 51
Width: 661
GlyphClass: 2
Flags: W
LayerCount: 2
Fore
SplineSet
65 723 m 1,0,-1
 351 723 l 2,1,2
 432 723 432 723 496.5 694 c 128,-1,3
 561 665 561 665 598 609.5 c 128,-1,4
 635 554 635 554 635 478 c 0,5,6
 635 371 635 371 565.5 310 c 128,-1,7
 496 249 496 249 376 249 c 2,8,-1
 260 249 l 1,9,-1
 260 0 l 1,10,-1
 65 0 l 1,11,-1
 65 723 l 1,0,-1
370 394 m 2,12,13
 406 394 406 394 431 423 c 128,-1,14
 456 452 456 452 456 488 c 0,15,16
 456 525 456 525 429.5 552 c 128,-1,17
 403 579 403 579 370 579 c 2,18,-1
 258 579 l 1,19,-1
 258 394 l 1,20,-1
 370 394 l 2,12,13
EndSplineSet
EndChar

StartChar: Q
Encoding: 81 81 52
Width: 778
GlyphClass: 2
Flags: W
LayerCount: 2
Fore
SplineSet
69.5 556.5 m 128,-1,1
 113 641 113 641 192.5 687 c 128,-1,2
 272 733 272 733 377 733 c 128,-1,3
 482 733 482 733 561 687 c 128,-1,4
 640 641 640 641 683.5 556.5 c 128,-1,5
 727 472 727 472 727 360 c 0,6,7
 727 190 727 190 625 80 c 1,8,9
 631 59 631 59 661 43 c 128,-1,10
 691 27 691 27 727 27 c 1,11,-1
 727 -125 l 1,12,13
 662 -125 662 -125 619.5 -117 c 128,-1,14
 577 -109 577 -109 538 -83 c 128,-1,15
 499 -57 499 -57 457 -5 c 1,16,17
 413 -10 413 -10 377 -10 c 0,18,19
 271 -10 271 -10 191.5 35.5 c 128,-1,20
 112 81 112 81 69 164.5 c 128,-1,21
 26 248 26 248 26 360 c 128,-1,0
 26 472 26 472 69.5 556.5 c 128,-1,1
274 195.5 m 128,-1,23
 309 146 309 146 377 146 c 128,-1,24
 445 146 445 146 480 195.5 c 128,-1,25
 515 245 515 245 515 358 c 0,26,27
 515 474 515 474 479 525.5 c 128,-1,28
 443 577 443 577 377 577 c 128,-1,29
 311 577 311 577 275 525.5 c 128,-1,30
 239 474 239 474 239 358 c 0,31,22
 239 245 239 245 274 195.5 c 128,-1,23
EndSplineSet
EndChar

StartChar: R
Encoding: 82 82 53
Width: 709
GlyphClass: 2
Flags: W
AnchorPoint: "Anchor-5" 0 0 basechar 0
AnchorPoint: "Anchor-4" 357 0 basechar 0
AnchorPoint: "Anchor-3" 347 723 basechar 0
AnchorPoint: "Anchor-2" 0 0 basechar 0
LayerCount: 2
Fore
SplineSet
467 0 m 1,0,-1
 362 249 l 1,1,-1
 260 249 l 1,2,-1
 260 0 l 1,3,-1
 65 0 l 1,4,-1
 65 723 l 1,5,-1
 393 723 l 2,6,7
 527 723 527 723 590.5 659 c 128,-1,8
 654 595 654 595 654 490 c 0,9,10
 654 412 654 412 624 363 c 128,-1,11
 594 314 594 314 539 280 c 1,12,-1
 666 0 l 1,13,-1
 467 0 l 1,0,-1
432.5 423 m 128,-1,15
 458 452 458 452 458 488 c 0,16,17
 458 525 458 525 431.5 552 c 128,-1,18
 405 579 405 579 371 579 c 2,19,-1
 260 579 l 1,20,-1
 260 394 l 1,21,-1
 371 394 l 2,22,14
 407 394 407 394 432.5 423 c 128,-1,15
EndSplineSet
EndChar

StartChar: S
Encoding: 83 83 54
Width: 716
GlyphClass: 2
Flags: W
AnchorPoint: "Anchor-5" 0 0 basechar 0
AnchorPoint: "Anchor-4" 360 0 basechar 0
AnchorPoint: "Anchor-3" 360 723 basechar 0
AnchorPoint: "Anchor-2" 0 0 basechar 0
LayerCount: 2
Fore
SplineSet
210.5 15 m 128,-1,1
 138 40 138 40 90 91.5 c 128,-1,2
 42 143 42 143 36 220 c 1,3,-1
 238 220 l 1,4,5
 246 182 246 182 278.5 160.5 c 128,-1,6
 311 139 311 139 362 139 c 0,7,8
 414 139 414 139 447.5 154.5 c 128,-1,9
 481 170 481 170 481 205 c 0,10,11
 481 234 481 234 451 246.5 c 128,-1,12
 421 259 421 259 360 269 c 2,13,-1
 247 288 l 2,14,15
 159 302 159 302 108 357.5 c 128,-1,16
 57 413 57 413 57 504 c 0,17,18
 57 574 57 574 97.5 625.5 c 128,-1,19
 138 677 138 677 207 704.5 c 128,-1,20
 276 732 276 732 360 732 c 0,21,22
 446 732 446 732 515.5 700.5 c 128,-1,23
 585 669 585 669 626.5 616.5 c 128,-1,24
 668 564 668 564 675 504 c 1,25,-1
 478 504 l 1,26,27
 474 545 474 545 445.5 563.5 c 128,-1,28
 417 582 417 582 364 582 c 0,29,30
 312 582 312 582 288.5 565 c 128,-1,31
 265 548 265 548 265 525 c 0,32,33
 265 499 265 499 282 484.5 c 128,-1,34
 299 470 299 470 344 462 c 2,35,-1
 457 443 l 2,36,37
 595 419 595 419 637.5 352.5 c 128,-1,38
 680 286 680 286 680 205 c 0,39,40
 680 144 680 144 638.5 95 c 128,-1,41
 597 46 597 46 524.5 18 c 128,-1,42
 452 -10 452 -10 363 -10 c 0,43,0
 283 -10 283 -10 210.5 15 c 128,-1,1
EndSplineSet
EndChar

StartChar: T
Encoding: 84 84 55
Width: 631
GlyphClass: 2
Flags: W
AnchorPoint: "Anchor-5" 0 0 basechar 0
AnchorPoint: "Anchor-4" 324 0 basechar 0
AnchorPoint: "Anchor-3" 324 723 basechar 0
AnchorPoint: "Anchor-2" 0 0 basechar 0
LayerCount: 2
Fore
SplineSet
12 723 m 1,0,-1
 619 723 l 1,1,-1
 619 552 l 1,2,-1
 412 552 l 1,3,-1
 412 0 l 1,4,-1
 217 0 l 1,5,-1
 217 552 l 1,6,-1
 12 552 l 1,7,-1
 12 723 l 1,0,-1
EndSplineSet
EndChar

StartChar: U
Encoding: 85 85 56
Width: 754
GlyphClass: 2
Flags: W
AnchorPoint: "Anchor-5" 0 0 basechar 0
AnchorPoint: "Anchor-4" 0 0 basechar 0
AnchorPoint: "Anchor-3" 359 723 basechar 0
AnchorPoint: "Anchor-2" 456 12 basechar 0
LayerCount: 2
Fore
SplineSet
616 71 m 128,-1,1
 543 -10 543 -10 377 -10 c 128,-1,2
 211 -10 211 -10 138 71 c 128,-1,3
 65 152 65 152 65 299 c 2,4,-1
 65 723 l 1,5,-1
 262 723 l 1,6,-1
 262 291 l 2,7,8
 262 221 262 221 294.5 187 c 128,-1,9
 327 153 327 153 377 153 c 128,-1,10
 427 153 427 153 459.5 187 c 128,-1,11
 492 221 492 221 492 291 c 2,12,-1
 492 723 l 1,13,-1
 689 723 l 1,14,-1
 689 299 l 2,15,0
 689 152 689 152 616 71 c 128,-1,1
EndSplineSet
EndChar

StartChar: V
Encoding: 86 86 57
Width: 716
GlyphClass: 2
Flags: W
LayerCount: 2
Fore
SplineSet
465 0 m 1,0,-1
 251 0 l 1,1,-1
 7 723 l 1,2,-1
 190 723 l 1,3,-1
 358 228 l 1,4,-1
 525 723 l 1,5,-1
 709 723 l 1,6,-1
 465 0 l 1,0,-1
EndSplineSet
EndChar

StartChar: W
Encoding: 87 87 58
Width: 976
GlyphClass: 2
Flags: W
AnchorPoint: "Anchor-5" 0 0 basechar 0
AnchorPoint: "Anchor-4" 0 0 basechar 0
AnchorPoint: "Anchor-3" 488 723 basechar 0
AnchorPoint: "Anchor-2" 0 0 basechar 0
LayerCount: 2
Fore
SplineSet
748 0 m 1,0,-1
 603 0 l 1,1,-1
 488 393 l 1,2,-1
 373 0 l 1,3,-1
 230 0 l 1,4,-1
 12 723 l 1,5,-1
 200 723 l 1,6,-1
 312 335 l 1,7,-1
 420 723 l 1,8,-1
 556 723 l 1,9,-1
 668 335 l 1,10,-1
 776 723 l 1,11,-1
 964 723 l 1,12,-1
 748 0 l 1,0,-1
EndSplineSet
EndChar

StartChar: X
Encoding: 88 88 59
Width: 737
GlyphClass: 2
Flags: W
LayerCount: 2
Fore
SplineSet
482 0 m 1,0,-1
 349 227 l 1,1,-1
 219 0 l 1,2,-1
 12 0 l 1,3,-1
 248 365 l 1,4,-1
 18 723 l 1,5,-1
 259 723 l 1,6,-1
 371 527 l 1,7,-1
 482 723 l 1,8,-1
 686 723 l 1,9,-1
 470 393 l 1,10,-1
 725 0 l 1,11,-1
 482 0 l 1,0,-1
EndSplineSet
EndChar

StartChar: Y
Encoding: 89 89 60
Width: 710
GlyphClass: 2
Flags: W
AnchorPoint: "Anchor-5" 0 0 basechar 0
AnchorPoint: "Anchor-4" 0 0 basechar 0
AnchorPoint: "Anchor-3" 379 723 basechar 0
AnchorPoint: "Anchor-2" 0 0 basechar 0
LayerCount: 2
Fore
SplineSet
451 301 m 1,0,-1
 451 0 l 1,1,-1
 256 0 l 1,2,-1
 256 301 l 1,3,-1
 1 723 l 1,4,-1
 211 723 l 1,5,-1
 354 466 l 1,6,-1
 496 723 l 1,7,-1
 708 723 l 1,8,-1
 451 301 l 1,0,-1
EndSplineSet
EndChar

StartChar: Z
Encoding: 90 90 61
Width: 698
GlyphClass: 2
Flags: W
AnchorPoint: "Anchor-5" 0 0 basechar 0
AnchorPoint: "Anchor-4" 354 0 basechar 0
AnchorPoint: "Anchor-3" 377 723 basechar 0
AnchorPoint: "Anchor-2" 0 0 basechar 0
LayerCount: 2
Fore
SplineSet
41 89 m 1,0,-1
 382 563 l 1,1,-1
 73 563 l 1,2,-1
 73 723 l 1,3,-1
 662 723 l 1,4,-1
 662 638 l 1,5,-1
 314 162 l 1,6,-1
 656 162 l 1,7,-1
 656 0 l 1,8,-1
 41 0 l 1,9,-1
 41 89 l 1,0,-1
EndSplineSet
EndChar

StartChar: bracketleft
Encoding: 91 91 62
Width: 357
GlyphClass: 2
Flags: W
LayerCount: 2
Fore
SplineSet
323 723 m 1,0,-1
 323 619 l 1,1,-1
 210 619 l 1,2,-1
 210 -57 l 1,3,-1
 323 -57 l 1,4,-1
 323 -161 l 1,5,-1
 55 -161 l 1,6,-1
 55 723 l 1,7,-1
 323 723 l 1,0,-1
EndSplineSet
EndChar

StartChar: backslash
Encoding: 92 92 63
Width: 400
GlyphClass: 2
Flags: W
LayerCount: 2
Fore
SplineSet
1 723 m 1,0,-1
 130 723 l 1,1,-1
 385 0 l 1,2,-1
 256 0 l 1,3,-1
 1 723 l 1,0,-1
EndSplineSet
EndChar

StartChar: bracketright
Encoding: 93 93 64
Width: 357
GlyphClass: 2
Flags: W
LayerCount: 2
Fore
SplineSet
13 723 m 1,0,-1
 13 619 l 1,1,-1
 126 619 l 1,2,-1
 126 -57 l 1,3,-1
 13 -57 l 1,4,-1
 13 -161 l 1,5,-1
 281 -161 l 1,6,-1
 281 723 l 1,7,-1
 13 723 l 1,0,-1
EndSplineSet
EndChar

StartChar: asciicircum
Encoding: 94 94 65
Width: 487
GlyphClass: 2
Flags: W
LayerCount: 2
Fore
SplineSet
237 339 m 1,0,-1
 145 117 l 1,1,-1
 22 117 l 1,2,-1
 184 491 l 2,3,4
 191 508 191 508 206 517 c 128,-1,5
 221 526 221 526 239 526 c 0,6,7
 256 526 256 526 270 517.5 c 128,-1,8
 284 509 284 509 291 492 c 2,9,-1
 451 117 l 1,10,-1
 329 117 l 1,11,-1
 237 339 l 1,0,-1
EndSplineSet
EndChar

StartChar: underscore
Encoding: 95 95 66
Width: 577
GlyphClass: 2
Flags: W
LayerCount: 2
Fore
SplineSet
519 -156 m 1,0,-1
 49 -156 l 1,1,-1
 49 -20 l 1,2,-1
 519 -20 l 1,3,-1
 519 -156 l 1,0,-1
EndSplineSet
EndChar

StartChar: grave
Encoding: 96 96 67
Width: 335
GlyphClass: 2
Flags: W
LayerCount: 2
Fore
SplineSet
313 628 m 1,0,-1
 287 551 l 1,1,-1
 10 617 l 1,2,-1
 52 735 l 1,3,-1
 313 628 l 1,0,-1
EndSplineSet
EndChar

StartChar: a
Encoding: 97 97 68
Width: 582
GlyphClass: 2
Flags: W
AnchorPoint: "Anchor-5" 0 0 basechar 0
AnchorPoint: "Anchor-4" 0 0 basechar 0
AnchorPoint: "Anchor-3" 292 517 basechar 0
AnchorPoint: "Anchor-2" 498 10 basechar 0
LayerCount: 2
Fore
SplineSet
76 34 m 128,-1,1
 25 78 25 78 25 155 c 0,2,3
 25 241 25 241 93.5 286.5 c 128,-1,4
 162 332 162 332 300 332 c 2,5,-1
 340 332 l 1,6,-1
 340 354 l 2,7,8
 340 401 340 401 287 401 c 0,9,10
 261 401 261 401 237.5 391 c 128,-1,11
 214 381 214 381 203 356 c 1,12,-1
 45 356 l 1,13,14
 49 443 49 443 117 485 c 128,-1,15
 185 527 185 527 292 527 c 0,16,17
 420 527 420 527 473 485 c 128,-1,18
 526 443 526 443 526 366 c 2,19,-1
 526 0 l 1,20,-1
 365 0 l 1,21,-1
 350 60 l 1,22,23
 334 29 334 29 294.5 9.5 c 128,-1,24
 255 -10 255 -10 204 -10 c 0,25,0
 127 -10 127 -10 76 34 c 128,-1,1
319.5 131.5 m 128,-1,27
 339 150 339 150 340 175 c 2,28,-1
 340 236 l 1,29,-1
 309 236 l 2,30,31
 274 236 274 236 241 222 c 128,-1,32
 208 208 208 208 208 175 c 0,33,34
 208 147 208 147 227 130 c 128,-1,35
 246 113 246 113 272 113 c 0,36,26
 300 113 300 113 319.5 131.5 c 128,-1,27
EndSplineSet
Substitution2: "Single Substitution lookup 30 subtable" ordfeminine
Substitution2: "'aalt' Access All Alternates in Latin lookup 0 subtable" ordfeminine
EndChar

StartChar: b
Encoding: 98 98 69
Width: 618
GlyphClass: 2
Flags: W
LayerCount: 2
Fore
SplineSet
277 11 m 128,-1,1
 233 32 233 32 213 72 c 1,2,-1
 193 0 l 1,3,-1
 56 0 l 1,4,-1
 56 743 l 1,5,-1
 251 743 l 1,6,-1
 251 439 l 1,7,8
 276 484 276 484 314 505.5 c 128,-1,9
 352 527 352 527 393 527 c 0,10,11
 488 527 488 527 541 456 c 128,-1,12
 594 385 594 385 594 262 c 0,13,14
 594 136 594 136 536 63 c 128,-1,15
 478 -10 478 -10 372 -10 c 0,16,0
 321 -10 321 -10 277 11 c 128,-1,1
377 158 m 128,-1,18
 397 190 397 190 397 264 c 0,19,20
 397 336 397 336 377 363 c 128,-1,21
 357 390 357 390 323 390 c 0,22,23
 251 390 251 390 251 264 c 0,24,25
 251 126 251 126 320 126 c 0,26,17
 357 126 357 126 377 158 c 128,-1,18
EndSplineSet
EndChar

StartChar: c
Encoding: 99 99 70
Width: 535
GlyphClass: 2
Flags: W
AnchorPoint: "Anchor-5" 0 0 basechar 0
AnchorPoint: "Anchor-4" 284 0 basechar 0
AnchorPoint: "Anchor-3" 285 517 basechar 0
AnchorPoint: "Anchor-2" 0 0 basechar 0
LayerCount: 2
Fore
SplineSet
406 496.5 m 128,-1,1
 457 466 457 466 483.5 416 c 128,-1,2
 510 366 510 366 512 306 c 1,3,-1
 354 306 l 1,4,5
 350 336 350 336 334.5 359.5 c 128,-1,6
 319 383 319 383 286 383 c 0,7,8
 248 383 248 383 225.5 351 c 128,-1,9
 203 319 203 319 203 258 c 0,10,11
 203 196 203 196 227.5 160 c 128,-1,12
 252 124 252 124 290 124 c 0,13,14
 322 124 322 124 337 149 c 128,-1,15
 352 174 352 174 356 200 c 1,16,-1
 509 200 l 1,17,18
 509 144 509 144 482 96 c 128,-1,19
 455 48 455 48 404 19 c 128,-1,20
 353 -10 353 -10 285 -10 c 0,21,22
 211 -10 211 -10 151.5 23.5 c 128,-1,23
 92 57 92 57 58 117.5 c 128,-1,24
 24 178 24 178 24 256 c 0,25,26
 24 335 24 335 58 396.5 c 128,-1,27
 92 458 92 458 151.5 492.5 c 128,-1,28
 211 527 211 527 285 527 c 0,29,0
 355 527 355 527 406 496.5 c 128,-1,1
EndSplineSet
EndChar

StartChar: d
Encoding: 100 100 71
Width: 619
GlyphClass: 2
Flags: W
AnchorPoint: "Anchor-5" 576 517 basechar 0
AnchorPoint: "Anchor-4" 297 0 basechar 0
AnchorPoint: "Anchor-3" 0 0 basechar 0
AnchorPoint: "Anchor-2" 0 0 basechar 0
LayerCount: 2
Fore
SplineSet
82 63 m 128,-1,1
 24 136 24 136 24 262 c 0,2,3
 24 385 24 385 77 456 c 128,-1,4
 130 527 130 527 225 527 c 0,5,6
 269 527 269 527 307.5 511 c 128,-1,7
 346 495 346 495 368 458 c 1,8,-1
 368 743 l 1,9,-1
 563 743 l 1,10,-1
 563 0 l 1,11,-1
 425 0 l 1,12,-1
 410 68 l 1,13,14
 389 34 389 34 347 12 c 128,-1,15
 305 -10 305 -10 246 -10 c 0,16,0
 140 -10 140 -10 82 63 c 128,-1,1
347.5 154.5 m 128,-1,18
 368 183 368 183 368 239 c 2,19,-1
 368 284 l 2,20,21
 368 390 368 390 291 390 c 0,22,23
 256 390 256 390 234 362.5 c 128,-1,24
 212 335 212 335 212 264 c 0,25,26
 212 191 212 191 234 158.5 c 128,-1,27
 256 126 256 126 293 126 c 0,28,17
 327 126 327 126 347.5 154.5 c 128,-1,18
EndSplineSet
EndChar

StartChar: e
Encoding: 101 101 72
Width: 566
GlyphClass: 2
Flags: W
AnchorPoint: "Anchor-5" 0 0 basechar 0
AnchorPoint: "Anchor-4" 291 0 basechar 0
AnchorPoint: "Anchor-3" 288 517 basechar 0
AnchorPoint: "Anchor-2" 416 25 basechar 0
LayerCount: 2
Fore
SplineSet
235 148 m 128,-1,1
 256 126 256 126 290 126 c 0,2,3
 320 126 320 126 340 137 c 128,-1,4
 360 148 360 148 371 176 c 1,5,-1
 543 176 l 1,6,7
 535 121 535 121 498.5 78.5 c 128,-1,8
 462 36 462 36 407.5 13 c 128,-1,9
 353 -10 353 -10 295 -10 c 0,10,11
 215 -10 215 -10 153.5 22.5 c 128,-1,12
 92 55 92 55 58 114.5 c 128,-1,13
 24 174 24 174 24 252 c 0,14,15
 24 327 24 327 55.5 390 c 128,-1,16
 87 453 87 453 147 490 c 128,-1,17
 207 527 207 527 287 527 c 0,18,19
 369 527 369 527 426 492.5 c 128,-1,20
 483 458 483 458 512 397.5 c 128,-1,21
 541 337 541 337 541 259 c 2,22,-1
 541 214 l 1,23,-1
 215 214 l 1,24,0
 214 170 214 170 235 148 c 128,-1,1
362 323 m 1,25,26
 362 354 362 354 342 375 c 128,-1,27
 322 396 322 396 287 396 c 0,28,29
 257 396 257 396 235.5 374 c 128,-1,30
 214 352 214 352 214 323 c 1,31,-1
 362 323 l 1,25,26
EndSplineSet
EndChar

StartChar: f
Encoding: 102 102 73
Width: 414
GlyphClass: 2
Flags: W
LayerCount: 2
Fore
SplineSet
388 385 m 1,0,-1
 294 385 l 1,1,-1
 294 0 l 1,2,-1
 99 0 l 1,3,-1
 99 385 l 1,4,-1
 16 385 l 1,5,-1
 16 517 l 1,6,-1
 99 517 l 1,7,-1
 99 586 l 2,8,9
 99 650 99 650 141 686.5 c 128,-1,10
 183 723 183 723 254 723 c 2,11,-1
 392 723 l 1,12,-1
 393 597 l 1,13,-1
 333 597 l 2,14,15
 309 597 309 597 299.5 586 c 128,-1,16
 290 575 290 575 290 547 c 2,17,-1
 290 517 l 1,18,-1
 388 517 l 1,19,-1
 388 385 l 1,0,-1
EndSplineSet
EndChar

StartChar: g
Encoding: 103 103 74
Width: 653
GlyphClass: 2
Flags: W
AnchorPoint: "Anchor-5" 0 0 basechar 0
AnchorPoint: "Anchor-4" 0 0 basechar 0
AnchorPoint: "Anchor-3" 319 517 basechar 0
AnchorPoint: "Anchor-2" 0 0 basechar 0
LayerCount: 2
Fore
SplineSet
153 -155.5 m 128,-1,1
 85 -140 85 -140 51 -113 c 128,-1,2
 17 -86 17 -86 17 -52 c 0,3,4
 17 -22 17 -22 38.5 -4 c 128,-1,5
 60 14 60 14 76 19.5 c 128,-1,6
 92 25 92 25 120 32 c 1,7,8
 117 33 117 33 97.5 42.5 c 128,-1,9
 78 52 78 52 62.5 72.5 c 128,-1,10
 47 93 47 93 47 119 c 0,11,12
 47 152 47 152 77.5 177 c 128,-1,13
 108 202 108 202 166 210 c 1,14,15
 113 233 113 233 84 276.5 c 128,-1,16
 55 320 55 320 55 364 c 0,17,18
 55 414 55 414 90.5 450.5 c 128,-1,19
 126 487 126 487 186 506 c 128,-1,20
 246 525 246 525 318 525 c 0,21,22
 368 525 368 525 402 515.5 c 128,-1,23
 436 506 436 506 470 488 c 1,24,25
 596 536 596 536 640 555 c 1,26,-1
 639 417 l 1,27,-1
 551 405 l 1,28,29
 557 383 557 383 557 365 c 0,30,31
 557 320 557 320 527.5 279 c 128,-1,32
 498 238 498 238 441 212.5 c 128,-1,33
 384 187 384 187 306 187 c 0,34,35
 262 187 262 187 237 190 c 1,36,37
 223 187 223 187 223 181 c 0,38,39
 223 173 223 173 237.5 170 c 128,-1,40
 252 167 252 167 275 165.5 c 128,-1,41
 298 164 298 164 306 164 c 2,42,-1
 409 158 l 2,43,44
 512 151 512 151 563.5 108.5 c 128,-1,45
 615 66 615 66 615 3 c 0,46,47
 615 -48 615 -48 581.5 -87 c 128,-1,48
 548 -126 548 -126 481.5 -148.5 c 128,-1,49
 415 -171 415 -171 320 -171 c 0,50,0
 221 -171 221 -171 153 -155.5 c 128,-1,1
356.5 308 m 128,-1,52
 374 327 374 327 374 357 c 128,-1,53
 374 387 374 387 356.5 408.5 c 128,-1,54
 339 430 339 430 312 430 c 128,-1,55
 285 430 285 430 267.5 408.5 c 128,-1,56
 250 387 250 387 250 357 c 128,-1,57
 250 327 250 327 267.5 308 c 128,-1,58
 285 289 285 289 312 289 c 128,-1,51
 339 289 339 289 356.5 308 c 128,-1,52
414 -61 m 128,-1,60
 431 -53 431 -53 431 -37 c 128,-1,61
 431 -21 431 -21 414 -10.5 c 128,-1,62
 397 0 397 0 367 2 c 2,63,-1
 273 8 l 2,64,65
 237 10 237 10 221.5 -1.5 c 128,-1,66
 206 -13 206 -13 206 -29 c 0,67,68
 206 -53 206 -53 239 -61 c 128,-1,69
 272 -69 272 -69 350 -69 c 0,70,59
 397 -69 397 -69 414 -61 c 128,-1,60
EndSplineSet
EndChar

StartChar: h
Encoding: 104 104 75
Width: 624
GlyphClass: 2
Flags: W
AnchorPoint: "Anchor-5" 0 0 basechar 0
AnchorPoint: "Anchor-4" 313 0 basechar 0
AnchorPoint: "Anchor-3" 449 517 basechar 0
AnchorPoint: "Anchor-2" 0 0 basechar 0
LayerCount: 2
Fore
SplineSet
56 743 m 1,0,-1
 248 743 l 1,1,-1
 248 453 l 1,2,3
 270 476 270 476 284.5 488 c 128,-1,4
 299 500 299 500 324 508.5 c 128,-1,5
 349 517 349 517 387 517 c 0,6,7
 436 517 436 517 477.5 495.5 c 128,-1,8
 519 474 519 474 543.5 435 c 128,-1,9
 568 396 568 396 568 346 c 2,10,-1
 568 0 l 1,11,-1
 373 0 l 1,12,-1
 373 323 l 2,13,14
 373 344 373 344 354 357 c 128,-1,15
 335 370 335 370 312 370 c 128,-1,16
 289 370 289 370 270 356 c 128,-1,17
 251 342 251 342 251 321 c 2,18,-1
 251 0 l 1,19,-1
 56 0 l 1,20,-1
 56 743 l 1,0,-1
EndSplineSet
EndChar

StartChar: i
Encoding: 105 105 76
Width: 307
GlyphClass: 2
Flags: W
LayerCount: 2
Fore
SplineSet
251 579 m 1,0,-1
 56 579 l 1,1,-1
 56 743 l 1,2,-1
 251 743 l 1,3,-1
 251 579 l 1,0,-1
251 0 m 1,4,-1
 56 0 l 1,5,-1
 56 517 l 1,6,-1
 251 517 l 1,7,-1
 251 0 l 1,4,-1
EndSplineSet
Substitution2: "Single Substitution lookup 28 subtable" dotlessi
Substitution2: "'locl' Localized Forms in Latin lookup 10 subtable" i.loclTRK
Substitution2: "'locl' Localized Forms in Latin lookup 9 subtable" i.loclTRK
Substitution2: "'locl' Localized Forms in Latin lookup 8 subtable" i.loclTRK
Substitution2: "'locl' Localized Forms in Latin lookup 7 subtable" i.loclTRK
Substitution2: "'locl' Localized Forms in Latin lookup 6 subtable" i.loclTRK
AlternateSubs2: "'aalt' Access All Alternates in Latin lookup 1 subtable" dotlessi i.loclTRK
EndChar

StartChar: j
Encoding: 106 106 77
Width: 310
GlyphClass: 2
Flags: W
LayerCount: 2
Fore
SplineSet
254 579 m 1,0,-1
 59 579 l 1,1,-1
 59 743 l 1,2,-1
 254 743 l 1,3,-1
 254 579 l 1,0,-1
50 -166 m 0,4,5
 27 -166 27 -166 12 -162 c 128,-1,6
 -3 -158 -3 -158 -9.5 -154 c 128,-1,7
 -16 -150 -16 -150 -17 -149 c 2,8,-1
 -18 -19 l 1,9,-1
 12 -14 l 2,10,11
 39 -8 39 -8 49 1.5 c 128,-1,12
 59 11 59 11 59 28 c 2,13,-1
 59 517 l 1,14,-1
 254 517 l 1,15,-1
 254 28 l 2,16,17
 254 -166 254 -166 50 -166 c 0,4,5
EndSplineSet
Substitution2: "Single Substitution lookup 28 subtable" uni0237
Substitution2: "'aalt' Access All Alternates in Latin lookup 0 subtable" uni0237
EndChar

StartChar: k
Encoding: 107 107 78
Width: 613
GlyphClass: 2
Flags: W
AnchorPoint: "Anchor-5" 0 0 basechar 0
AnchorPoint: "Anchor-4" 309 0 basechar 0
AnchorPoint: "Anchor-3" 0 0 basechar 0
AnchorPoint: "Anchor-2" 0 0 basechar 0
LayerCount: 2
Fore
SplineSet
408 0 m 1,0,-1
 289 190 l 1,1,-1
 251 146 l 1,2,-1
 251 0 l 1,3,-1
 56 0 l 1,4,-1
 56 743 l 1,5,-1
 251 743 l 1,6,-1
 251 332 l 1,7,-1
 404 517 l 1,8,-1
 596 517 l 1,9,-1
 407 303 l 1,10,-1
 597 0 l 1,11,-1
 408 0 l 1,0,-1
EndSplineSet
EndChar

StartChar: l
Encoding: 108 108 79
Width: 347
GlyphClass: 2
Flags: W
AnchorPoint: "Anchor-5" 396 765 basechar 0
AnchorPoint: "Anchor-4" 139 0 basechar 0
AnchorPoint: "Anchor-3" 153 765 basechar 0
AnchorPoint: "Anchor-2" 0 0 basechar 0
LayerCount: 2
Fore
SplineSet
121 13 m 128,-1,1
 78 37 78 37 67 71.5 c 128,-1,2
 56 106 56 106 56 156 c 2,3,-1
 56 743 l 1,4,-1
 247 743 l 1,5,-1
 247 182 l 2,6,7
 247 159 247 159 258.5 144.5 c 128,-1,8
 270 130 270 130 305 125 c 2,9,-1
 326 123 l 1,10,-1
 326 5 l 1,11,12
 285 -11 285 -11 253 -11 c 0,13,0
 164 -11 164 -11 121 13 c 128,-1,1
EndSplineSet
Substitution2: "'ss01' Style Set 1 in Latin lookup 27 subtable" l.ss01
Substitution2: "'salt' Stylistic Alternatives in Latin lookup 26 subtable" l.ss01
Substitution2: "'aalt' Access All Alternates in Latin lookup 0 subtable" l.ss01
EndChar

StartChar: m
Encoding: 109 109 80
Width: 941
GlyphClass: 2
Flags: W
LayerCount: 2
Fore
SplineSet
56 517 m 1,0,-1
 248 517 l 1,1,-1
 248 455 l 1,2,3
 252 458 252 458 279 479 c 128,-1,4
 306 500 306 500 342.5 513.5 c 128,-1,5
 379 527 379 527 416 527 c 0,6,7
 458 527 458 527 496.5 510 c 128,-1,8
 535 493 535 493 559 455 c 1,9,10
 585 487 585 487 629.5 507 c 128,-1,11
 674 527 674 527 716 527 c 0,12,13
 757 527 757 527 796 507 c 128,-1,14
 835 487 835 487 860 450 c 128,-1,15
 885 413 885 413 885 364 c 2,16,-1
 885 0 l 1,17,-1
 690 0 l 1,18,-1
 690 341 l 2,19,20
 690 362 690 362 671.5 375.5 c 128,-1,21
 653 389 653 389 630 389 c 0,22,23
 591 389 591 389 579 370 c 128,-1,24
 567 351 567 351 567 310 c 2,25,-1
 567 0 l 1,26,-1
 373 0 l 1,27,-1
 373 341 l 2,28,29
 373 362 373 362 354 375.5 c 128,-1,30
 335 389 335 389 312 389 c 128,-1,31
 289 389 289 389 270 375.5 c 128,-1,32
 251 362 251 362 251 341 c 2,33,-1
 251 0 l 1,34,-1
 56 0 l 1,35,-1
 56 517 l 1,0,-1
EndSplineSet
EndChar

StartChar: n
Encoding: 110 110 81
Width: 625
GlyphClass: 2
Flags: W
AnchorPoint: "Anchor-5" 0 0 basechar 0
AnchorPoint: "Anchor-4" 312 0 basechar 0
AnchorPoint: "Anchor-3" 312 517 basechar 0
AnchorPoint: "Anchor-2" 0 0 basechar 0
LayerCount: 2
Fore
SplineSet
56 517 m 1,0,-1
 249 517 l 1,1,-1
 249 455 l 1,2,3
 272 479 272 479 286.5 490.5 c 128,-1,4
 301 502 301 502 325.5 510.5 c 128,-1,5
 350 519 350 519 388 519 c 0,6,7
 433 519 433 519 475 496.5 c 128,-1,8
 517 474 517 474 543 435 c 128,-1,9
 569 396 569 396 569 349 c 2,10,-1
 569 0 l 1,11,-1
 374 0 l 1,12,-1
 374 323 l 2,13,14
 374 344 374 344 355.5 357 c 128,-1,15
 337 370 337 370 314 370 c 0,16,17
 290 370 290 370 270.5 357 c 128,-1,18
 251 344 251 344 251 323 c 2,19,-1
 251 0 l 1,20,-1
 56 0 l 1,21,-1
 56 517 l 1,0,-1
EndSplineSet
EndChar

StartChar: o
Encoding: 111 111 82
Width: 573
GlyphClass: 2
Flags: W
AnchorPoint: "Anchor-5" 0 0 basechar 0
AnchorPoint: "Anchor-4" 284 0 basechar 0
AnchorPoint: "Anchor-3" 287 517 basechar 0
AnchorPoint: "Anchor-2" 363 10 basechar 0
LayerCount: 2
Fore
SplineSet
147.5 23.5 m 128,-1,1
 88 57 88 57 56 117.5 c 128,-1,2
 24 178 24 178 24 255 c 0,3,4
 24 335 24 335 57.5 397 c 128,-1,5
 91 459 91 459 151 493 c 128,-1,6
 211 527 211 527 287 527 c 0,7,8
 366 527 366 527 425.5 492 c 128,-1,9
 485 457 485 457 517 395 c 128,-1,10
 549 333 549 333 549 255 c 0,11,12
 549 178 549 178 516.5 118 c 128,-1,13
 484 58 484 58 424.5 24 c 128,-1,14
 365 -10 365 -10 286 -10 c 128,-1,0
 207 -10 207 -10 147.5 23.5 c 128,-1,1
344.5 170 m 128,-1,16
 360 209 360 209 360 262 c 0,17,18
 360 388 360 388 287 388 c 0,19,20
 213 388 213 388 213 262 c 0,21,22
 213 208 213 208 229 169.5 c 128,-1,23
 245 131 245 131 287 131 c 128,-1,15
 329 131 329 131 344.5 170 c 128,-1,16
EndSplineSet
Substitution2: "Single Substitution lookup 30 subtable" ordmasculine
Substitution2: "'aalt' Access All Alternates in Latin lookup 0 subtable" ordmasculine
EndChar

StartChar: p
Encoding: 112 112 83
Width: 618
GlyphClass: 2
Flags: W
LayerCount: 2
Fore
SplineSet
56 517 m 1,0,-1
 252 517 l 1,1,-1
 252 457 l 1,2,3
 279 494 279 494 316 510.5 c 128,-1,4
 353 527 353 527 394 527 c 0,5,6
 450 527 450 527 495 497.5 c 128,-1,7
 540 468 540 468 567 408 c 128,-1,8
 594 348 594 348 594 260 c 0,9,10
 594 166 594 166 563 105.5 c 128,-1,11
 532 45 532 45 482 17.5 c 128,-1,12
 432 -10 432 -10 373 -10 c 0,13,14
 286 -10 286 -10 251 58 c 1,15,-1
 251 -161 l 1,16,-1
 56 -161 l 1,17,-1
 56 517 l 1,0,-1
390.5 160 m 128,-1,19
 414 194 414 194 414 260 c 0,20,21
 414 320 414 320 390 355 c 128,-1,22
 366 390 366 390 332 390 c 0,23,24
 301 390 301 390 276 361.5 c 128,-1,25
 251 333 251 333 251 299 c 2,26,-1
 251 221 l 2,27,28
 251 181 251 181 275.5 153.5 c 128,-1,29
 300 126 300 126 332 126 c 0,30,18
 367 126 367 126 390.5 160 c 128,-1,19
EndSplineSet
EndChar

StartChar: q
Encoding: 113 113 84
Width: 619
GlyphClass: 2
Flags: W
LayerCount: 2
Fore
SplineSet
368 -161 m 1,0,-1
 368 48 l 1,1,2
 334 16 334 16 300 3 c 128,-1,3
 266 -10 266 -10 230 -10 c 0,4,5
 140 -10 140 -10 82 55.5 c 128,-1,6
 24 121 24 121 24 260 c 0,7,8
 24 348 24 348 51 408 c 128,-1,9
 78 468 78 468 123.5 497.5 c 128,-1,10
 169 527 169 527 225 527 c 0,11,12
 263 527 263 527 300.5 514 c 128,-1,13
 338 501 338 501 367 477 c 1,14,-1
 367 517 l 1,15,-1
 563 517 l 1,16,-1
 563 -161 l 1,17,-1
 368 -161 l 1,0,-1
349.5 155 m 128,-1,19
 368 194 368 194 368 264 c 0,20,21
 368 400 368 400 298 400 c 0,22,23
 263 400 263 400 242 366 c 128,-1,24
 221 332 221 332 221 264 c 128,-1,25
 221 196 221 196 242.5 156 c 128,-1,26
 264 116 264 116 298 116 c 0,27,18
 331 116 331 116 349.5 155 c 128,-1,19
EndSplineSet
EndChar

StartChar: r
Encoding: 114 114 85
Width: 449
GlyphClass: 2
Flags: W
AnchorPoint: "Anchor-5" 0 0 basechar 0
AnchorPoint: "Anchor-4" 165 0 basechar 0
AnchorPoint: "Anchor-3" 242 517 basechar 0
AnchorPoint: "Anchor-2" 0 0 basechar 0
LayerCount: 2
Fore
SplineSet
56 517 m 1,0,-1
 244 517 l 1,1,-1
 244 374 l 1,2,3
 264 442 264 442 307 484.5 c 128,-1,4
 350 527 350 527 418 527 c 1,5,-1
 419 344 l 1,6,7
 403 346 403 346 375 346 c 0,8,9
 303 346 303 346 277 319 c 128,-1,10
 251 292 251 292 251 248 c 2,11,-1
 251 0 l 1,12,-1
 56 0 l 1,13,-1
 56 517 l 1,0,-1
EndSplineSet
EndChar

StartChar: s
Encoding: 115 115 86
Width: 527
GlyphClass: 2
Flags: W
AnchorPoint: "Anchor-5" 0 0 basechar 0
AnchorPoint: "Anchor-4" 271 0 basechar 0
AnchorPoint: "Anchor-3" 272 517 basechar 0
AnchorPoint: "Anchor-2" 0 0 basechar 0
LayerCount: 2
Fore
SplineSet
107 31.5 m 128,-1,1
 37 73 37 73 22 164 c 1,2,-1
 182 164 l 1,3,4
 192 136 192 136 215 127.5 c 128,-1,5
 238 119 238 119 273 119 c 0,6,7
 307 119 307 119 324.5 127.5 c 128,-1,8
 342 136 342 136 342 149 c 0,9,10
 342 164 342 164 327 171.5 c 128,-1,11
 312 179 312 179 280 185 c 2,12,-1
 203 197 l 1,13,14
 37 227 37 227 37 357 c 0,15,16
 37 405 37 405 65 443.5 c 128,-1,17
 93 482 93 482 146 504.5 c 128,-1,18
 199 527 199 527 272 527 c 0,19,20
 342 527 342 527 395 506 c 128,-1,21
 448 485 448 485 476 446.5 c 128,-1,22
 504 408 504 408 502 356 c 1,23,-1
 344 356 l 1,24,25
 338 381 338 381 317.5 392.5 c 128,-1,26
 297 404 297 404 267 404 c 0,27,28
 205 404 205 404 205 371 c 0,29,30
 205 358 205 358 223 349.5 c 128,-1,31
 241 341 241 341 283 334 c 2,32,-1
 349 322 l 1,33,34
 437 301 437 301 471 253.5 c 128,-1,35
 505 206 505 206 505 160 c 0,36,37
 505 79 505 79 439 34.5 c 128,-1,38
 373 -10 373 -10 270 -10 c 0,39,0
 177 -10 177 -10 107 31.5 c 128,-1,1
EndSplineSet
EndChar

StartChar: t
Encoding: 116 116 87
Width: 451
GlyphClass: 2
Flags: W
AnchorPoint: "Anchor-5" 432 795 basechar 0
AnchorPoint: "Anchor-4" 266 0 basechar 0
AnchorPoint: "Anchor-3" 0 0 basechar 0
AnchorPoint: "Anchor-2" 0 0 basechar 0
LayerCount: 2
Fore
SplineSet
298 385 m 1,0,-1
 299 151 l 2,1,2
 299 135 299 135 307 129 c 128,-1,3
 315 123 315 123 330 123 c 2,4,-1
 411 123 l 1,5,-1
 411 8 l 1,6,7
 379 -8 379 -8 308 -8 c 0,8,9
 194 -8 194 -8 149 32 c 128,-1,10
 104 72 104 72 104 142 c 2,11,-1
 104 385 l 1,12,-1
 20 385 l 1,13,-1
 20 517 l 1,14,-1
 111 517 l 1,15,-1
 140 678 l 1,16,-1
 298 678 l 1,17,-1
 298 518 l 1,18,-1
 411 518 l 1,19,-1
 411 385 l 1,20,-1
 298 385 l 1,0,-1
EndSplineSet
EndChar

StartChar: u
Encoding: 117 117 88
Width: 625
GlyphClass: 2
Flags: W
AnchorPoint: "Anchor-5" 0 0 basechar 0
AnchorPoint: "Anchor-4" 313 0 basechar 0
AnchorPoint: "Anchor-3" 312 517 basechar 0
AnchorPoint: "Anchor-2" 538 10 basechar 0
LayerCount: 2
Fore
SplineSet
158.5 10 m 128,-1,1
 114 30 114 30 85 67 c 128,-1,2
 56 104 56 104 56 153 c 2,3,-1
 56 517 l 1,4,-1
 251 517 l 1,5,-1
 251 180 l 2,6,7
 251 157 251 157 267 142 c 128,-1,8
 283 127 283 127 311 127 c 128,-1,9
 339 127 339 127 355.5 142 c 128,-1,10
 372 157 372 157 372 180 c 2,11,-1
 372 517 l 1,12,-1
 569 517 l 1,13,-1
 565 0 l 1,14,-1
 421 0 l 1,15,-1
 407 68 l 1,16,17
 383 29 383 29 337 9.5 c 128,-1,18
 291 -10 291 -10 247 -10 c 128,-1,0
 203 -10 203 -10 158.5 10 c 128,-1,1
EndSplineSet
EndChar

StartChar: v
Encoding: 118 118 89
Width: 570
GlyphClass: 2
Flags: W
LayerCount: 2
Fore
SplineSet
348 0 m 1,0,-1
 223 0 l 1,1,-1
 12 517 l 1,2,-1
 185 517 l 1,3,-1
 286 253 l 1,4,-1
 383 517 l 1,5,-1
 559 517 l 1,6,-1
 348 0 l 1,0,-1
EndSplineSet
EndChar

StartChar: w
Encoding: 119 119 90
Width: 811
GlyphClass: 2
Flags: W
AnchorPoint: "Anchor-5" 0 0 basechar 0
AnchorPoint: "Anchor-4" 0 0 basechar 0
AnchorPoint: "Anchor-3" 410 517 basechar 0
AnchorPoint: "Anchor-2" 0 0 basechar 0
LayerCount: 2
Fore
SplineSet
618 0 m 1,0,-1
 479 0 l 1,1,-1
 402 251 l 1,2,-1
 320 0 l 1,3,-1
 187 0 l 1,4,-1
 12 517 l 1,5,-1
 181 517 l 1,6,-1
 262 266 l 1,7,-1
 338 517 l 1,8,-1
 473 517 l 1,9,-1
 547 265 l 1,10,-1
 627 517 l 1,11,-1
 800 517 l 1,12,-1
 618 0 l 1,0,-1
EndSplineSet
EndChar

StartChar: x
Encoding: 120 120 91
Width: 623
GlyphClass: 2
Flags: W
LayerCount: 2
Fore
SplineSet
411 0 m 1,0,-1
 312 137 l 1,1,-1
 212 0 l 1,2,-1
 12 0 l 1,3,-1
 210 270 l 1,4,-1
 30 517 l 1,5,-1
 230 517 l 1,6,-1
 313 405 l 1,7,-1
 395 517 l 1,8,-1
 595 517 l 1,9,-1
 413 270 l 1,10,-1
 611 0 l 1,11,-1
 411 0 l 1,0,-1
EndSplineSet
EndChar

StartChar: y
Encoding: 121 121 92
Width: 603
GlyphClass: 2
Flags: W
AnchorPoint: "Anchor-5" 0 0 basechar 0
AnchorPoint: "Anchor-4" 0 0 basechar 0
AnchorPoint: "Anchor-3" 326 517 basechar 0
AnchorPoint: "Anchor-2" 0 0 basechar 0
LayerCount: 2
Fore
SplineSet
105 -160 m 128,-1,1
 80 -155 80 -155 68 -150 c 128,-1,2
 56 -145 56 -145 53 -143 c 2,3,-1
 53 -20 l 1,4,-1
 103 -23 l 2,5,6
 111 -24 111 -24 126 -24 c 0,7,8
 161 -24 161 -24 179.5 -15.5 c 128,-1,9
 198 -7 198 -7 202.5 1 c 128,-1,10
 207 9 207 9 211 20 c 2,11,-1
 213 30 l 1,12,-1
 12 517 l 1,13,-1
 203 517 l 1,14,-1
 301 236 l 1,15,-1
 403 517 l 1,16,-1
 593 517 l 1,17,-1
 391 30 l 2,18,19
 359 -49 359 -49 324.5 -91.5 c 128,-1,20
 290 -134 290 -134 252.5 -149.5 c 128,-1,21
 215 -165 215 -165 166 -165 c 0,22,0
 130 -165 130 -165 105 -160 c 128,-1,1
EndSplineSet
EndChar

StartChar: z
Encoding: 122 122 93
Width: 531
GlyphClass: 2
Flags: W
AnchorPoint: "Anchor-5" 0 0 basechar 0
AnchorPoint: "Anchor-4" 0 0 basechar 0
AnchorPoint: "Anchor-3" 274 517 basechar 0
AnchorPoint: "Anchor-2" 0 0 basechar 0
LayerCount: 2
Fore
SplineSet
21 92 m 1,0,-1
 262 398 l 1,1,-1
 43 398 l 1,2,-1
 43 517 l 1,3,-1
 509 517 l 1,4,-1
 509 428 l 1,5,-1
 265 121 l 1,6,-1
 510 121 l 1,7,-1
 510 0 l 1,8,-1
 21 0 l 1,9,-1
 21 92 l 1,0,-1
EndSplineSet
EndChar

StartChar: braceleft
Encoding: 123 123 94
Width: 425
GlyphClass: 2
Flags: W
LayerCount: 2
Fore
SplineSet
149.5 664 m 128,-1,1
 176 694 176 694 216.5 708.5 c 128,-1,2
 257 723 257 723 298 723 c 2,3,-1
 391 723 l 1,4,-1
 391 619 l 1,5,-1
 340 619 l 2,6,7
 311 619 311 619 297.5 612 c 128,-1,8
 284 605 284 605 281 594.5 c 128,-1,9
 278 584 278 584 278 567 c 2,10,-1
 278 382 l 2,11,12
 276 338 276 338 243 316.5 c 128,-1,13
 210 295 210 295 167 290 c 0,14,15
 161 289 161 289 160.5 287 c 128,-1,16
 160 285 160 285 167 284 c 0,17,18
 275 274 275 274 278 182 c 2,19,-1
 278 -5 l 2,20,21
 278 -33 278 -33 291.5 -45 c 128,-1,22
 305 -57 305 -57 340 -57 c 2,23,-1
 391 -57 l 1,24,-1
 391 -161 l 1,25,-1
 301 -161 l 2,26,27
 258 -161 258 -161 217 -146.5 c 128,-1,28
 176 -132 176 -132 149.5 -102 c 128,-1,29
 123 -72 123 -72 123 -28 c 2,30,-1
 123 164 l 2,31,32
 123 242 123 242 10 242 c 1,33,-1
 10 332 l 1,34,35
 71 332 71 332 97 351 c 128,-1,36
 123 370 123 370 123 414 c 2,37,-1
 123 591 l 2,38,0
 123 634 123 634 149.5 664 c 128,-1,1
EndSplineSet
EndChar

StartChar: bar
Encoding: 124 124 95
Width: 268
GlyphClass: 2
Flags: W
LayerCount: 2
Fore
SplineSet
65 -161 m 1,0,-1
 65 826 l 1,1,-1
 203 826 l 1,2,-1
 203 -161 l 1,3,-1
 65 -161 l 1,0,-1
EndSplineSet
EndChar

StartChar: braceright
Encoding: 125 125 96
Width: 425
GlyphClass: 2
Flags: W
LayerCount: 2
Fore
SplineSet
256.5 664 m 128,-1,1
 230 694 230 694 189.5 708.5 c 128,-1,2
 149 723 149 723 108 723 c 2,3,-1
 15 723 l 1,4,-1
 15 619 l 1,5,-1
 66 619 l 2,6,7
 95 619 95 619 108.5 612 c 128,-1,8
 122 605 122 605 125 594.5 c 128,-1,9
 128 584 128 584 128 567 c 2,10,-1
 128 382 l 2,11,12
 130 338 130 338 163 316.5 c 128,-1,13
 196 295 196 295 239 290 c 0,14,15
 245 289 245 289 245.5 287 c 128,-1,16
 246 285 246 285 239 284 c 0,17,18
 131 274 131 274 128 182 c 2,19,-1
 128 -5 l 2,20,21
 128 -33 128 -33 114.5 -45 c 128,-1,22
 101 -57 101 -57 66 -57 c 2,23,-1
 15 -57 l 1,24,-1
 15 -161 l 1,25,-1
 105 -161 l 2,26,27
 148 -161 148 -161 189 -146.5 c 128,-1,28
 230 -132 230 -132 256.5 -102 c 128,-1,29
 283 -72 283 -72 283 -28 c 2,30,-1
 283 164 l 2,31,32
 283 242 283 242 396 242 c 1,33,-1
 396 332 l 1,34,35
 335 332 335 332 309 351 c 128,-1,36
 283 370 283 370 283 414 c 2,37,-1
 283 591 l 2,38,0
 283 634 283 634 256.5 664 c 128,-1,1
EndSplineSet
EndChar

StartChar: asciitilde
Encoding: 126 126 97
Width: 644
GlyphClass: 2
Flags: W
LayerCount: 2
Fore
SplineSet
508.5 297.5 m 128,-1,1
 464 269 464 269 419 269 c 0,2,3
 390 269 390 269 366 279 c 128,-1,4
 342 289 342 289 312 307 c 0,5,6
 285 323 285 323 266.5 331 c 128,-1,7
 248 339 248 339 227 339 c 0,8,9
 193 339 193 339 168 318.5 c 128,-1,10
 143 298 143 298 106 255 c 1,11,-1
 51 347 l 1,12,13
 103 403 103 403 142.5 429.5 c 128,-1,14
 182 456 182 456 230 456 c 0,15,16
 261 456 261 456 285 446 c 128,-1,17
 309 436 309 436 339 417 c 0,18,19
 363 402 363 402 379.5 394.5 c 128,-1,20
 396 387 396 387 415 387 c 0,21,22
 448 387 448 387 477 410 c 128,-1,23
 506 433 506 433 527 471 c 1,24,-1
 583 381 l 1,25,0
 553 326 553 326 508.5 297.5 c 128,-1,1
EndSplineSet
EndChar

StartChar: exclamdown
Encoding: 161 161 99
Width: 299
GlyphClass: 2
Flags: W
LayerCount: 2
Fore
SplineSet
43 325 m 1,0,-1
 43 517 l 1,1,-1
 248 517 l 1,2,-1
 248 325 l 1,3,-1
 43 325 l 1,0,-1
33 -161 m 1,4,-1
 88 257 l 1,5,-1
 206 257 l 1,6,-1
 259 -161 l 1,7,-1
 33 -161 l 1,4,-1
EndSplineSet
EndChar

StartChar: cent
Encoding: 162 162 100
Width: 567
GlyphClass: 2
Flags: W
AnchorPoint: "Anchor-1" 296 628 basechar 0
AnchorPoint: "Anchor-0" 295 111 basechar 0
LayerCount: 2
Fore
SplineSet
348 260 m 128,-1,1
 363 285 363 285 367 311 c 1,2,-1
 520 311 l 1,3,4
 520 242 520 242 479 186.5 c 128,-1,5
 438 131 438 131 367 110 c 1,6,-1
 367 0 l 1,7,-1
 245 0 l 1,8,-1
 245 105 l 1,9,10
 184 116 184 116 136.5 152 c 128,-1,11
 89 188 89 188 62 243.5 c 128,-1,12
 35 299 35 299 35 367 c 0,13,14
 35 436 35 436 61.5 492.5 c 128,-1,15
 88 549 88 549 136 586 c 128,-1,16
 184 623 184 623 245 634 c 1,17,-1
 245 723 l 1,18,-1
 367 723 l 1,19,-1
 367 629 l 1,20,21
 439 609 439 609 480 550 c 128,-1,22
 521 491 521 491 523 417 c 1,23,-1
 365 417 l 1,24,25
 361 447 361 447 345.5 470.5 c 128,-1,26
 330 494 330 494 297 494 c 0,27,28
 259 494 259 494 236.5 462 c 128,-1,29
 214 430 214 430 214 369 c 0,30,31
 214 307 214 307 238.5 271 c 128,-1,32
 263 235 263 235 301 235 c 0,33,0
 333 235 333 235 348 260 c 128,-1,1
EndSplineSet
EndChar

StartChar: sterling
Encoding: 163 163 101
Width: 671
GlyphClass: 2
Flags: W
LayerCount: 2
Fore
SplineSet
19 159 m 1,0,-1
 50 159 l 2,1,2
 131 159 131 159 131 231 c 0,3,4
 131 257 131 257 127 290.5 c 128,-1,5
 123 324 123 324 122 334 c 1,6,-1
 19 334 l 1,7,-1
 19 435 l 1,8,-1
 100 435 l 1,9,-1
 95 532 l 2,10,11
 90 596 90 596 123 641.5 c 128,-1,12
 156 687 156 687 213.5 710 c 128,-1,13
 271 733 271 733 339 733 c 0,14,15
 430 733 430 733 497 691 c 128,-1,16
 564 649 564 649 599 567 c 1,17,-1
 431 519 l 1,18,19
 415 556 415 556 402.5 569.5 c 128,-1,20
 390 583 390 583 370 583 c 0,21,22
 347 583 347 583 334.5 567 c 128,-1,23
 322 551 322 551 322 523 c 0,24,25
 322 501 322 501 332 435 c 1,26,-1
 465 435 l 1,27,-1
 465 334 l 1,28,-1
 346 334 l 1,29,30
 347 299 347 299 345 278.5 c 128,-1,31
 343 258 343 258 336 237 c 0,32,33
 329 214 329 214 317.5 199.5 c 128,-1,34
 306 185 306 185 278 160 c 1,35,-1
 377 160 l 2,36,37
 421 160 421 160 440.5 176.5 c 128,-1,38
 460 193 460 193 476 238 c 1,39,-1
 639 206 l 1,40,41
 614 103 614 103 553.5 51.5 c 128,-1,42
 493 0 493 0 393 0 c 2,43,-1
 19 0 l 1,44,-1
 19 159 l 1,0,-1
EndSplineSet
EndChar

StartChar: currency
Encoding: 164 164 102
Width: 608
GlyphClass: 2
Flags: W
LayerCount: 2
Fore
SplineSet
181 155 m 0,0,1
 178 157 178 157 173 157 c 128,-1,2
 168 157 168 157 164 153 c 2,3,-1
 99 89 l 1,4,-1
 23 167 l 1,5,-1
 95 238 l 1,6,7
 76 269 76 269 67.5 298 c 128,-1,8
 59 327 59 327 59 363 c 0,9,10
 59 429 59 429 89 480 c 0,11,12
 92 486 92 486 92 488 c 0,13,14
 92 492 92 492 87 497 c 2,15,-1
 23 561 l 1,16,-1
 99 640 l 1,17,-1
 172 567 l 1,18,19
 235 605 235 605 297 605 c 0,20,21
 363 605 363 605 422 571 c 0,22,23
 429 568 429 568 433 572 c 2,24,-1
 490 630 l 1,25,-1
 566 552 l 1,26,-1
 503 490 l 1,27,28
 540 430 540 430 540 364 c 0,29,30
 540 292 540 292 505 241 c 0,31,32
 503 238 503 238 505 236 c 2,33,-1
 566 176 l 1,34,-1
 490 98 l 1,35,-1
 428 161 l 1,36,37
 366 123 366 123 302 123 c 0,38,39
 236 123 236 123 181 155 c 0,0,1
384.5 279.5 m 128,-1,41
 419 315 419 315 419 364 c 0,42,43
 419 395 419 395 403.5 423 c 128,-1,44
 388 451 388 451 360.5 467.5 c 128,-1,45
 333 484 333 484 299 484 c 0,46,47
 266 484 266 484 238.5 467.5 c 128,-1,48
 211 451 211 451 195 423 c 128,-1,49
 179 395 179 395 179 364 c 0,50,51
 179 332 179 332 195 304.5 c 128,-1,52
 211 277 211 277 238.5 260.5 c 128,-1,53
 266 244 266 244 299 244 c 0,54,40
 350 244 350 244 384.5 279.5 c 128,-1,41
EndSplineSet
EndChar

StartChar: yen
Encoding: 165 165 103
Width: 696
GlyphClass: 2
Flags: W
LayerCount: 2
Fore
SplineSet
485 357 m 1,0,-1
 607 357 l 1,1,-1
 607 258 l 1,2,-1
 461 258 l 1,3,-1
 461 191 l 1,4,-1
 607 191 l 1,5,-1
 607 93 l 1,6,-1
 461 93 l 1,7,-1
 461 0 l 1,8,-1
 240 0 l 1,9,-1
 240 93 l 1,10,-1
 94 93 l 1,11,-1
 94 191 l 1,12,-1
 240 191 l 1,13,-1
 240 258 l 1,14,-1
 94 258 l 1,15,-1
 94 357 l 1,16,-1
 206 357 l 1,17,-1
 -19 723 l 1,18,-1
 233 723 l 1,19,-1
 373 471 l 1,20,-1
 510 723 l 1,21,-1
 713 723 l 1,22,-1
 485 357 l 1,0,-1
EndSplineSet
EndChar

StartChar: brokenbar
Encoding: 166 166 104
Width: 268
GlyphClass: 2
Flags: W
LayerCount: 2
Fore
SplineSet
65 412 m 1,0,-1
 65 826 l 1,1,-1
 203 826 l 1,2,-1
 203 412 l 1,3,-1
 65 412 l 1,0,-1
65 -161 m 1,4,-1
 65 253 l 1,5,-1
 203 253 l 1,6,-1
 203 -161 l 1,7,-1
 65 -161 l 1,4,-1
EndSplineSet
EndChar

StartChar: section
Encoding: 167 167 105
Width: 527
GlyphClass: 2
Flags: W
LayerCount: 2
Fore
SplineSet
104 -48.5 m 128,-1,1
 40 -14 40 -14 17 34 c 1,2,-1
 133 90 l 1,3,4
 158 61 158 61 184 45 c 128,-1,5
 210 29 210 29 255 29 c 0,6,7
 288 29 288 29 307 38.5 c 128,-1,8
 326 48 326 48 326 68 c 0,9,10
 326 83 326 83 312.5 95 c 128,-1,11
 299 107 299 107 264 120 c 2,12,-1
 196 145 l 2,13,14
 104 179 104 179 65 217 c 128,-1,15
 26 255 26 255 26 317 c 0,16,17
 26 362 26 362 46.5 395.5 c 128,-1,18
 67 429 67 429 105 449 c 1,19,20
 69 473 69 473 52.5 501.5 c 128,-1,21
 36 530 36 530 36 566 c 0,22,23
 36 613 36 613 62 651 c 128,-1,24
 88 689 88 689 136.5 711 c 128,-1,25
 185 733 185 733 251 733 c 0,26,27
 331 733 331 733 392 698.5 c 128,-1,28
 453 664 453 664 476 616 c 1,29,-1
 360 561 l 1,30,31
 332 590 332 590 309.5 605.5 c 128,-1,32
 287 621 287 621 255 621 c 0,33,34
 233 621 233 621 219.5 611.5 c 128,-1,35
 206 602 206 602 206 585 c 0,36,37
 206 564 206 564 243 552 c 2,38,-1
 316 525 l 2,39,40
 408 491 408 491 447 453 c 128,-1,41
 486 415 486 415 486 353 c 0,42,43
 486 268 486 268 412 221 c 1,44,45
 457 196 457 196 476 166.5 c 128,-1,46
 495 137 495 137 495 95 c 0,47,48
 495 14 495 14 434.5 -34.5 c 128,-1,49
 374 -83 374 -83 260 -83 c 0,50,0
 168 -83 168 -83 104 -48.5 c 128,-1,1
321 284.5 m 128,-1,52
 333 296 333 296 333 316 c 0,53,54
 333 323 333 323 332 327 c 0,55,56
 326 355 326 355 264 378 c 2,57,-1
 228 392 l 1,58,59
 179 388 179 388 179 346 c 0,60,61
 179 329 179 329 192.5 318.5 c 128,-1,62
 206 308 206 308 248 292 c 2,63,-1
 289 276 l 1,64,51
 309 273 309 273 321 284.5 c 128,-1,52
EndSplineSet
EndChar

StartChar: dieresis
Encoding: 168 168 106
Width: 444
GlyphClass: 2
Flags: W
LayerCount: 2
Fore
SplineSet
183 584 m 1,0,-1
 17 584 l 1,1,-1
 17 723 l 1,2,-1
 183 723 l 1,3,-1
 183 584 l 1,0,-1
417 584 m 1,4,-1
 251 584 l 1,5,-1
 251 723 l 1,6,-1
 417 723 l 1,7,-1
 417 584 l 1,4,-1
EndSplineSet
EndChar

StartChar: copyright
Encoding: 169 169 107
Width: 833
GlyphClass: 2
Flags: W
LayerCount: 2
Fore
SplineSet
225 40 m 128,-1,1
 140 90 140 90 90 175 c 128,-1,2
 40 260 40 260 40 362 c 0,3,4
 40 462 40 462 90 547.5 c 128,-1,5
 140 633 140 633 225 683 c 128,-1,6
 310 733 310 733 411 733 c 128,-1,7
 512 733 512 733 597.5 683 c 128,-1,8
 683 633 683 633 733 547.5 c 128,-1,9
 783 462 783 462 783 362 c 0,10,11
 783 260 783 260 733 175 c 128,-1,12
 683 90 683 90 597.5 40 c 128,-1,13
 512 -10 512 -10 411 -10 c 128,-1,0
 310 -10 310 -10 225 40 c 128,-1,1
549.5 122.5 m 128,-1,15
 609 156 609 156 641.5 217.5 c 128,-1,16
 674 279 674 279 674 362 c 0,17,18
 674 444 674 444 641.5 506 c 128,-1,19
 609 568 609 568 549.5 602 c 128,-1,20
 490 636 490 636 411 636 c 0,21,22
 331 636 331 636 272 602 c 128,-1,23
 213 568 213 568 181 506 c 128,-1,24
 149 444 149 444 149 362 c 0,25,26
 149 279 149 279 181 217.5 c 128,-1,27
 213 156 213 156 272 122.5 c 128,-1,28
 331 89 331 89 411 89 c 0,29,14
 490 89 490 89 549.5 122.5 c 128,-1,15
505 547 m 128,-1,31
 544 525 544 525 567.5 491.5 c 128,-1,32
 591 458 591 458 597 423 c 1,33,-1
 466 416 l 1,34,35
 459 475 459 475 418 475 c 0,36,37
 359 475 359 475 359 364 c 0,38,39
 359 303 359 303 376 277 c 128,-1,40
 393 251 393 251 427 251 c 0,41,42
 456 251 456 251 471.5 266.5 c 128,-1,43
 487 282 487 282 504 315 c 1,44,-1
 596 297 l 1,45,46
 592 271 592 271 571 238 c 128,-1,47
 550 205 550 205 510.5 181 c 128,-1,48
 471 157 471 157 414 157 c 0,49,50
 355 157 355 157 308 183 c 128,-1,51
 261 209 261 209 234.5 255.5 c 128,-1,52
 208 302 208 302 208 362 c 0,53,54
 208 423 208 423 234.5 470 c 128,-1,55
 261 517 261 517 308 543 c 128,-1,56
 355 569 355 569 414 569 c 0,57,30
 466 569 466 569 505 547 c 128,-1,31
EndSplineSet
EndChar

StartChar: ordfeminine
Encoding: 170 170 108
Width: 408
GlyphClass: 2
Flags: W
LayerCount: 2
Fore
SplineSet
52.5 423.5 m 128,-1,1
 25 449 25 449 25 491 c 0,2,3
 25 541 25 541 73.5 573 c 128,-1,4
 122 605 122 605 202 605 c 2,5,-1
 226 605 l 1,6,-1
 226 625 l 2,7,8
 226 645 226 645 214.5 652.5 c 128,-1,9
 203 660 203 660 190 660 c 0,10,11
 152 660 152 660 138 623 c 1,12,-1
 33 643 l 1,13,14
 54 690 54 690 88.5 711.5 c 128,-1,15
 123 733 123 733 193 733 c 0,16,17
 275 732 275 732 308 707.5 c 128,-1,18
 341 683 341 683 341 633 c 2,19,-1
 341 501 l 2,20,21
 341 443 341 443 345 428 c 2,22,-1
 352 404 l 1,23,-1
 233 404 l 1,24,-1
 226 432 l 1,25,26
 196 413 196 413 176.5 405.5 c 128,-1,27
 157 398 157 398 131 398 c 0,28,0
 80 398 80 398 52.5 423.5 c 128,-1,1
216 482 m 0,29,30
 221 486 221 486 223.5 490 c 128,-1,31
 226 494 226 494 226 501 c 2,32,-1
 226 545 l 1,33,-1
 206 545 l 2,34,35
 179 545 179 545 161 532.5 c 128,-1,36
 143 520 143 520 143 499 c 0,37,38
 143 486 143 486 152.5 478 c 128,-1,39
 162 470 162 470 180 470 c 0,40,41
 202 470 202 470 216 482 c 0,29,30
EndSplineSet
EndChar

StartChar: guillemotleft
Encoding: 171 171 109
Width: 529
GlyphClass: 2
Flags: W
LayerCount: 2
Fore
SplineSet
261 59 m 1,0,-1
 161 59 l 1,1,-1
 54 251 l 1,2,-1
 160 451 l 1,3,-1
 261 451 l 1,4,-1
 197 251 l 1,5,-1
 261 59 l 1,0,-1
464 59 m 1,6,-1
 364 59 l 1,7,-1
 256 251 l 1,8,-1
 363 451 l 1,9,-1
 464 451 l 1,10,-1
 400 251 l 1,11,-1
 464 59 l 1,6,-1
EndSplineSet
EndChar

StartChar: logicalnot
Encoding: 172 172 110
Width: 608
GlyphClass: 2
Flags: W
LayerCount: 2
Fore
SplineSet
555 433 m 1,0,-1
 555 137 l 1,1,-1
 399 137 l 1,2,-1
 399 295 l 1,3,-1
 46 295 l 1,4,-1
 46 433 l 1,5,-1
 555 433 l 1,0,-1
EndSplineSet
EndChar

StartChar: uni00AD
Encoding: 173 173 111
Width: 400
GlyphClass: 2
Flags: W
LayerCount: 2
Fore
SplineSet
360 188 m 1,0,-1
 70 188 l 1,1,-1
 70 325 l 1,2,-1
 360 325 l 1,3,-1
 360 188 l 1,0,-1
EndSplineSet
EndChar

StartChar: registered
Encoding: 174 174 112
Width: 555
GlyphClass: 2
Flags: W
LayerCount: 2
Fore
SplineSet
155.5 299 m 128,-1,1
 102 330 102 330 71 383 c 128,-1,2
 40 436 40 436 40 500 c 128,-1,3
 40 564 40 564 71 617 c 128,-1,4
 102 670 102 670 155.5 701.5 c 128,-1,5
 209 733 209 733 273 733 c 0,6,7
 336 733 336 733 389.5 701.5 c 128,-1,8
 443 670 443 670 474 616.5 c 128,-1,9
 505 563 505 563 505 500 c 128,-1,10
 505 437 505 437 474 383.5 c 128,-1,11
 443 330 443 330 389.5 299 c 128,-1,12
 336 268 336 268 273 268 c 0,13,0
 209 268 209 268 155.5 299 c 128,-1,1
386.5 381.5 m 128,-1,15
 429 426 429 426 429 500 c 128,-1,16
 429 574 429 574 386.5 619 c 128,-1,17
 344 664 344 664 273 664 c 0,18,19
 201 664 201 664 158.5 619.5 c 128,-1,20
 116 575 116 575 116 500 c 128,-1,21
 116 425 116 425 158.5 381 c 128,-1,22
 201 337 201 337 273 337 c 0,23,14
 344 337 344 337 386.5 381.5 c 128,-1,15
175 614 m 1,24,-1
 287 614 l 2,25,26
 332 614 332 614 357 597.5 c 128,-1,27
 382 581 382 581 382 550 c 0,28,29
 382 529 382 529 369.5 513 c 128,-1,30
 357 497 357 497 337 488 c 1,31,-1
 383 384 l 1,32,-1
 306 384 l 1,33,-1
 274 480 l 1,34,-1
 245 480 l 1,35,-1
 245 384 l 1,36,-1
 175 384 l 1,37,-1
 175 614 l 1,24,-1
286 526 m 2,38,39
 296 526 296 526 302.5 532 c 128,-1,40
 309 538 309 538 309 547 c 0,41,42
 309 557 309 557 301.5 562.5 c 128,-1,43
 294 568 294 568 283 568 c 2,44,-1
 245 568 l 1,45,-1
 245 526 l 1,46,-1
 286 526 l 2,38,39
EndSplineSet
EndChar

StartChar: macron
Encoding: 175 175 113
Width: 444
GlyphClass: 2
Flags: W
LayerCount: 2
Fore
SplineSet
417 604 m 1,0,-1
 17 604 l 1,1,-1
 17 723 l 1,2,-1
 417 723 l 1,3,-1
 417 604 l 1,0,-1
EndSplineSet
EndChar

StartChar: degree
Encoding: 176 176 114
Width: 476
GlyphClass: 2
Flags: W
LayerCount: 2
Fore
SplineSet
387 566.5 m 128,-1,1
 364 526 364 526 323.5 503.5 c 128,-1,2
 283 481 283 481 233 481 c 128,-1,3
 183 481 183 481 142.5 503.5 c 128,-1,4
 102 526 102 526 79 566.5 c 128,-1,5
 56 607 56 607 56 658 c 128,-1,6
 56 709 56 709 79 749.5 c 128,-1,7
 102 790 102 790 142.5 813 c 128,-1,8
 183 836 183 836 233 836 c 128,-1,9
 283 836 283 836 323.5 813 c 128,-1,10
 364 790 364 790 387 749.5 c 128,-1,11
 410 709 410 709 410 658 c 128,-1,0
 410 607 410 607 387 566.5 c 128,-1,1
282 709 m 128,-1,13
 263 729 263 729 231 729 c 0,14,15
 200 729 200 729 181 709.5 c 128,-1,16
 162 690 162 690 162 659 c 0,17,18
 162 625 162 625 181 604.5 c 128,-1,19
 200 584 200 584 232 584 c 0,20,21
 263 584 263 584 282 604 c 128,-1,22
 301 624 301 624 301 657 c 0,23,12
 301 689 301 689 282 709 c 128,-1,13
EndSplineSet
EndChar

StartChar: plusminus
Encoding: 177 177 115
Width: 608
GlyphClass: 2
Flags: W
LayerCount: 2
Fore
SplineSet
555 526 m 1,0,-1
 555 388 l 1,1,-1
 370 388 l 1,2,-1
 370 203 l 1,3,-1
 232 203 l 1,4,-1
 232 388 l 1,5,-1
 46 388 l 1,6,-1
 46 526 l 1,7,-1
 232 526 l 1,8,-1
 232 712 l 1,9,-1
 370 712 l 1,10,-1
 370 526 l 1,11,-1
 555 526 l 1,0,-1
46 152 m 1,12,-1
 555 152 l 1,13,-1
 555 15 l 1,14,-1
 46 15 l 1,15,-1
 46 152 l 1,12,-1
EndSplineSet
EndChar

StartChar: uni00B2
Encoding: 178 178 116
Width: 392
GlyphClass: 2
Flags: W
LayerCount: 2
Fore
SplineSet
9 470 m 1,0,-1
 149 585 l 2,1,2
 193 621 193 621 212.5 640 c 128,-1,3
 232 659 232 659 238.5 671.5 c 128,-1,4
 245 684 245 684 245 699 c 0,5,6
 245 720 245 720 230.5 733 c 128,-1,7
 216 746 216 746 192 746 c 0,8,9
 165 746 165 746 144.5 730 c 128,-1,10
 124 714 124 714 118 678 c 1,11,-1
 3 678 l 1,12,13
 3 753 3 753 51.5 799 c 128,-1,14
 100 845 100 845 194 845 c 0,15,16
 277 845 277 845 325.5 805.5 c 128,-1,17
 374 766 374 766 374 700 c 0,18,19
 374 666 374 666 358 641 c 128,-1,20
 342 616 342 616 299 576 c 2,21,-1
 199 485 l 1,22,-1
 378 485 l 1,23,-1
 378 384 l 1,24,-1
 9 384 l 1,25,-1
 9 470 l 1,0,-1
EndSplineSet
EndChar

StartChar: uni00B3
Encoding: 179 179 117
Width: 407
GlyphClass: 2
Flags: W
LayerCount: 2
Fore
SplineSet
71 809.5 m 128,-1,1
 130 845 130 845 221 845 c 0,2,3
 273 845 273 845 315.5 830 c 128,-1,4
 358 815 358 815 383 787.5 c 128,-1,5
 408 760 408 760 408 724 c 0,6,7
 408 656 408 656 326 628 c 1,8,9
 364 618 364 618 393 590.5 c 128,-1,10
 422 563 422 563 422 519 c 0,11,12
 422 474 422 474 391.5 442 c 128,-1,13
 361 410 361 410 315 394 c 128,-1,14
 269 378 269 378 222 378 c 0,15,16
 121 378 121 378 66.5 412.5 c 128,-1,17
 12 447 12 447 12 534 c 1,18,-1
 128 534 l 1,19,20
 133 501 133 501 157.5 487 c 128,-1,21
 182 473 182 473 211 473 c 0,22,23
 244 473 244 473 265 486.5 c 128,-1,24
 286 500 286 500 286 519 c 0,25,26
 286 539 286 539 268.5 553 c 128,-1,27
 251 567 251 567 223 568 c 2,28,-1
 161 569 l 1,29,-1
 161 663 l 1,30,-1
 215 666 l 2,31,32
 244 667 244 667 260.5 680.5 c 128,-1,33
 277 694 277 694 277 713 c 0,34,35
 277 730 277 730 258 741.5 c 128,-1,36
 239 753 239 753 217 753 c 0,37,38
 180 753 180 753 155.5 741 c 128,-1,39
 131 729 131 729 127 692 c 1,40,-1
 12 692 l 1,41,0
 12 774 12 774 71 809.5 c 128,-1,1
EndSplineSet
EndChar

StartChar: acute
Encoding: 180 180 118
Width: 335
GlyphClass: 2
Flags: W
LayerCount: 2
Fore
SplineSet
316 617 m 1,0,-1
 39 551 l 1,1,-1
 13 628 l 1,2,-1
 275 735 l 1,3,-1
 316 617 l 1,0,-1
EndSplineSet
EndChar

StartChar: paragraph
Encoding: 182 182 119
Width: 640
GlyphClass: 2
Flags: W
LayerCount: 2
Fore
SplineSet
520 617 m 1,0,-1
 520 -83 l 1,1,-1
 405 -83 l 1,2,-1
 405 617 l 1,3,-1
 340 617 l 1,4,-1
 340 -83 l 1,5,-1
 225 -83 l 1,6,-1
 225 300 l 1,7,8
 139 310 139 310 81.5 362.5 c 128,-1,9
 24 415 24 415 24 512 c 0,10,11
 24 573 24 573 52 620.5 c 128,-1,12
 80 668 80 668 133 695.5 c 128,-1,13
 186 723 186 723 260 723 c 2,14,-1
 584 723 l 1,15,-1
 584 617 l 1,16,-1
 520 617 l 1,0,-1
EndSplineSet
EndChar

StartChar: periodcentered
Encoding: 183 183 120
Width: 301
GlyphClass: 2
Flags: W
LayerCount: 2
Fore
SplineSet
234 277 m 1,0,-1
 53 277 l 1,1,-1
 53 451 l 1,2,-1
 234 451 l 1,3,-1
 234 277 l 1,0,-1
EndSplineSet
EndChar

StartChar: cedilla
Encoding: 184 184 121
Width: 303
GlyphClass: 2
Flags: W
LayerCount: 2
Fore
SplineSet
239 -195.5 m 128,-1,1
 201 -219 201 -219 147 -219 c 0,2,3
 63 -219 63 -219 14 -190 c 1,4,-1
 38 -131 l 1,5,6
 86 -157 86 -157 123 -157 c 0,7,8
 143 -157 143 -157 156 -150 c 128,-1,9
 169 -143 169 -143 169 -131 c 0,10,11
 169 -112 169 -112 148.5 -102.5 c 128,-1,12
 128 -93 128 -93 80 -93 c 0,13,14
 72 -93 72 -93 69.5 -91 c 128,-1,15
 67 -89 67 -89 70 -81 c 2,16,-1
 107 5 l 1,17,-1
 186 5 l 1,18,-1
 165 -52 l 1,19,20
 221 -52 221 -52 249 -77 c 128,-1,21
 277 -102 277 -102 277 -134 c 0,22,0
 277 -172 277 -172 239 -195.5 c 128,-1,1
EndSplineSet
EndChar

StartChar: uni00B9
Encoding: 185 185 122
Width: 309
GlyphClass: 2
Flags: W
LayerCount: 2
Fore
SplineSet
65 701 m 1,0,-1
 -10 684 l 1,1,-1
 -10 766 l 1,2,-1
 128 835 l 1,3,-1
 188 835 l 1,4,-1
 188 380 l 1,5,-1
 65 380 l 1,6,-1
 65 701 l 1,0,-1
EndSplineSet
EndChar

StartChar: ordmasculine
Encoding: 186 186 123
Width: 389
GlyphClass: 2
Flags: W
LayerCount: 2
Fore
SplineSet
283 711.5 m 128,-1,1
 322 690 322 690 343.5 651.5 c 128,-1,2
 365 613 365 613 365 564 c 0,3,4
 365 516 365 516 343 478 c 128,-1,5
 321 440 321 440 282 419 c 128,-1,6
 243 398 243 398 194 398 c 0,7,8
 119 398 119 398 71.5 444.5 c 128,-1,9
 24 491 24 491 24 564 c 0,10,11
 24 613 24 613 46.5 651.5 c 128,-1,12
 69 690 69 690 107.5 711.5 c 128,-1,13
 146 733 146 733 194 733 c 0,14,0
 244 733 244 733 283 711.5 c 128,-1,1
158.5 635.5 m 128,-1,16
 147 614 147 614 147 566 c 0,17,18
 147 519 147 519 158.5 497.5 c 128,-1,19
 170 476 170 476 194 476 c 0,20,21
 219 476 219 476 230.5 497.5 c 128,-1,22
 242 519 242 519 242 566 c 0,23,24
 242 614 242 614 230.5 635.5 c 128,-1,25
 219 657 219 657 194 657 c 0,26,15
 170 657 170 657 158.5 635.5 c 128,-1,16
EndSplineSet
EndChar

StartChar: guillemotright
Encoding: 187 187 124
Width: 529
GlyphClass: 2
Flags: W
LayerCount: 2
Fore
SplineSet
56 451 m 1,0,-1
 157 451 l 1,1,-1
 263 251 l 1,2,-1
 156 59 l 1,3,-1
 56 59 l 1,4,-1
 120 251 l 1,5,-1
 56 451 l 1,0,-1
258 451 m 1,6,-1
 360 451 l 1,7,-1
 466 251 l 1,8,-1
 359 59 l 1,9,-1
 258 59 l 1,10,-1
 323 251 l 1,11,-1
 258 451 l 1,6,-1
EndSplineSet
EndChar

StartChar: onequarter
Encoding: 188 188 125
Width: 988
GlyphClass: 2
Flags: W
LayerCount: 2
Fore
SplineSet
65 597 m 1,0,-1
 -10 580 l 1,1,-1
 -10 662 l 1,2,-1
 128 731 l 1,3,-1
 188 731 l 1,4,-1
 188 276 l 1,5,-1
 65 276 l 1,6,-1
 65 597 l 1,0,-1
239 -4 m 1,7,-1
 133 -2 l 1,8,-1
 620 731 l 1,9,-1
 725 731 l 1,10,-1
 239 -4 l 1,7,-1
889 455 m 1,11,-1
 889 190 l 1,12,-1
 955 190 l 1,13,-1
 955 87 l 1,14,-1
 889 87 l 1,15,-1
 889 0 l 1,16,-1
 766 0 l 1,17,-1
 767 87 l 1,18,-1
 568 87 l 1,19,-1
 568 186 l 1,20,-1
 768 455 l 1,21,-1
 889 455 l 1,11,-1
768 190 m 1,22,-1
 768 288 l 1,23,-1
 695 190 l 1,24,-1
 768 190 l 1,22,-1
EndSplineSet
EndChar

StartChar: onehalf
Encoding: 189 189 126
Width: 957
GlyphClass: 2
Flags: W
LayerCount: 2
Fore
SplineSet
65 597 m 1,0,-1
 -10 580 l 1,1,-1
 -10 662 l 1,2,-1
 128 731 l 1,3,-1
 188 731 l 1,4,-1
 188 276 l 1,5,-1
 65 276 l 1,6,-1
 65 597 l 1,0,-1
239 -4 m 1,7,-1
 133 -2 l 1,8,-1
 620 731 l 1,9,-1
 725 731 l 1,10,-1
 239 -4 l 1,7,-1
574 86 m 1,11,-1
 714 201 l 2,12,13
 758 238 758 238 777.5 256.5 c 128,-1,14
 797 275 797 275 803.5 287 c 128,-1,15
 810 299 810 299 810 315 c 0,16,17
 810 336 810 336 795.5 349 c 128,-1,18
 781 362 781 362 757 362 c 0,19,20
 729 362 729 362 709.5 346 c 128,-1,21
 690 330 690 330 683 294 c 1,22,-1
 568 294 l 1,23,24
 568 343 568 343 589 380.5 c 128,-1,25
 610 418 610 418 653.5 439.5 c 128,-1,26
 697 461 697 461 759 461 c 0,27,28
 815 461 815 461 855 443 c 128,-1,29
 895 425 895 425 917 392 c 128,-1,30
 939 359 939 359 939 316 c 0,31,32
 939 282 939 282 923 256.5 c 128,-1,33
 907 231 907 231 864 192 c 2,34,-1
 764 101 l 1,35,-1
 943 101 l 1,36,-1
 943 0 l 1,37,-1
 574 0 l 1,38,-1
 574 86 l 1,11,-1
EndSplineSet
EndChar

StartChar: threequarters
Encoding: 190 190 127
Width: 1086
GlyphClass: 2
Flags: W
LayerCount: 2
Fore
SplineSet
71 704.5 m 128,-1,1
 130 740 130 740 221 740 c 0,2,3
 273 740 273 740 315.5 725 c 128,-1,4
 358 710 358 710 383 682.5 c 128,-1,5
 408 655 408 655 408 619 c 0,6,7
 408 551 408 551 326 523 c 1,8,9
 364 513 364 513 393 485.5 c 128,-1,10
 422 458 422 458 422 414 c 0,11,12
 422 369 422 369 391.5 337 c 128,-1,13
 361 305 361 305 315 289 c 128,-1,14
 269 273 269 273 222 273 c 0,15,16
 121 273 121 273 66.5 307.5 c 128,-1,17
 12 342 12 342 12 429 c 1,18,-1
 128 429 l 1,19,20
 133 396 133 396 157.5 382 c 128,-1,21
 182 368 182 368 211 368 c 0,22,23
 244 368 244 368 265 381.5 c 128,-1,24
 286 395 286 395 286 414 c 0,25,26
 286 434 286 434 268.5 448 c 128,-1,27
 251 462 251 462 223 463 c 2,28,-1
 161 464 l 1,29,-1
 161 558 l 1,30,-1
 215 561 l 2,31,32
 244 562 244 562 260.5 575.5 c 128,-1,33
 277 589 277 589 277 608 c 0,34,35
 277 625 277 625 258 636.5 c 128,-1,36
 239 648 239 648 217 648 c 0,37,38
 180 648 180 648 155.5 636 c 128,-1,39
 131 624 131 624 127 587 c 1,40,-1
 12 587 l 1,41,0
 12 669 12 669 71 704.5 c 128,-1,1
337 -4 m 1,42,-1
 231 -2 l 1,43,-1
 718 731 l 1,44,-1
 823 731 l 1,45,-1
 337 -4 l 1,42,-1
987 455 m 1,46,-1
 987 190 l 1,47,-1
 1053 190 l 1,48,-1
 1053 87 l 1,49,-1
 987 87 l 1,50,-1
 987 0 l 1,51,-1
 864 0 l 1,52,-1
 865 87 l 1,53,-1
 666 87 l 1,54,-1
 666 186 l 1,55,-1
 866 455 l 1,56,-1
 987 455 l 1,46,-1
866 190 m 1,57,-1
 866 288 l 1,58,-1
 793 190 l 1,59,-1
 866 190 l 1,57,-1
EndSplineSet
EndChar

StartChar: questiondown
Encoding: 191 191 128
Width: 560
GlyphClass: 2
Flags: W
LayerCount: 2
Fore
SplineSet
192 517 m 1,0,-1
 397 517 l 1,1,-1
 397 325 l 1,2,-1
 192 325 l 1,3,-1
 192 517 l 1,0,-1
452.5 -124.5 m 128,-1,5
 384 -171 384 -171 283 -171 c 0,6,7
 201 -171 201 -171 144 -148 c 128,-1,8
 87 -125 87 -125 59 -87 c 128,-1,9
 31 -49 31 -49 31 -3 c 0,10,11
 31 37 31 37 46 66.5 c 128,-1,12
 61 96 61 96 82 115 c 128,-1,13
 103 134 103 134 137 158 c 0,14,15
 178 187 178 187 197.5 209 c 128,-1,16
 217 231 217 231 217 264 c 1,17,-1
 370 264 l 1,18,19
 370 207 370 207 345.5 169.5 c 128,-1,20
 321 132 321 132 278 93 c 0,21,22
 249 66 249 66 235 48 c 128,-1,23
 221 30 221 30 221 8 c 0,24,25
 221 -12 221 -12 240 -25.5 c 128,-1,26
 259 -39 259 -39 285 -39 c 0,27,28
 318 -39 318 -39 346.5 -16.5 c 128,-1,29
 375 6 375 6 391 46 c 1,30,-1
 553 12 l 1,31,4
 521 -78 521 -78 452.5 -124.5 c 128,-1,5
EndSplineSet
EndChar

StartChar: Agrave
Encoding: 192 192 129
Width: 724
GlyphClass: 2
Flags: W
AnchorPoint: "Anchor-5" 0 0 basechar 0
AnchorPoint: "Anchor-4" 0 0 basechar 0
AnchorPoint: "Anchor-3" 377 723 basechar 0
AnchorPoint: "Anchor-2" 720 9 basechar 0
LayerCount: 2
Fore
SplineSet
263 723 m 1,0,-1
 462 723 l 1,1,-1
 718 0 l 1,2,-1
 526 0 l 1,3,-1
 478 140 l 1,4,-1
 250 140 l 1,5,-1
 201 0 l 1,6,-1
 7 0 l 1,7,-1
 263 723 l 1,0,-1
434 306 m 1,8,-1
 363 537 l 1,9,-1
 291 306 l 1,10,-1
 434 306 l 1,8,-1
527 834 m 1,11,-1
 501 757 l 1,12,-1
 224 823 l 1,13,-1
 266 941 l 1,14,-1
 527 834 l 1,11,-1
EndSplineSet
EndChar

StartChar: Aacute
Encoding: 193 193 130
Width: 724
GlyphClass: 2
Flags: W
AnchorPoint: "Anchor-5" 0 0 basechar 0
AnchorPoint: "Anchor-4" 0 0 basechar 0
AnchorPoint: "Anchor-3" 377 723 basechar 0
AnchorPoint: "Anchor-2" 720 9 basechar 0
LayerCount: 2
Fore
SplineSet
263 723 m 1,0,-1
 462 723 l 1,1,-1
 718 0 l 1,2,-1
 526 0 l 1,3,-1
 478 140 l 1,4,-1
 250 140 l 1,5,-1
 201 0 l 1,6,-1
 7 0 l 1,7,-1
 263 723 l 1,0,-1
434 306 m 1,8,-1
 363 537 l 1,9,-1
 291 306 l 1,10,-1
 434 306 l 1,8,-1
530 823 m 1,11,-1
 253 757 l 1,12,-1
 227 834 l 1,13,-1
 489 941 l 1,14,-1
 530 823 l 1,11,-1
EndSplineSet
EndChar

StartChar: Acircumflex
Encoding: 194 194 131
Width: 724
GlyphClass: 2
Flags: W
AnchorPoint: "Anchor-5" 0 0 basechar 0
AnchorPoint: "Anchor-4" 0 0 basechar 0
AnchorPoint: "Anchor-3" 377 723 basechar 0
AnchorPoint: "Anchor-2" 720 9 basechar 0
LayerCount: 2
Fore
SplineSet
263 723 m 1,0,-1
 462 723 l 1,1,-1
 718 0 l 1,2,-1
 526 0 l 1,3,-1
 478 140 l 1,4,-1
 250 140 l 1,5,-1
 201 0 l 1,6,-1
 7 0 l 1,7,-1
 263 723 l 1,0,-1
434 306 m 1,8,-1
 363 537 l 1,9,-1
 291 306 l 1,10,-1
 434 306 l 1,8,-1
376 868 m 1,11,-1
 305 786 l 1,12,-1
 173 786 l 1,13,-1
 311 939 l 1,14,-1
 443 939 l 1,15,-1
 577 786 l 1,16,-1
 438 786 l 1,17,-1
 376 868 l 1,11,-1
EndSplineSet
EndChar

StartChar: Atilde
Encoding: 195 195 132
Width: 724
GlyphClass: 2
Flags: W
AnchorPoint: "Anchor-5" 0 0 basechar 0
AnchorPoint: "Anchor-4" 0 0 basechar 0
AnchorPoint: "Anchor-3" 377 723 basechar 0
AnchorPoint: "Anchor-2" 720 9 basechar 0
LayerCount: 2
Fore
SplineSet
263 723 m 1,0,-1
 462 723 l 1,1,-1
 718 0 l 1,2,-1
 526 0 l 1,3,-1
 478 140 l 1,4,-1
 250 140 l 1,5,-1
 201 0 l 1,6,-1
 7 0 l 1,7,-1
 263 723 l 1,0,-1
434 306 m 1,8,-1
 363 537 l 1,9,-1
 291 306 l 1,10,-1
 434 306 l 1,8,-1
513.5 808.5 m 128,-1,12
 487 800 487 800 459 800 c 0,13,14
 440 800 440 800 419 804.5 c 128,-1,15
 398 809 398 809 379 815 c 0,16,17
 332 830 332 830 301 830 c 0,18,19
 281 830 281 830 266 825 c 128,-1,20
 251 820 251 820 232 806 c 0,21,22
 224 801 224 801 220 801 c 0,23,24
 213 801 213 801 209 813 c 2,25,-1
 193 866 l 2,26,27
 192 868 192 868 191 871 c 128,-1,28
 190 874 190 874 190 878 c 0,29,30
 190 885 190 885 201 896 c 0,31,32
 221 915 221 915 242.5 925.5 c 128,-1,33
 264 936 264 936 296 936 c 0,34,35
 315 936 315 936 333.5 932 c 128,-1,36
 352 928 352 928 368 923.5 c 128,-1,37
 384 919 384 919 389 918 c 0,38,39
 436 903 436 903 458 903 c 0,40,41
 495 903 495 903 533 930 c 0,42,43
 538 934 538 934 545 934 c 0,44,45
 554 934 554 934 557 922 c 2,46,-1
 570 858 l 2,47,48
 571 855 571 855 571 851 c 0,49,50
 571 840 571 840 557 829 c 0,51,11
 540 817 540 817 513.5 808.5 c 128,-1,12
EndSplineSet
EndChar

StartChar: Adieresis
Encoding: 196 196 133
Width: 724
GlyphClass: 2
Flags: W
AnchorPoint: "Anchor-5" 0 0 basechar 0
AnchorPoint: "Anchor-4" 0 0 basechar 0
AnchorPoint: "Anchor-3" 377 723 basechar 0
AnchorPoint: "Anchor-2" 720 9 basechar 0
LayerCount: 2
Fore
SplineSet
263 723 m 1,0,-1
 462 723 l 1,1,-1
 718 0 l 1,2,-1
 526 0 l 1,3,-1
 478 140 l 1,4,-1
 250 140 l 1,5,-1
 201 0 l 1,6,-1
 7 0 l 1,7,-1
 263 723 l 1,0,-1
434 306 m 1,8,-1
 363 537 l 1,9,-1
 291 306 l 1,10,-1
 434 306 l 1,8,-1
343 790 m 1,11,-1
 177 790 l 1,12,-1
 177 929 l 1,13,-1
 343 929 l 1,14,-1
 343 790 l 1,11,-1
577 790 m 1,15,-1
 411 790 l 1,16,-1
 411 929 l 1,17,-1
 577 929 l 1,18,-1
 577 790 l 1,15,-1
EndSplineSet
EndChar

StartChar: Aring
Encoding: 197 197 134
Width: 724
GlyphClass: 2
Flags: W
AnchorPoint: "Anchor-5" 0 0 basechar 0
AnchorPoint: "Anchor-4" 0 0 basechar 0
AnchorPoint: "Anchor-3" 377 723 basechar 0
AnchorPoint: "Anchor-2" 720 9 basechar 0
LayerCount: 2
Fore
SplineSet
263 723 m 1,0,-1
 462 723 l 1,1,-1
 718 0 l 1,2,-1
 526 0 l 1,3,-1
 478 140 l 1,4,-1
 250 140 l 1,5,-1
 201 0 l 1,6,-1
 7 0 l 1,7,-1
 263 723 l 1,0,-1
434 306 m 1,8,-1
 363 537 l 1,9,-1
 291 306 l 1,10,-1
 434 306 l 1,8,-1
457.5 798 m 128,-1,12
 424 765 424 765 377 765 c 0,13,14
 329 765 329 765 296 798.5 c 128,-1,15
 263 832 263 832 263 881 c 0,16,17
 263 927 263 927 296.5 959 c 128,-1,18
 330 991 330 991 377 991 c 128,-1,19
 424 991 424 991 457.5 958 c 128,-1,20
 491 925 491 925 491 879 c 0,21,11
 491 831 491 831 457.5 798 c 128,-1,12
408.5 911 m 128,-1,23
 395 924 395 924 376 924 c 0,24,25
 356 924 356 924 342 910.5 c 128,-1,26
 328 897 328 897 328 878 c 128,-1,27
 328 859 328 859 342.5 844.5 c 128,-1,28
 357 830 357 830 376 830 c 128,-1,29
 395 830 395 830 408.5 844.5 c 128,-1,30
 422 859 422 859 422 878 c 0,31,22
 422 898 422 898 408.5 911 c 128,-1,23
EndSplineSet
EndChar

StartChar: AE
Encoding: 198 198 135
Width: 1112
GlyphClass: 2
Flags: W
AnchorPoint: "Anchor-5" 0 0 basechar 0
AnchorPoint: "Anchor-4" 0 0 basechar 0
AnchorPoint: "Anchor-3" 698 723 basechar 0
AnchorPoint: "Anchor-2" 0 0 basechar 0
LayerCount: 2
Fore
SplineSet
1062 0 m 1,0,-1
 490 0 l 1,1,-1
 490 140 l 1,2,-1
 270 140 l 1,3,-1
 201 0 l 1,4,-1
 7 0 l 1,5,-1
 382 723 l 1,6,-1
 1053 723 l 1,7,-1
 1052 564 l 1,8,-1
 712 564 l 1,9,-1
 712 442 l 1,10,-1
 925 442 l 1,11,-1
 925 285 l 1,12,-1
 712 285 l 1,13,-1
 712 160 l 1,14,-1
 1062 160 l 1,15,-1
 1062 0 l 1,0,-1
490 601 m 1,16,-1
 341 306 l 1,17,-1
 490 306 l 1,18,-1
 490 601 l 1,16,-1
EndSplineSet
EndChar

StartChar: Ccedilla
Encoding: 199 199 136
Width: 732
GlyphClass: 2
Flags: W
AnchorPoint: "Anchor-5" 0 0 basechar 0
AnchorPoint: "Anchor-4" 382 0 basechar 0
AnchorPoint: "Anchor-3" 382 723 basechar 0
AnchorPoint: "Anchor-2" 0 0 basechar 0
LayerCount: 2
Fore
SplineSet
535.5 699.5 m 128,-1,1
 604 666 604 666 646 605.5 c 128,-1,2
 688 545 688 545 696 468 c 1,3,-1
 493 468 l 1,4,5
 485 519 485 519 454.5 548 c 128,-1,6
 424 577 424 577 375 577 c 0,7,8
 316 577 316 577 282.5 529 c 128,-1,9
 249 481 249 481 249 368 c 0,10,11
 249 253 249 253 283 199.5 c 128,-1,12
 317 146 317 146 375 146 c 0,13,14
 423 146 423 146 453.5 181 c 128,-1,15
 484 216 484 216 493 270 c 1,16,-1
 696 270 l 1,17,18
 679 140 679 140 610 65 c 128,-1,19
 541 -10 541 -10 382 -10 c 0,20,21
 279 -10 279 -10 200.5 39 c 128,-1,22
 122 88 122 88 79 175 c 128,-1,23
 36 262 36 262 36 371 c 128,-1,24
 36 480 36 480 78.5 562 c 128,-1,25
 121 644 121 644 199 688.5 c 128,-1,26
 277 733 277 733 382 733 c 0,27,0
 467 733 467 733 535.5 699.5 c 128,-1,1
479 -195.5 m 128,-1,29
 441 -219 441 -219 387 -219 c 0,30,31
 303 -219 303 -219 254 -190 c 1,32,-1
 278 -131 l 1,33,34
 326 -157 326 -157 363 -157 c 0,35,36
 383 -157 383 -157 396 -150 c 128,-1,37
 409 -143 409 -143 409 -131 c 0,38,39
 409 -112 409 -112 388.5 -102.5 c 128,-1,40
 368 -93 368 -93 320 -93 c 0,41,42
 312 -93 312 -93 309.5 -91 c 128,-1,43
 307 -89 307 -89 310 -81 c 2,44,-1
 347 5 l 1,45,-1
 426 5 l 1,46,-1
 405 -52 l 1,47,48
 461 -52 461 -52 489 -77 c 128,-1,49
 517 -102 517 -102 517 -134 c 0,50,28
 517 -172 517 -172 479 -195.5 c 128,-1,29
EndSplineSet
EndChar

StartChar: Egrave
Encoding: 200 200 137
Width: 650
GlyphClass: 2
Flags: W
AnchorPoint: "Anchor-5" 0 0 basechar 0
AnchorPoint: "Anchor-4" 332 0 basechar 0
AnchorPoint: "Anchor-3" 332 723 basechar 0
AnchorPoint: "Anchor-2" 599 10 basechar 0
LayerCount: 2
Fore
SplineSet
65 723 m 1,0,-1
 599 723 l 1,1,-1
 598 562 l 1,2,-1
 261 562 l 1,3,-1
 261 442 l 1,4,-1
 543 442 l 1,5,-1
 543 285 l 1,6,-1
 260 285 l 1,7,-1
 260 162 l 1,8,-1
 600 162 l 1,9,-1
 600 0 l 1,10,-1
 65 0 l 1,11,-1
 65 723 l 1,0,-1
482 834 m 1,12,-1
 456 757 l 1,13,-1
 179 823 l 1,14,-1
 221 941 l 1,15,-1
 482 834 l 1,12,-1
EndSplineSet
EndChar

StartChar: Eacute
Encoding: 201 201 138
Width: 650
GlyphClass: 2
Flags: W
AnchorPoint: "Anchor-5" 0 0 basechar 0
AnchorPoint: "Anchor-4" 332 0 basechar 0
AnchorPoint: "Anchor-3" 332 723 basechar 0
AnchorPoint: "Anchor-2" 599 10 basechar 0
LayerCount: 2
Fore
SplineSet
65 723 m 1,0,-1
 599 723 l 1,1,-1
 598 562 l 1,2,-1
 261 562 l 1,3,-1
 261 442 l 1,4,-1
 543 442 l 1,5,-1
 543 285 l 1,6,-1
 260 285 l 1,7,-1
 260 162 l 1,8,-1
 600 162 l 1,9,-1
 600 0 l 1,10,-1
 65 0 l 1,11,-1
 65 723 l 1,0,-1
485 823 m 1,12,-1
 208 757 l 1,13,-1
 182 834 l 1,14,-1
 444 941 l 1,15,-1
 485 823 l 1,12,-1
EndSplineSet
EndChar

StartChar: Ecircumflex
Encoding: 202 202 139
Width: 650
GlyphClass: 2
Flags: W
AnchorPoint: "Anchor-5" 0 0 basechar 0
AnchorPoint: "Anchor-4" 332 0 basechar 0
AnchorPoint: "Anchor-3" 332 723 basechar 0
AnchorPoint: "Anchor-2" 599 10 basechar 0
LayerCount: 2
Fore
SplineSet
65 723 m 1,0,-1
 599 723 l 1,1,-1
 598 562 l 1,2,-1
 261 562 l 1,3,-1
 261 442 l 1,4,-1
 543 442 l 1,5,-1
 543 285 l 1,6,-1
 260 285 l 1,7,-1
 260 162 l 1,8,-1
 600 162 l 1,9,-1
 600 0 l 1,10,-1
 65 0 l 1,11,-1
 65 723 l 1,0,-1
331 868 m 1,12,-1
 260 786 l 1,13,-1
 128 786 l 1,14,-1
 266 939 l 1,15,-1
 398 939 l 1,16,-1
 532 786 l 1,17,-1
 393 786 l 1,18,-1
 331 868 l 1,12,-1
EndSplineSet
EndChar

StartChar: Edieresis
Encoding: 203 203 140
Width: 650
GlyphClass: 2
Flags: W
AnchorPoint: "Anchor-5" 0 0 basechar 0
AnchorPoint: "Anchor-4" 332 0 basechar 0
AnchorPoint: "Anchor-3" 332 723 basechar 0
AnchorPoint: "Anchor-2" 599 10 basechar 0
LayerCount: 2
Fore
SplineSet
65 723 m 1,0,-1
 599 723 l 1,1,-1
 598 562 l 1,2,-1
 261 562 l 1,3,-1
 261 442 l 1,4,-1
 543 442 l 1,5,-1
 543 285 l 1,6,-1
 260 285 l 1,7,-1
 260 162 l 1,8,-1
 600 162 l 1,9,-1
 600 0 l 1,10,-1
 65 0 l 1,11,-1
 65 723 l 1,0,-1
298 790 m 1,12,-1
 132 790 l 1,13,-1
 132 929 l 1,14,-1
 298 929 l 1,15,-1
 298 790 l 1,12,-1
532 790 m 1,16,-1
 366 790 l 1,17,-1
 366 929 l 1,18,-1
 532 929 l 1,19,-1
 532 790 l 1,16,-1
EndSplineSet
EndChar

StartChar: Igrave
Encoding: 204 204 141
Width: 325
GlyphClass: 2
Flags: W
AnchorPoint: "Anchor-5" 0 0 basechar 0
AnchorPoint: "Anchor-4" 173 0 basechar 0
AnchorPoint: "Anchor-3" 163 723 basechar 0
AnchorPoint: "Anchor-2" 236 3 basechar 0
LayerCount: 2
Fore
SplineSet
260 723 m 1,0,-1
 260 0 l 1,1,-1
 65 0 l 1,2,-1
 65 723 l 1,3,-1
 260 723 l 1,0,-1
313 834 m 1,4,-1
 287 757 l 1,5,-1
 10 823 l 1,6,-1
 52 941 l 1,7,-1
 313 834 l 1,4,-1
EndSplineSet
EndChar

StartChar: Iacute
Encoding: 205 205 142
Width: 325
GlyphClass: 2
Flags: W
AnchorPoint: "Anchor-5" 0 0 basechar 0
AnchorPoint: "Anchor-4" 173 0 basechar 0
AnchorPoint: "Anchor-3" 163 723 basechar 0
AnchorPoint: "Anchor-2" 236 3 basechar 0
LayerCount: 2
Fore
SplineSet
260 723 m 1,0,-1
 260 0 l 1,1,-1
 65 0 l 1,2,-1
 65 723 l 1,3,-1
 260 723 l 1,0,-1
316 823 m 1,4,-1
 39 757 l 1,5,-1
 13 834 l 1,6,-1
 275 941 l 1,7,-1
 316 823 l 1,4,-1
EndSplineSet
EndChar

StartChar: Icircumflex
Encoding: 206 206 143
Width: 325
GlyphClass: 2
Flags: W
AnchorPoint: "Anchor-5" 0 0 basechar 0
AnchorPoint: "Anchor-4" 173 0 basechar 0
AnchorPoint: "Anchor-3" 163 723 basechar 0
AnchorPoint: "Anchor-2" 236 3 basechar 0
LayerCount: 2
Fore
SplineSet
260 723 m 1,0,-1
 260 0 l 1,1,-1
 65 0 l 1,2,-1
 65 723 l 1,3,-1
 260 723 l 1,0,-1
162 868 m 1,4,-1
 91 786 l 1,5,-1
 -41 786 l 1,6,-1
 97 939 l 1,7,-1
 229 939 l 1,8,-1
 363 786 l 1,9,-1
 224 786 l 1,10,-1
 162 868 l 1,4,-1
EndSplineSet
EndChar

StartChar: Idieresis
Encoding: 207 207 144
Width: 325
GlyphClass: 2
Flags: W
AnchorPoint: "Anchor-5" 0 0 basechar 0
AnchorPoint: "Anchor-4" 173 0 basechar 0
AnchorPoint: "Anchor-3" 163 723 basechar 0
AnchorPoint: "Anchor-2" 236 3 basechar 0
LayerCount: 2
Fore
SplineSet
260 723 m 1,0,-1
 260 0 l 1,1,-1
 65 0 l 1,2,-1
 65 723 l 1,3,-1
 260 723 l 1,0,-1
129 790 m 1,4,-1
 -37 790 l 1,5,-1
 -37 929 l 1,6,-1
 129 929 l 1,7,-1
 129 790 l 1,4,-1
363 790 m 1,8,-1
 197 790 l 1,9,-1
 197 929 l 1,10,-1
 363 929 l 1,11,-1
 363 790 l 1,8,-1
EndSplineSet
EndChar

StartChar: Eth
Encoding: 208 208 145
Width: 769
GlyphClass: 2
Flags: W
AnchorPoint: "Anchor-5" 0 0 basechar 0
AnchorPoint: "Anchor-4" 0 0 basechar 0
AnchorPoint: "Anchor-3" 403 723 basechar 0
AnchorPoint: "Anchor-2" 0 0 basechar 0
LayerCount: 2
Fore
SplineSet
640.5 620 m 128,-1,1
 733 525 733 525 733 364 c 0,2,3
 733 256 733 256 692 174 c 128,-1,4
 651 92 651 92 566.5 46 c 128,-1,5
 482 0 482 0 358 0 c 2,6,-1
 99 0 l 1,7,-1
 99 286 l 1,8,-1
 56 286 l 2,9,10
 41 286 41 286 35.5 291.5 c 128,-1,11
 30 297 30 297 30 310 c 2,12,-1
 30 401 l 2,13,14
 30 423 30 423 49 423 c 2,15,-1
 99 423 l 1,16,-1
 99 723 l 1,17,-1
 213 723 l 2,18,19
 328 723 328 723 359 722 c 0,20,0
 548 715 548 715 640.5 620 c 128,-1,1
442 175 m 128,-1,22
 480 197 480 197 505 245 c 128,-1,23
 530 293 530 293 530 367 c 0,24,25
 530 465 530 465 485 517.5 c 128,-1,26
 440 570 440 570 364 570 c 2,27,-1
 294 570 l 1,28,-1
 294 423 l 1,29,-1
 410 423 l 2,30,31
 418 423 418 423 423 417.5 c 128,-1,32
 428 412 428 412 428 404 c 2,33,-1
 428 313 l 2,34,35
 428 298 428 298 420.5 292 c 128,-1,36
 413 286 413 286 396 286 c 2,37,-1
 294 286 l 1,38,-1
 294 153 l 1,39,-1
 364 153 l 2,40,21
 404 153 404 153 442 175 c 128,-1,22
EndSplineSet
EndChar

StartChar: Ntilde
Encoding: 209 209 146
Width: 803
GlyphClass: 2
Flags: W
AnchorPoint: "Anchor-5" 0 0 basechar 0
AnchorPoint: "Anchor-4" 401 0 basechar 0
AnchorPoint: "Anchor-3" 401 723 basechar 0
AnchorPoint: "Anchor-2" 0 0 basechar 0
LayerCount: 2
Fore
SplineSet
738 723 m 1,0,-1
 738 0 l 1,1,-1
 562 0 l 1,2,-1
 260 431 l 1,3,-1
 260 0 l 1,4,-1
 65 0 l 1,5,-1
 65 723 l 1,6,-1
 261 723 l 1,7,-1
 543 320 l 1,8,-1
 543 723 l 1,9,-1
 738 723 l 1,0,-1
537.5 808.5 m 128,-1,11
 511 800 511 800 483 800 c 0,12,13
 464 800 464 800 443 804.5 c 128,-1,14
 422 809 422 809 403 815 c 0,15,16
 356 830 356 830 325 830 c 0,17,18
 305 830 305 830 290 825 c 128,-1,19
 275 820 275 820 256 806 c 0,20,21
 248 801 248 801 244 801 c 0,22,23
 237 801 237 801 233 813 c 2,24,-1
 217 866 l 2,25,26
 216 868 216 868 215 871 c 128,-1,27
 214 874 214 874 214 878 c 0,28,29
 214 885 214 885 225 896 c 0,30,31
 245 915 245 915 266.5 925.5 c 128,-1,32
 288 936 288 936 320 936 c 0,33,34
 339 936 339 936 357.5 932 c 128,-1,35
 376 928 376 928 392 923.5 c 128,-1,36
 408 919 408 919 413 918 c 0,37,38
 460 903 460 903 482 903 c 0,39,40
 519 903 519 903 557 930 c 0,41,42
 562 934 562 934 569 934 c 0,43,44
 578 934 578 934 581 922 c 2,45,-1
 594 858 l 2,46,47
 595 855 595 855 595 851 c 0,48,49
 595 840 595 840 581 829 c 0,50,10
 564 817 564 817 537.5 808.5 c 128,-1,11
EndSplineSet
EndChar

StartChar: Ograve
Encoding: 210 210 147
Width: 772
GlyphClass: 2
Flags: W
AnchorPoint: "Anchor-5" 0 0 basechar 0
AnchorPoint: "Anchor-4" 388 0 basechar 0
AnchorPoint: "Anchor-3" 386 723 basechar 0
AnchorPoint: "Anchor-2" 477 10 basechar 0
LayerCount: 2
Fore
SplineSet
201.5 35.5 m 128,-1,1
 122 81 122 81 79 164.5 c 128,-1,2
 36 248 36 248 36 360 c 128,-1,3
 36 472 36 472 79.5 556.5 c 128,-1,4
 123 641 123 641 202.5 687 c 128,-1,5
 282 733 282 733 387 733 c 0,6,7
 491 733 491 733 570 687 c 128,-1,8
 649 641 649 641 692.5 556.5 c 128,-1,9
 736 472 736 472 736 360 c 0,10,11
 736 249 736 249 693 165 c 128,-1,12
 650 81 650 81 571 35.5 c 128,-1,13
 492 -10 492 -10 387 -10 c 0,14,0
 281 -10 281 -10 201.5 35.5 c 128,-1,1
488 196 m 128,-1,16
 525 246 525 246 525 357 c 0,17,18
 525 472 525 472 488 524.5 c 128,-1,19
 451 577 451 577 387 577 c 128,-1,20
 323 577 323 577 285.5 524.5 c 128,-1,21
 248 472 248 472 248 357 c 0,22,23
 248 246 248 246 285 196 c 128,-1,24
 322 146 322 146 387 146 c 0,25,15
 451 146 451 146 488 196 c 128,-1,16
536 834 m 1,26,-1
 510 757 l 1,27,-1
 233 823 l 1,28,-1
 275 941 l 1,29,-1
 536 834 l 1,26,-1
EndSplineSet
EndChar

StartChar: Oacute
Encoding: 211 211 148
Width: 772
GlyphClass: 2
Flags: W
AnchorPoint: "Anchor-5" 0 0 basechar 0
AnchorPoint: "Anchor-4" 388 0 basechar 0
AnchorPoint: "Anchor-3" 386 723 basechar 0
AnchorPoint: "Anchor-2" 477 10 basechar 0
LayerCount: 2
Fore
SplineSet
201.5 35.5 m 128,-1,1
 122 81 122 81 79 164.5 c 128,-1,2
 36 248 36 248 36 360 c 128,-1,3
 36 472 36 472 79.5 556.5 c 128,-1,4
 123 641 123 641 202.5 687 c 128,-1,5
 282 733 282 733 387 733 c 0,6,7
 491 733 491 733 570 687 c 128,-1,8
 649 641 649 641 692.5 556.5 c 128,-1,9
 736 472 736 472 736 360 c 0,10,11
 736 249 736 249 693 165 c 128,-1,12
 650 81 650 81 571 35.5 c 128,-1,13
 492 -10 492 -10 387 -10 c 0,14,0
 281 -10 281 -10 201.5 35.5 c 128,-1,1
488 196 m 128,-1,16
 525 246 525 246 525 357 c 0,17,18
 525 472 525 472 488 524.5 c 128,-1,19
 451 577 451 577 387 577 c 128,-1,20
 323 577 323 577 285.5 524.5 c 128,-1,21
 248 472 248 472 248 357 c 0,22,23
 248 246 248 246 285 196 c 128,-1,24
 322 146 322 146 387 146 c 0,25,15
 451 146 451 146 488 196 c 128,-1,16
539 823 m 1,26,-1
 262 757 l 1,27,-1
 236 834 l 1,28,-1
 498 941 l 1,29,-1
 539 823 l 1,26,-1
EndSplineSet
EndChar

StartChar: Ocircumflex
Encoding: 212 212 149
Width: 772
GlyphClass: 2
Flags: W
AnchorPoint: "Anchor-5" 0 0 basechar 0
AnchorPoint: "Anchor-4" 388 0 basechar 0
AnchorPoint: "Anchor-3" 386 723 basechar 0
AnchorPoint: "Anchor-2" 477 10 basechar 0
LayerCount: 2
Fore
SplineSet
201.5 35.5 m 128,-1,1
 122 81 122 81 79 164.5 c 128,-1,2
 36 248 36 248 36 360 c 128,-1,3
 36 472 36 472 79.5 556.5 c 128,-1,4
 123 641 123 641 202.5 687 c 128,-1,5
 282 733 282 733 387 733 c 0,6,7
 491 733 491 733 570 687 c 128,-1,8
 649 641 649 641 692.5 556.5 c 128,-1,9
 736 472 736 472 736 360 c 0,10,11
 736 249 736 249 693 165 c 128,-1,12
 650 81 650 81 571 35.5 c 128,-1,13
 492 -10 492 -10 387 -10 c 0,14,0
 281 -10 281 -10 201.5 35.5 c 128,-1,1
488 196 m 128,-1,16
 525 246 525 246 525 357 c 0,17,18
 525 472 525 472 488 524.5 c 128,-1,19
 451 577 451 577 387 577 c 128,-1,20
 323 577 323 577 285.5 524.5 c 128,-1,21
 248 472 248 472 248 357 c 0,22,23
 248 246 248 246 285 196 c 128,-1,24
 322 146 322 146 387 146 c 0,25,15
 451 146 451 146 488 196 c 128,-1,16
385 868 m 1,26,-1
 314 786 l 1,27,-1
 182 786 l 1,28,-1
 320 939 l 1,29,-1
 452 939 l 1,30,-1
 586 786 l 1,31,-1
 447 786 l 1,32,-1
 385 868 l 1,26,-1
EndSplineSet
EndChar

StartChar: Otilde
Encoding: 213 213 150
Width: 772
GlyphClass: 2
Flags: W
AnchorPoint: "Anchor-5" 0 0 basechar 0
AnchorPoint: "Anchor-4" 388 0 basechar 0
AnchorPoint: "Anchor-3" 386 723 basechar 0
AnchorPoint: "Anchor-2" 477 10 basechar 0
LayerCount: 2
Fore
SplineSet
201.5 35.5 m 128,-1,1
 122 81 122 81 79 164.5 c 128,-1,2
 36 248 36 248 36 360 c 128,-1,3
 36 472 36 472 79.5 556.5 c 128,-1,4
 123 641 123 641 202.5 687 c 128,-1,5
 282 733 282 733 387 733 c 0,6,7
 491 733 491 733 570 687 c 128,-1,8
 649 641 649 641 692.5 556.5 c 128,-1,9
 736 472 736 472 736 360 c 0,10,11
 736 249 736 249 693 165 c 128,-1,12
 650 81 650 81 571 35.5 c 128,-1,13
 492 -10 492 -10 387 -10 c 0,14,0
 281 -10 281 -10 201.5 35.5 c 128,-1,1
488 196 m 128,-1,16
 525 246 525 246 525 357 c 0,17,18
 525 472 525 472 488 524.5 c 128,-1,19
 451 577 451 577 387 577 c 128,-1,20
 323 577 323 577 285.5 524.5 c 128,-1,21
 248 472 248 472 248 357 c 0,22,23
 248 246 248 246 285 196 c 128,-1,24
 322 146 322 146 387 146 c 0,25,15
 451 146 451 146 488 196 c 128,-1,16
522.5 808.5 m 128,-1,27
 496 800 496 800 468 800 c 0,28,29
 449 800 449 800 428 804.5 c 128,-1,30
 407 809 407 809 388 815 c 0,31,32
 341 830 341 830 310 830 c 0,33,34
 290 830 290 830 275 825 c 128,-1,35
 260 820 260 820 241 806 c 0,36,37
 233 801 233 801 229 801 c 0,38,39
 222 801 222 801 218 813 c 2,40,-1
 202 866 l 2,41,42
 201 868 201 868 200 871 c 128,-1,43
 199 874 199 874 199 878 c 0,44,45
 199 885 199 885 210 896 c 0,46,47
 230 915 230 915 251.5 925.5 c 128,-1,48
 273 936 273 936 305 936 c 0,49,50
 324 936 324 936 342.5 932 c 128,-1,51
 361 928 361 928 377 923.5 c 128,-1,52
 393 919 393 919 398 918 c 0,53,54
 445 903 445 903 467 903 c 0,55,56
 504 903 504 903 542 930 c 0,57,58
 547 934 547 934 554 934 c 0,59,60
 563 934 563 934 566 922 c 2,61,-1
 579 858 l 2,62,63
 580 855 580 855 580 851 c 0,64,65
 580 840 580 840 566 829 c 0,66,26
 549 817 549 817 522.5 808.5 c 128,-1,27
EndSplineSet
EndChar

StartChar: Odieresis
Encoding: 214 214 151
Width: 772
GlyphClass: 2
Flags: W
AnchorPoint: "Anchor-5" 0 0 basechar 0
AnchorPoint: "Anchor-4" 388 0 basechar 0
AnchorPoint: "Anchor-3" 386 723 basechar 0
AnchorPoint: "Anchor-2" 477 10 basechar 0
LayerCount: 2
Fore
SplineSet
201.5 35.5 m 128,-1,1
 122 81 122 81 79 164.5 c 128,-1,2
 36 248 36 248 36 360 c 128,-1,3
 36 472 36 472 79.5 556.5 c 128,-1,4
 123 641 123 641 202.5 687 c 128,-1,5
 282 733 282 733 387 733 c 0,6,7
 491 733 491 733 570 687 c 128,-1,8
 649 641 649 641 692.5 556.5 c 128,-1,9
 736 472 736 472 736 360 c 0,10,11
 736 249 736 249 693 165 c 128,-1,12
 650 81 650 81 571 35.5 c 128,-1,13
 492 -10 492 -10 387 -10 c 0,14,0
 281 -10 281 -10 201.5 35.5 c 128,-1,1
488 196 m 128,-1,16
 525 246 525 246 525 357 c 0,17,18
 525 472 525 472 488 524.5 c 128,-1,19
 451 577 451 577 387 577 c 128,-1,20
 323 577 323 577 285.5 524.5 c 128,-1,21
 248 472 248 472 248 357 c 0,22,23
 248 246 248 246 285 196 c 128,-1,24
 322 146 322 146 387 146 c 0,25,15
 451 146 451 146 488 196 c 128,-1,16
352 790 m 1,26,-1
 186 790 l 1,27,-1
 186 929 l 1,28,-1
 352 929 l 1,29,-1
 352 790 l 1,26,-1
586 790 m 1,30,-1
 420 790 l 1,31,-1
 420 929 l 1,32,-1
 586 929 l 1,33,-1
 586 790 l 1,30,-1
EndSplineSet
EndChar

StartChar: multiply
Encoding: 215 215 152
Width: 608
GlyphClass: 2
Flags: W
LayerCount: 2
Fore
SplineSet
398 364 m 1,0,-1
 549 213 l 1,1,-1
 451 115 l 1,2,-1
 300 266 l 1,3,-1
 148 115 l 1,4,-1
 52 213 l 1,5,-1
 203 364 l 1,6,-1
 51 516 l 1,7,-1
 147 614 l 1,8,-1
 300 461 l 1,9,-1
 453 614 l 1,10,-1
 551 516 l 1,11,-1
 398 364 l 1,0,-1
EndSplineSet
EndChar

StartChar: Oslash
Encoding: 216 216 153
Width: 790
GlyphClass: 2
Flags: W
AnchorPoint: "Anchor-5" 0 0 basechar 0
AnchorPoint: "Anchor-4" 0 0 basechar 0
AnchorPoint: "Anchor-3" 390 723 basechar 0
AnchorPoint: "Anchor-2" 0 0 basechar 0
LayerCount: 2
Fore
SplineSet
769 656 m 128,-1,1
 769 649 769 649 762 643 c 2,2,-1
 688 570 l 1,3,4
 740 483 740 483 740 360 c 0,5,6
 740 249 740 249 697 165 c 128,-1,7
 654 81 654 81 575 35.5 c 128,-1,8
 496 -10 496 -10 391 -10 c 0,9,10
 259 -10 259 -10 167 61 c 1,11,-1
 111 7 l 2,12,13
 101 -5 101 -5 90 -5 c 0,14,15
 81 -5 81 -5 69 7 c 2,16,-1
 31 46 l 2,17,18
 20 57 20 57 20 66 c 128,-1,19
 20 75 20 75 27 82 c 2,20,-1
 93 146 l 1,21,22
 40 236 40 236 40 360 c 0,23,24
 40 472 40 472 83.5 556.5 c 128,-1,25
 127 641 127 641 206.5 687 c 128,-1,26
 286 733 286 733 391 733 c 0,27,28
 527 733 527 733 617 657 c 1,29,-1
 681 719 l 2,30,31
 690 728 690 728 699 728 c 0,32,33
 706 728 706 728 711 723 c 2,34,-1
 763 669 l 2,35,0
 769 663 769 663 769 656 c 128,-1,1
273 321 m 1,36,-1
 483 526 l 1,37,38
 469 556 469 556 446.5 569.5 c 128,-1,39
 424 583 424 583 391 583 c 0,40,41
 327 583 327 583 299.5 530.5 c 128,-1,42
 272 478 272 478 272 357 c 0,43,44
 272 333 272 333 273 321 c 1,36,-1
507 394 m 1,45,-1
 299 190 l 1,46,47
 327 142 327 142 391 142 c 0,48,49
 434 142 434 142 459.5 163.5 c 128,-1,50
 485 185 485 185 496.5 231.5 c 128,-1,51
 508 278 508 278 508 357 c 0,52,53
 508 381 508 381 507 394 c 1,45,-1
EndSplineSet
EndChar

StartChar: Ugrave
Encoding: 217 217 154
Width: 754
GlyphClass: 2
Flags: W
AnchorPoint: "Anchor-5" 0 0 basechar 0
AnchorPoint: "Anchor-4" 0 0 basechar 0
AnchorPoint: "Anchor-3" 359 723 basechar 0
AnchorPoint: "Anchor-2" 456 12 basechar 0
LayerCount: 2
Fore
SplineSet
616 71 m 128,-1,1
 543 -10 543 -10 377 -10 c 128,-1,2
 211 -10 211 -10 138 71 c 128,-1,3
 65 152 65 152 65 299 c 2,4,-1
 65 723 l 1,5,-1
 262 723 l 1,6,-1
 262 291 l 2,7,8
 262 221 262 221 294.5 187 c 128,-1,9
 327 153 327 153 377 153 c 128,-1,10
 427 153 427 153 459.5 187 c 128,-1,11
 492 221 492 221 492 291 c 2,12,-1
 492 723 l 1,13,-1
 689 723 l 1,14,-1
 689 299 l 2,15,0
 689 152 689 152 616 71 c 128,-1,1
509 834 m 1,16,-1
 483 757 l 1,17,-1
 206 823 l 1,18,-1
 248 941 l 1,19,-1
 509 834 l 1,16,-1
EndSplineSet
EndChar

StartChar: Uacute
Encoding: 218 218 155
Width: 754
GlyphClass: 2
Flags: W
AnchorPoint: "Anchor-5" 0 0 basechar 0
AnchorPoint: "Anchor-4" 0 0 basechar 0
AnchorPoint: "Anchor-3" 359 723 basechar 0
AnchorPoint: "Anchor-2" 456 12 basechar 0
LayerCount: 2
Fore
SplineSet
616 71 m 128,-1,1
 543 -10 543 -10 377 -10 c 128,-1,2
 211 -10 211 -10 138 71 c 128,-1,3
 65 152 65 152 65 299 c 2,4,-1
 65 723 l 1,5,-1
 262 723 l 1,6,-1
 262 291 l 2,7,8
 262 221 262 221 294.5 187 c 128,-1,9
 327 153 327 153 377 153 c 128,-1,10
 427 153 427 153 459.5 187 c 128,-1,11
 492 221 492 221 492 291 c 2,12,-1
 492 723 l 1,13,-1
 689 723 l 1,14,-1
 689 299 l 2,15,0
 689 152 689 152 616 71 c 128,-1,1
512 823 m 1,16,-1
 235 757 l 1,17,-1
 209 834 l 1,18,-1
 471 941 l 1,19,-1
 512 823 l 1,16,-1
EndSplineSet
EndChar

StartChar: Ucircumflex
Encoding: 219 219 156
Width: 754
GlyphClass: 2
Flags: W
AnchorPoint: "Anchor-5" 0 0 basechar 0
AnchorPoint: "Anchor-4" 0 0 basechar 0
AnchorPoint: "Anchor-3" 359 723 basechar 0
AnchorPoint: "Anchor-2" 456 12 basechar 0
LayerCount: 2
Fore
SplineSet
616 71 m 128,-1,1
 543 -10 543 -10 377 -10 c 128,-1,2
 211 -10 211 -10 138 71 c 128,-1,3
 65 152 65 152 65 299 c 2,4,-1
 65 723 l 1,5,-1
 262 723 l 1,6,-1
 262 291 l 2,7,8
 262 221 262 221 294.5 187 c 128,-1,9
 327 153 327 153 377 153 c 128,-1,10
 427 153 427 153 459.5 187 c 128,-1,11
 492 221 492 221 492 291 c 2,12,-1
 492 723 l 1,13,-1
 689 723 l 1,14,-1
 689 299 l 2,15,0
 689 152 689 152 616 71 c 128,-1,1
358 868 m 1,16,-1
 287 786 l 1,17,-1
 155 786 l 1,18,-1
 293 939 l 1,19,-1
 425 939 l 1,20,-1
 559 786 l 1,21,-1
 420 786 l 1,22,-1
 358 868 l 1,16,-1
EndSplineSet
EndChar

StartChar: Udieresis
Encoding: 220 220 157
Width: 754
GlyphClass: 2
Flags: W
AnchorPoint: "Anchor-5" 0 0 basechar 0
AnchorPoint: "Anchor-4" 0 0 basechar 0
AnchorPoint: "Anchor-3" 359 723 basechar 0
AnchorPoint: "Anchor-2" 456 12 basechar 0
LayerCount: 2
Fore
SplineSet
616 71 m 128,-1,1
 543 -10 543 -10 377 -10 c 128,-1,2
 211 -10 211 -10 138 71 c 128,-1,3
 65 152 65 152 65 299 c 2,4,-1
 65 723 l 1,5,-1
 262 723 l 1,6,-1
 262 291 l 2,7,8
 262 221 262 221 294.5 187 c 128,-1,9
 327 153 327 153 377 153 c 128,-1,10
 427 153 427 153 459.5 187 c 128,-1,11
 492 221 492 221 492 291 c 2,12,-1
 492 723 l 1,13,-1
 689 723 l 1,14,-1
 689 299 l 2,15,0
 689 152 689 152 616 71 c 128,-1,1
325 790 m 1,16,-1
 159 790 l 1,17,-1
 159 929 l 1,18,-1
 325 929 l 1,19,-1
 325 790 l 1,16,-1
559 790 m 1,20,-1
 393 790 l 1,21,-1
 393 929 l 1,22,-1
 559 929 l 1,23,-1
 559 790 l 1,20,-1
EndSplineSet
EndChar

StartChar: Yacute
Encoding: 221 221 158
Width: 710
GlyphClass: 2
Flags: W
AnchorPoint: "Anchor-5" 0 0 basechar 0
AnchorPoint: "Anchor-4" 0 0 basechar 0
AnchorPoint: "Anchor-3" 379 723 basechar 0
AnchorPoint: "Anchor-2" 0 0 basechar 0
LayerCount: 2
Fore
SplineSet
451 301 m 1,0,-1
 451 0 l 1,1,-1
 256 0 l 1,2,-1
 256 301 l 1,3,-1
 1 723 l 1,4,-1
 211 723 l 1,5,-1
 354 466 l 1,6,-1
 496 723 l 1,7,-1
 708 723 l 1,8,-1
 451 301 l 1,0,-1
532 823 m 1,9,-1
 255 757 l 1,10,-1
 229 834 l 1,11,-1
 491 941 l 1,12,-1
 532 823 l 1,9,-1
EndSplineSet
EndChar

StartChar: Thorn
Encoding: 222 222 159
Width: 739
GlyphClass: 2
Flags: W
LayerCount: 2
Fore
SplineSet
679.5 243 m 128,-1,1
 646 192 646 192 585 165 c 128,-1,2
 524 138 524 138 445 138 c 2,3,-1
 287 138 l 1,4,-1
 287 0 l 1,5,-1
 65 0 l 1,6,-1
 65 723 l 1,7,-1
 287 723 l 1,8,-1
 287 593 l 1,9,-1
 419 593 l 2,10,11
 501 593 501 593 568 567 c 128,-1,12
 635 541 635 541 674 489 c 128,-1,13
 713 437 713 437 713 363 c 0,14,0
 713 294 713 294 679.5 243 c 128,-1,1
463.5 417.5 m 128,-1,16
 440 437 440 437 406 437 c 2,17,-1
 287 437 l 1,18,-1
 287 294 l 1,19,-1
 411 294 l 2,20,21
 445 294 445 294 466 315 c 128,-1,22
 487 336 487 336 487 366 c 0,23,15
 487 398 487 398 463.5 417.5 c 128,-1,16
EndSplineSet
EndChar

StartChar: germandbls
Encoding: 223 223 160
Width: 672
GlyphClass: 2
Flags: W
LayerCount: 2
Fore
SplineSet
514 683 m 128,-1,1
 574 643 574 643 574 566 c 0,2,3
 574 515 574 515 542 480 c 128,-1,4
 510 445 510 445 435 414 c 0,5,6
 430 412 430 412 430 408 c 0,7,8
 430 403 430 403 437 400 c 0,9,10
 509 368 509 368 550.5 342.5 c 128,-1,11
 592 317 592 317 620 276.5 c 128,-1,12
 648 236 648 236 648 175 c 0,13,14
 648 86 648 86 588 38 c 128,-1,15
 528 -10 528 -10 423 -10 c 0,16,17
 345 -10 345 -10 292 22 c 1,18,-1
 345 138 l 1,19,20
 364 125 364 125 380 117.5 c 128,-1,21
 396 110 396 110 419 110 c 0,22,23
 443 110 443 110 459.5 121 c 128,-1,24
 476 132 476 132 476 154 c 0,25,26
 476 173 476 173 460.5 184.5 c 128,-1,27
 445 196 445 196 401 215 c 0,28,29
 293 264 293 264 293 359 c 0,30,31
 293 394 293 394 306.5 420 c 128,-1,32
 320 446 320 446 343 470 c 2,33,-1
 366 494 l 2,34,35
 383 510 383 510 391.5 524.5 c 128,-1,36
 400 539 400 539 400 554 c 0,37,38
 400 575 400 575 383.5 588.5 c 128,-1,39
 367 602 367 602 338 602 c 0,40,41
 301 602 301 602 281 579.5 c 128,-1,42
 261 557 261 557 261 522 c 2,43,-1
 261 0 l 1,44,-1
 70 0 l 1,45,-1
 70 352 l 1,46,-1
 16 352 l 1,47,-1
 16 484 l 1,48,-1
 69 484 l 1,49,50
 73 586 73 586 137 654.5 c 128,-1,51
 201 723 201 723 345 723 c 0,52,0
 454 723 454 723 514 683 c 128,-1,1
EndSplineSet
EndChar

StartChar: agrave
Encoding: 224 224 161
Width: 582
GlyphClass: 2
Flags: W
AnchorPoint: "Anchor-5" 0 0 basechar 0
AnchorPoint: "Anchor-4" 0 0 basechar 0
AnchorPoint: "Anchor-3" 292 517 basechar 0
AnchorPoint: "Anchor-2" 498 10 basechar 0
LayerCount: 2
Fore
SplineSet
76 34 m 128,-1,1
 25 78 25 78 25 155 c 0,2,3
 25 241 25 241 93.5 286.5 c 128,-1,4
 162 332 162 332 300 332 c 2,5,-1
 340 332 l 1,6,-1
 340 354 l 2,7,8
 340 401 340 401 287 401 c 0,9,10
 261 401 261 401 237.5 391 c 128,-1,11
 214 381 214 381 203 356 c 1,12,-1
 45 356 l 1,13,14
 49 443 49 443 117 485 c 128,-1,15
 185 527 185 527 292 527 c 0,16,17
 420 527 420 527 473 485 c 128,-1,18
 526 443 526 443 526 366 c 2,19,-1
 526 0 l 1,20,-1
 365 0 l 1,21,-1
 350 60 l 1,22,23
 334 29 334 29 294.5 9.5 c 128,-1,24
 255 -10 255 -10 204 -10 c 0,25,0
 127 -10 127 -10 76 34 c 128,-1,1
319.5 131.5 m 128,-1,27
 339 150 339 150 340 175 c 2,28,-1
 340 236 l 1,29,-1
 309 236 l 2,30,31
 274 236 274 236 241 222 c 128,-1,32
 208 208 208 208 208 175 c 0,33,34
 208 147 208 147 227 130 c 128,-1,35
 246 113 246 113 272 113 c 0,36,26
 300 113 300 113 319.5 131.5 c 128,-1,27
442 628 m 1,37,-1
 416 551 l 1,38,-1
 139 617 l 1,39,-1
 181 735 l 1,40,-1
 442 628 l 1,37,-1
EndSplineSet
EndChar

StartChar: aacute
Encoding: 225 225 162
Width: 582
GlyphClass: 2
Flags: W
AnchorPoint: "Anchor-5" 0 0 basechar 0
AnchorPoint: "Anchor-4" 0 0 basechar 0
AnchorPoint: "Anchor-3" 292 517 basechar 0
AnchorPoint: "Anchor-2" 498 10 basechar 0
LayerCount: 2
Fore
SplineSet
76 34 m 128,-1,1
 25 78 25 78 25 155 c 0,2,3
 25 241 25 241 93.5 286.5 c 128,-1,4
 162 332 162 332 300 332 c 2,5,-1
 340 332 l 1,6,-1
 340 354 l 2,7,8
 340 401 340 401 287 401 c 0,9,10
 261 401 261 401 237.5 391 c 128,-1,11
 214 381 214 381 203 356 c 1,12,-1
 45 356 l 1,13,14
 49 443 49 443 117 485 c 128,-1,15
 185 527 185 527 292 527 c 0,16,17
 420 527 420 527 473 485 c 128,-1,18
 526 443 526 443 526 366 c 2,19,-1
 526 0 l 1,20,-1
 365 0 l 1,21,-1
 350 60 l 1,22,23
 334 29 334 29 294.5 9.5 c 128,-1,24
 255 -10 255 -10 204 -10 c 0,25,0
 127 -10 127 -10 76 34 c 128,-1,1
319.5 131.5 m 128,-1,27
 339 150 339 150 340 175 c 2,28,-1
 340 236 l 1,29,-1
 309 236 l 2,30,31
 274 236 274 236 241 222 c 128,-1,32
 208 208 208 208 208 175 c 0,33,34
 208 147 208 147 227 130 c 128,-1,35
 246 113 246 113 272 113 c 0,36,26
 300 113 300 113 319.5 131.5 c 128,-1,27
445 617 m 1,37,-1
 168 551 l 1,38,-1
 142 628 l 1,39,-1
 404 735 l 1,40,-1
 445 617 l 1,37,-1
EndSplineSet
EndChar

StartChar: acircumflex
Encoding: 226 226 163
Width: 582
GlyphClass: 2
Flags: W
AnchorPoint: "Anchor-5" 0 0 basechar 0
AnchorPoint: "Anchor-4" 0 0 basechar 0
AnchorPoint: "Anchor-3" 292 517 basechar 0
AnchorPoint: "Anchor-2" 498 10 basechar 0
LayerCount: 2
Fore
SplineSet
76 34 m 128,-1,1
 25 78 25 78 25 155 c 0,2,3
 25 241 25 241 93.5 286.5 c 128,-1,4
 162 332 162 332 300 332 c 2,5,-1
 340 332 l 1,6,-1
 340 354 l 2,7,8
 340 401 340 401 287 401 c 0,9,10
 261 401 261 401 237.5 391 c 128,-1,11
 214 381 214 381 203 356 c 1,12,-1
 45 356 l 1,13,14
 49 443 49 443 117 485 c 128,-1,15
 185 527 185 527 292 527 c 0,16,17
 420 527 420 527 473 485 c 128,-1,18
 526 443 526 443 526 366 c 2,19,-1
 526 0 l 1,20,-1
 365 0 l 1,21,-1
 350 60 l 1,22,23
 334 29 334 29 294.5 9.5 c 128,-1,24
 255 -10 255 -10 204 -10 c 0,25,0
 127 -10 127 -10 76 34 c 128,-1,1
319.5 131.5 m 128,-1,27
 339 150 339 150 340 175 c 2,28,-1
 340 236 l 1,29,-1
 309 236 l 2,30,31
 274 236 274 236 241 222 c 128,-1,32
 208 208 208 208 208 175 c 0,33,34
 208 147 208 147 227 130 c 128,-1,35
 246 113 246 113 272 113 c 0,36,26
 300 113 300 113 319.5 131.5 c 128,-1,27
291 662 m 1,37,-1
 220 580 l 1,38,-1
 88 580 l 1,39,-1
 226 733 l 1,40,-1
 358 733 l 1,41,-1
 492 580 l 1,42,-1
 353 580 l 1,43,-1
 291 662 l 1,37,-1
EndSplineSet
EndChar

StartChar: atilde
Encoding: 227 227 164
Width: 582
GlyphClass: 2
Flags: W
AnchorPoint: "Anchor-5" 0 0 basechar 0
AnchorPoint: "Anchor-4" 0 0 basechar 0
AnchorPoint: "Anchor-3" 292 517 basechar 0
AnchorPoint: "Anchor-2" 498 10 basechar 0
LayerCount: 2
Fore
SplineSet
76 34 m 128,-1,1
 25 78 25 78 25 155 c 0,2,3
 25 241 25 241 93.5 286.5 c 128,-1,4
 162 332 162 332 300 332 c 2,5,-1
 340 332 l 1,6,-1
 340 354 l 2,7,8
 340 401 340 401 287 401 c 0,9,10
 261 401 261 401 237.5 391 c 128,-1,11
 214 381 214 381 203 356 c 1,12,-1
 45 356 l 1,13,14
 49 443 49 443 117 485 c 128,-1,15
 185 527 185 527 292 527 c 0,16,17
 420 527 420 527 473 485 c 128,-1,18
 526 443 526 443 526 366 c 2,19,-1
 526 0 l 1,20,-1
 365 0 l 1,21,-1
 350 60 l 1,22,23
 334 29 334 29 294.5 9.5 c 128,-1,24
 255 -10 255 -10 204 -10 c 0,25,0
 127 -10 127 -10 76 34 c 128,-1,1
319.5 131.5 m 128,-1,27
 339 150 339 150 340 175 c 2,28,-1
 340 236 l 1,29,-1
 309 236 l 2,30,31
 274 236 274 236 241 222 c 128,-1,32
 208 208 208 208 208 175 c 0,33,34
 208 147 208 147 227 130 c 128,-1,35
 246 113 246 113 272 113 c 0,36,26
 300 113 300 113 319.5 131.5 c 128,-1,27
428.5 602.5 m 128,-1,38
 402 594 402 594 374 594 c 0,39,40
 355 594 355 594 334 598.5 c 128,-1,41
 313 603 313 603 294 609 c 0,42,43
 247 624 247 624 216 624 c 0,44,45
 196 624 196 624 181 619 c 128,-1,46
 166 614 166 614 147 600 c 0,47,48
 139 595 139 595 135 595 c 0,49,50
 128 595 128 595 124 607 c 2,51,-1
 108 660 l 2,52,53
 107 662 107 662 106 665 c 128,-1,54
 105 668 105 668 105 672 c 0,55,56
 105 679 105 679 116 690 c 0,57,58
 136 709 136 709 157.5 719.5 c 128,-1,59
 179 730 179 730 211 730 c 0,60,61
 230 730 230 730 248.5 726 c 128,-1,62
 267 722 267 722 283 717.5 c 128,-1,63
 299 713 299 713 304 712 c 0,64,65
 351 697 351 697 373 697 c 0,66,67
 410 697 410 697 448 724 c 0,68,69
 453 728 453 728 460 728 c 0,70,71
 469 728 469 728 472 716 c 2,72,-1
 485 652 l 2,73,74
 486 649 486 649 486 645 c 0,75,76
 486 634 486 634 472 623 c 0,77,37
 455 611 455 611 428.5 602.5 c 128,-1,38
EndSplineSet
EndChar

StartChar: adieresis
Encoding: 228 228 165
Width: 582
GlyphClass: 2
Flags: W
AnchorPoint: "Anchor-5" 0 0 basechar 0
AnchorPoint: "Anchor-4" 0 0 basechar 0
AnchorPoint: "Anchor-3" 292 517 basechar 0
AnchorPoint: "Anchor-2" 498 10 basechar 0
LayerCount: 2
Fore
SplineSet
76 34 m 128,-1,1
 25 78 25 78 25 155 c 0,2,3
 25 241 25 241 93.5 286.5 c 128,-1,4
 162 332 162 332 300 332 c 2,5,-1
 340 332 l 1,6,-1
 340 354 l 2,7,8
 340 401 340 401 287 401 c 0,9,10
 261 401 261 401 237.5 391 c 128,-1,11
 214 381 214 381 203 356 c 1,12,-1
 45 356 l 1,13,14
 49 443 49 443 117 485 c 128,-1,15
 185 527 185 527 292 527 c 0,16,17
 420 527 420 527 473 485 c 128,-1,18
 526 443 526 443 526 366 c 2,19,-1
 526 0 l 1,20,-1
 365 0 l 1,21,-1
 350 60 l 1,22,23
 334 29 334 29 294.5 9.5 c 128,-1,24
 255 -10 255 -10 204 -10 c 0,25,0
 127 -10 127 -10 76 34 c 128,-1,1
319.5 131.5 m 128,-1,27
 339 150 339 150 340 175 c 2,28,-1
 340 236 l 1,29,-1
 309 236 l 2,30,31
 274 236 274 236 241 222 c 128,-1,32
 208 208 208 208 208 175 c 0,33,34
 208 147 208 147 227 130 c 128,-1,35
 246 113 246 113 272 113 c 0,36,26
 300 113 300 113 319.5 131.5 c 128,-1,27
258 584 m 1,37,-1
 92 584 l 1,38,-1
 92 723 l 1,39,-1
 258 723 l 1,40,-1
 258 584 l 1,37,-1
492 584 m 1,41,-1
 326 584 l 1,42,-1
 326 723 l 1,43,-1
 492 723 l 1,44,-1
 492 584 l 1,41,-1
EndSplineSet
EndChar

StartChar: aring
Encoding: 229 229 166
Width: 582
GlyphClass: 2
Flags: W
AnchorPoint: "Anchor-5" 0 0 basechar 0
AnchorPoint: "Anchor-4" 0 0 basechar 0
AnchorPoint: "Anchor-3" 292 517 basechar 0
AnchorPoint: "Anchor-2" 498 10 basechar 0
LayerCount: 2
Fore
SplineSet
76 34 m 128,-1,1
 25 78 25 78 25 155 c 0,2,3
 25 241 25 241 93.5 286.5 c 128,-1,4
 162 332 162 332 300 332 c 2,5,-1
 340 332 l 1,6,-1
 340 354 l 2,7,8
 340 401 340 401 287 401 c 0,9,10
 261 401 261 401 237.5 391 c 128,-1,11
 214 381 214 381 203 356 c 1,12,-1
 45 356 l 1,13,14
 49 443 49 443 117 485 c 128,-1,15
 185 527 185 527 292 527 c 0,16,17
 420 527 420 527 473 485 c 128,-1,18
 526 443 526 443 526 366 c 2,19,-1
 526 0 l 1,20,-1
 365 0 l 1,21,-1
 350 60 l 1,22,23
 334 29 334 29 294.5 9.5 c 128,-1,24
 255 -10 255 -10 204 -10 c 0,25,0
 127 -10 127 -10 76 34 c 128,-1,1
319.5 131.5 m 128,-1,27
 339 150 339 150 340 175 c 2,28,-1
 340 236 l 1,29,-1
 309 236 l 2,30,31
 274 236 274 236 241 222 c 128,-1,32
 208 208 208 208 208 175 c 0,33,34
 208 147 208 147 227 130 c 128,-1,35
 246 113 246 113 272 113 c 0,36,26
 300 113 300 113 319.5 131.5 c 128,-1,27
372.5 592 m 128,-1,38
 339 559 339 559 292 559 c 0,39,40
 244 559 244 559 211 592.5 c 128,-1,41
 178 626 178 626 178 675 c 0,42,43
 178 721 178 721 211.5 753 c 128,-1,44
 245 785 245 785 292 785 c 128,-1,45
 339 785 339 785 372.5 752 c 128,-1,46
 406 719 406 719 406 673 c 0,47,37
 406 625 406 625 372.5 592 c 128,-1,38
323.5 705 m 128,-1,49
 310 718 310 718 291 718 c 0,50,51
 271 718 271 718 257 704.5 c 128,-1,52
 243 691 243 691 243 672 c 128,-1,53
 243 653 243 653 257.5 638.5 c 128,-1,54
 272 624 272 624 291 624 c 128,-1,55
 310 624 310 624 323.5 638.5 c 128,-1,56
 337 653 337 653 337 672 c 0,57,48
 337 692 337 692 323.5 705 c 128,-1,49
EndSplineSet
EndChar

StartChar: ae
Encoding: 230 230 167
Width: 904
GlyphClass: 2
Flags: W
AnchorPoint: "Anchor-5" 0 0 basechar 0
AnchorPoint: "Anchor-4" 0 0 basechar 0
AnchorPoint: "Anchor-3" 452 517 basechar 0
AnchorPoint: "Anchor-2" 0 0 basechar 0
LayerCount: 2
Fore
SplineSet
574 145.5 m 128,-1,1
 602 119 602 119 646 119 c 0,2,3
 674 119 674 119 700 132.5 c 128,-1,4
 726 146 726 146 760 180 c 1,5,-1
 878 132 l 1,6,7
 824 51 824 51 766.5 20.5 c 128,-1,8
 709 -10 709 -10 620 -10 c 0,9,10
 559 -10 559 -10 506.5 11 c 128,-1,11
 454 32 454 32 417 69 c 0,12,13
 411 75 411 75 407 69 c 0,14,15
 362 27 362 27 312 8.5 c 128,-1,16
 262 -10 262 -10 194 -10 c 0,17,18
 113 -10 113 -10 69 30.5 c 128,-1,19
 25 71 25 71 25 139 c 0,20,21
 25 219 25 219 96.5 267.5 c 128,-1,22
 168 316 168 316 306 323 c 2,23,-1
 346 325 l 1,24,-1
 346 354 l 2,25,26
 346 410 346 410 289 410 c 0,27,28
 228 410 228 410 206 350 c 1,29,-1
 38 383 l 1,30,31
 59 433 59 433 88.5 464 c 128,-1,32
 118 495 118 495 167.5 511 c 128,-1,33
 217 527 217 527 293 527 c 0,34,35
 417 526 417 526 475 488 c 1,36,37
 541 527 541 527 616 527 c 0,38,39
 693 527 693 527 753 490.5 c 128,-1,40
 813 454 813 454 847 385.5 c 128,-1,41
 881 317 881 317 881 223 c 1,42,-1
 546 223 l 1,43,0
 546 172 546 172 574 145.5 c 128,-1,1
570 389.5 m 128,-1,45
 548 367 548 367 549 325 c 1,46,-1
 692 324 l 1,47,48
 692 353 692 353 675 382.5 c 128,-1,49
 658 412 658 412 625 412 c 128,-1,44
 592 412 592 412 570 389.5 c 128,-1,45
315 227 m 2,50,51
 280 224 280 224 247.5 204 c 128,-1,52
 215 184 215 184 215 152 c 0,53,54
 215 130 215 130 230 117.5 c 128,-1,55
 245 105 245 105 273 105 c 0,56,57
 302 105 302 105 324 119 c 128,-1,58
 346 133 346 133 346 156 c 2,59,-1
 346 229 l 1,60,-1
 315 227 l 2,50,51
EndSplineSet
EndChar

StartChar: ccedilla
Encoding: 231 231 168
Width: 535
GlyphClass: 2
Flags: W
AnchorPoint: "Anchor-5" 0 0 basechar 0
AnchorPoint: "Anchor-4" 284 0 basechar 0
AnchorPoint: "Anchor-3" 285 517 basechar 0
AnchorPoint: "Anchor-2" 0 0 basechar 0
LayerCount: 2
Fore
SplineSet
406 496.5 m 128,-1,1
 457 466 457 466 483.5 416 c 128,-1,2
 510 366 510 366 512 306 c 1,3,-1
 354 306 l 1,4,5
 350 336 350 336 334.5 359.5 c 128,-1,6
 319 383 319 383 286 383 c 0,7,8
 248 383 248 383 225.5 351 c 128,-1,9
 203 319 203 319 203 258 c 0,10,11
 203 196 203 196 227.5 160 c 128,-1,12
 252 124 252 124 290 124 c 0,13,14
 322 124 322 124 337 149 c 128,-1,15
 352 174 352 174 356 200 c 1,16,-1
 509 200 l 1,17,18
 509 144 509 144 482 96 c 128,-1,19
 455 48 455 48 404 19 c 128,-1,20
 353 -10 353 -10 285 -10 c 0,21,22
 211 -10 211 -10 151.5 23.5 c 128,-1,23
 92 57 92 57 58 117.5 c 128,-1,24
 24 178 24 178 24 256 c 0,25,26
 24 335 24 335 58 396.5 c 128,-1,27
 92 458 92 458 151.5 492.5 c 128,-1,28
 211 527 211 527 285 527 c 0,29,0
 355 527 355 527 406 496.5 c 128,-1,1
381 -195.5 m 128,-1,31
 343 -219 343 -219 289 -219 c 0,32,33
 205 -219 205 -219 156 -190 c 1,34,-1
 180 -131 l 1,35,36
 228 -157 228 -157 265 -157 c 0,37,38
 285 -157 285 -157 298 -150 c 128,-1,39
 311 -143 311 -143 311 -131 c 0,40,41
 311 -112 311 -112 290.5 -102.5 c 128,-1,42
 270 -93 270 -93 222 -93 c 0,43,44
 214 -93 214 -93 211.5 -91 c 128,-1,45
 209 -89 209 -89 212 -81 c 2,46,-1
 249 5 l 1,47,-1
 328 5 l 1,48,-1
 307 -52 l 1,49,50
 363 -52 363 -52 391 -77 c 128,-1,51
 419 -102 419 -102 419 -134 c 0,52,30
 419 -172 419 -172 381 -195.5 c 128,-1,31
EndSplineSet
EndChar

StartChar: egrave
Encoding: 232 232 169
Width: 566
GlyphClass: 2
Flags: W
AnchorPoint: "Anchor-5" 0 0 basechar 0
AnchorPoint: "Anchor-4" 291 0 basechar 0
AnchorPoint: "Anchor-3" 288 517 basechar 0
AnchorPoint: "Anchor-2" 416 25 basechar 0
LayerCount: 2
Fore
SplineSet
235 148 m 128,-1,1
 256 126 256 126 290 126 c 0,2,3
 320 126 320 126 340 137 c 128,-1,4
 360 148 360 148 371 176 c 1,5,-1
 543 176 l 1,6,7
 535 121 535 121 498.5 78.5 c 128,-1,8
 462 36 462 36 407.5 13 c 128,-1,9
 353 -10 353 -10 295 -10 c 0,10,11
 215 -10 215 -10 153.5 22.5 c 128,-1,12
 92 55 92 55 58 114.5 c 128,-1,13
 24 174 24 174 24 252 c 0,14,15
 24 327 24 327 55.5 390 c 128,-1,16
 87 453 87 453 147 490 c 128,-1,17
 207 527 207 527 287 527 c 0,18,19
 369 527 369 527 426 492.5 c 128,-1,20
 483 458 483 458 512 397.5 c 128,-1,21
 541 337 541 337 541 259 c 2,22,-1
 541 214 l 1,23,-1
 215 214 l 1,24,0
 214 170 214 170 235 148 c 128,-1,1
362 323 m 1,25,26
 362 354 362 354 342 375 c 128,-1,27
 322 396 322 396 287 396 c 0,28,29
 257 396 257 396 235.5 374 c 128,-1,30
 214 352 214 352 214 323 c 1,31,-1
 362 323 l 1,25,26
438 628 m 1,32,-1
 412 551 l 1,33,-1
 135 617 l 1,34,-1
 177 735 l 1,35,-1
 438 628 l 1,32,-1
EndSplineSet
EndChar

StartChar: eacute
Encoding: 233 233 170
Width: 566
GlyphClass: 2
Flags: W
AnchorPoint: "Anchor-5" 0 0 basechar 0
AnchorPoint: "Anchor-4" 291 0 basechar 0
AnchorPoint: "Anchor-3" 288 517 basechar 0
AnchorPoint: "Anchor-2" 416 25 basechar 0
LayerCount: 2
Fore
SplineSet
235 148 m 128,-1,1
 256 126 256 126 290 126 c 0,2,3
 320 126 320 126 340 137 c 128,-1,4
 360 148 360 148 371 176 c 1,5,-1
 543 176 l 1,6,7
 535 121 535 121 498.5 78.5 c 128,-1,8
 462 36 462 36 407.5 13 c 128,-1,9
 353 -10 353 -10 295 -10 c 0,10,11
 215 -10 215 -10 153.5 22.5 c 128,-1,12
 92 55 92 55 58 114.5 c 128,-1,13
 24 174 24 174 24 252 c 0,14,15
 24 327 24 327 55.5 390 c 128,-1,16
 87 453 87 453 147 490 c 128,-1,17
 207 527 207 527 287 527 c 0,18,19
 369 527 369 527 426 492.5 c 128,-1,20
 483 458 483 458 512 397.5 c 128,-1,21
 541 337 541 337 541 259 c 2,22,-1
 541 214 l 1,23,-1
 215 214 l 1,24,0
 214 170 214 170 235 148 c 128,-1,1
362 323 m 1,25,26
 362 354 362 354 342 375 c 128,-1,27
 322 396 322 396 287 396 c 0,28,29
 257 396 257 396 235.5 374 c 128,-1,30
 214 352 214 352 214 323 c 1,31,-1
 362 323 l 1,25,26
441 617 m 1,32,-1
 164 551 l 1,33,-1
 138 628 l 1,34,-1
 400 735 l 1,35,-1
 441 617 l 1,32,-1
EndSplineSet
EndChar

StartChar: ecircumflex
Encoding: 234 234 171
Width: 566
GlyphClass: 2
Flags: W
AnchorPoint: "Anchor-5" 0 0 basechar 0
AnchorPoint: "Anchor-4" 291 0 basechar 0
AnchorPoint: "Anchor-3" 288 517 basechar 0
AnchorPoint: "Anchor-2" 416 25 basechar 0
LayerCount: 2
Fore
SplineSet
235 148 m 128,-1,1
 256 126 256 126 290 126 c 0,2,3
 320 126 320 126 340 137 c 128,-1,4
 360 148 360 148 371 176 c 1,5,-1
 543 176 l 1,6,7
 535 121 535 121 498.5 78.5 c 128,-1,8
 462 36 462 36 407.5 13 c 128,-1,9
 353 -10 353 -10 295 -10 c 0,10,11
 215 -10 215 -10 153.5 22.5 c 128,-1,12
 92 55 92 55 58 114.5 c 128,-1,13
 24 174 24 174 24 252 c 0,14,15
 24 327 24 327 55.5 390 c 128,-1,16
 87 453 87 453 147 490 c 128,-1,17
 207 527 207 527 287 527 c 0,18,19
 369 527 369 527 426 492.5 c 128,-1,20
 483 458 483 458 512 397.5 c 128,-1,21
 541 337 541 337 541 259 c 2,22,-1
 541 214 l 1,23,-1
 215 214 l 1,24,0
 214 170 214 170 235 148 c 128,-1,1
362 323 m 1,25,26
 362 354 362 354 342 375 c 128,-1,27
 322 396 322 396 287 396 c 0,28,29
 257 396 257 396 235.5 374 c 128,-1,30
 214 352 214 352 214 323 c 1,31,-1
 362 323 l 1,25,26
287 662 m 1,32,-1
 216 580 l 1,33,-1
 84 580 l 1,34,-1
 222 733 l 1,35,-1
 354 733 l 1,36,-1
 488 580 l 1,37,-1
 349 580 l 1,38,-1
 287 662 l 1,32,-1
EndSplineSet
EndChar

StartChar: edieresis
Encoding: 235 235 172
Width: 566
GlyphClass: 2
Flags: W
AnchorPoint: "Anchor-5" 0 0 basechar 0
AnchorPoint: "Anchor-4" 291 0 basechar 0
AnchorPoint: "Anchor-3" 288 517 basechar 0
AnchorPoint: "Anchor-2" 416 25 basechar 0
LayerCount: 2
Fore
SplineSet
235 148 m 128,-1,1
 256 126 256 126 290 126 c 0,2,3
 320 126 320 126 340 137 c 128,-1,4
 360 148 360 148 371 176 c 1,5,-1
 543 176 l 1,6,7
 535 121 535 121 498.5 78.5 c 128,-1,8
 462 36 462 36 407.5 13 c 128,-1,9
 353 -10 353 -10 295 -10 c 0,10,11
 215 -10 215 -10 153.5 22.5 c 128,-1,12
 92 55 92 55 58 114.5 c 128,-1,13
 24 174 24 174 24 252 c 0,14,15
 24 327 24 327 55.5 390 c 128,-1,16
 87 453 87 453 147 490 c 128,-1,17
 207 527 207 527 287 527 c 0,18,19
 369 527 369 527 426 492.5 c 128,-1,20
 483 458 483 458 512 397.5 c 128,-1,21
 541 337 541 337 541 259 c 2,22,-1
 541 214 l 1,23,-1
 215 214 l 1,24,0
 214 170 214 170 235 148 c 128,-1,1
362 323 m 1,25,26
 362 354 362 354 342 375 c 128,-1,27
 322 396 322 396 287 396 c 0,28,29
 257 396 257 396 235.5 374 c 128,-1,30
 214 352 214 352 214 323 c 1,31,-1
 362 323 l 1,25,26
254 584 m 1,32,-1
 88 584 l 1,33,-1
 88 723 l 1,34,-1
 254 723 l 1,35,-1
 254 584 l 1,32,-1
488 584 m 1,36,-1
 322 584 l 1,37,-1
 322 723 l 1,38,-1
 488 723 l 1,39,-1
 488 584 l 1,36,-1
EndSplineSet
EndChar

StartChar: igrave
Encoding: 236 236 173
Width: 307
GlyphClass: 2
Flags: W
AnchorPoint: "Anchor-5" 0 0 basechar 0
AnchorPoint: "Anchor-4" 0 0 basechar 0
AnchorPoint: "Anchor-3" 157 517 basechar 0
AnchorPoint: "Anchor-2" 223 9 basechar 0
LayerCount: 2
Fore
SplineSet
251 0 m 1,0,-1
 56 0 l 1,1,-1
 56 517 l 1,2,-1
 251 517 l 1,3,-1
 251 0 l 1,0,-1
307 628 m 1,4,-1
 281 551 l 1,5,-1
 4 617 l 1,6,-1
 46 735 l 1,7,-1
 307 628 l 1,4,-1
EndSplineSet
EndChar

StartChar: iacute
Encoding: 237 237 174
Width: 307
GlyphClass: 2
Flags: W
AnchorPoint: "Anchor-5" 0 0 basechar 0
AnchorPoint: "Anchor-4" 0 0 basechar 0
AnchorPoint: "Anchor-3" 157 517 basechar 0
AnchorPoint: "Anchor-2" 223 9 basechar 0
LayerCount: 2
Fore
SplineSet
251 0 m 1,0,-1
 56 0 l 1,1,-1
 56 517 l 1,2,-1
 251 517 l 1,3,-1
 251 0 l 1,0,-1
310 617 m 1,4,-1
 33 551 l 1,5,-1
 7 628 l 1,6,-1
 269 735 l 1,7,-1
 310 617 l 1,4,-1
EndSplineSet
EndChar

StartChar: icircumflex
Encoding: 238 238 175
Width: 307
GlyphClass: 2
Flags: W
AnchorPoint: "Anchor-5" 0 0 basechar 0
AnchorPoint: "Anchor-4" 0 0 basechar 0
AnchorPoint: "Anchor-3" 157 517 basechar 0
AnchorPoint: "Anchor-2" 223 9 basechar 0
LayerCount: 2
Fore
SplineSet
251 0 m 1,0,-1
 56 0 l 1,1,-1
 56 517 l 1,2,-1
 251 517 l 1,3,-1
 251 0 l 1,0,-1
156 662 m 1,4,-1
 85 580 l 1,5,-1
 -47 580 l 1,6,-1
 91 733 l 1,7,-1
 223 733 l 1,8,-1
 357 580 l 1,9,-1
 218 580 l 1,10,-1
 156 662 l 1,4,-1
EndSplineSet
EndChar

StartChar: idieresis
Encoding: 239 239 176
Width: 307
GlyphClass: 2
Flags: W
AnchorPoint: "Anchor-5" 0 0 basechar 0
AnchorPoint: "Anchor-4" 0 0 basechar 0
AnchorPoint: "Anchor-3" 157 517 basechar 0
AnchorPoint: "Anchor-2" 223 9 basechar 0
LayerCount: 2
Fore
SplineSet
251 0 m 1,0,-1
 56 0 l 1,1,-1
 56 517 l 1,2,-1
 251 517 l 1,3,-1
 251 0 l 1,0,-1
123 584 m 1,4,-1
 -43 584 l 1,5,-1
 -43 723 l 1,6,-1
 123 723 l 1,7,-1
 123 584 l 1,4,-1
357 584 m 1,8,-1
 191 584 l 1,9,-1
 191 723 l 1,10,-1
 357 723 l 1,11,-1
 357 584 l 1,8,-1
EndSplineSet
EndChar

StartChar: eth
Encoding: 240 240 177
Width: 592
GlyphClass: 2
Flags: W
LayerCount: 2
Fore
SplineSet
534 123.5 m 128,-1,1
 500 59 500 59 438 24.5 c 128,-1,2
 376 -10 376 -10 295 -10 c 0,3,4
 217 -10 217 -10 155 23.5 c 128,-1,5
 93 57 93 57 58.5 115.5 c 128,-1,6
 24 174 24 174 24 246 c 0,7,8
 24 321 24 321 59.5 380.5 c 128,-1,9
 95 440 95 440 157.5 473.5 c 128,-1,10
 220 507 220 507 296 507 c 0,11,12
 301 507 301 507 298 512 c 0,13,14
 274 545 274 545 234 575 c 1,15,-1
 126 515 l 1,16,-1
 93 568 l 1,17,-1
 174 612 l 1,18,19
 130 635 130 635 81 651 c 1,20,-1
 181 734 l 1,21,22
 258 716 258 716 312 689 c 1,23,-1
 398 737 l 1,24,-1
 428 683 l 1,25,-1
 374 652 l 1,26,27
 465 588 465 588 516.5 489 c 128,-1,28
 568 390 568 390 568 275 c 0,29,0
 568 188 568 188 534 123.5 c 128,-1,1
353 148 m 128,-1,31
 371 181 371 181 371 250 c 0,32,33
 371 320 371 320 353 353 c 128,-1,34
 335 386 335 386 296 386 c 0,35,36
 258 386 258 386 239.5 352.5 c 128,-1,37
 221 319 221 319 221 250 c 128,-1,38
 221 181 221 181 239.5 148 c 128,-1,39
 258 115 258 115 296 115 c 0,40,30
 335 115 335 115 353 148 c 128,-1,31
EndSplineSet
EndChar

StartChar: ntilde
Encoding: 241 241 178
Width: 625
GlyphClass: 2
Flags: W
AnchorPoint: "Anchor-5" 0 0 basechar 0
AnchorPoint: "Anchor-4" 312 0 basechar 0
AnchorPoint: "Anchor-3" 312 517 basechar 0
AnchorPoint: "Anchor-2" 0 0 basechar 0
LayerCount: 2
Fore
SplineSet
56 517 m 1,0,-1
 249 517 l 1,1,-1
 249 455 l 1,2,3
 272 479 272 479 286.5 490.5 c 128,-1,4
 301 502 301 502 325.5 510.5 c 128,-1,5
 350 519 350 519 388 519 c 0,6,7
 433 519 433 519 475 496.5 c 128,-1,8
 517 474 517 474 543 435 c 128,-1,9
 569 396 569 396 569 349 c 2,10,-1
 569 0 l 1,11,-1
 374 0 l 1,12,-1
 374 323 l 2,13,14
 374 344 374 344 355.5 357 c 128,-1,15
 337 370 337 370 314 370 c 0,16,17
 290 370 290 370 270.5 357 c 128,-1,18
 251 344 251 344 251 323 c 2,19,-1
 251 0 l 1,20,-1
 56 0 l 1,21,-1
 56 517 l 1,0,-1
448.5 602.5 m 128,-1,23
 422 594 422 594 394 594 c 0,24,25
 375 594 375 594 354 598.5 c 128,-1,26
 333 603 333 603 314 609 c 0,27,28
 267 624 267 624 236 624 c 0,29,30
 216 624 216 624 201 619 c 128,-1,31
 186 614 186 614 167 600 c 0,32,33
 159 595 159 595 155 595 c 0,34,35
 148 595 148 595 144 607 c 2,36,-1
 128 660 l 2,37,38
 127 662 127 662 126 665 c 128,-1,39
 125 668 125 668 125 672 c 0,40,41
 125 679 125 679 136 690 c 0,42,43
 156 709 156 709 177.5 719.5 c 128,-1,44
 199 730 199 730 231 730 c 0,45,46
 250 730 250 730 268.5 726 c 128,-1,47
 287 722 287 722 303 717.5 c 128,-1,48
 319 713 319 713 324 712 c 0,49,50
 371 697 371 697 393 697 c 0,51,52
 430 697 430 697 468 724 c 0,53,54
 473 728 473 728 480 728 c 0,55,56
 489 728 489 728 492 716 c 2,57,-1
 505 652 l 2,58,59
 506 649 506 649 506 645 c 0,60,61
 506 634 506 634 492 623 c 0,62,22
 475 611 475 611 448.5 602.5 c 128,-1,23
EndSplineSet
EndChar

StartChar: ograve
Encoding: 242 242 179
Width: 573
GlyphClass: 2
Flags: W
AnchorPoint: "Anchor-5" 0 0 basechar 0
AnchorPoint: "Anchor-4" 284 0 basechar 0
AnchorPoint: "Anchor-3" 287 517 basechar 0
AnchorPoint: "Anchor-2" 363 10 basechar 0
LayerCount: 2
Fore
SplineSet
147.5 23.5 m 128,-1,1
 88 57 88 57 56 117.5 c 128,-1,2
 24 178 24 178 24 255 c 0,3,4
 24 335 24 335 57.5 397 c 128,-1,5
 91 459 91 459 151 493 c 128,-1,6
 211 527 211 527 287 527 c 0,7,8
 366 527 366 527 425.5 492 c 128,-1,9
 485 457 485 457 517 395 c 128,-1,10
 549 333 549 333 549 255 c 0,11,12
 549 178 549 178 516.5 118 c 128,-1,13
 484 58 484 58 424.5 24 c 128,-1,14
 365 -10 365 -10 286 -10 c 128,-1,0
 207 -10 207 -10 147.5 23.5 c 128,-1,1
344.5 170 m 128,-1,16
 360 209 360 209 360 262 c 0,17,18
 360 388 360 388 287 388 c 0,19,20
 213 388 213 388 213 262 c 0,21,22
 213 208 213 208 229 169.5 c 128,-1,23
 245 131 245 131 287 131 c 128,-1,15
 329 131 329 131 344.5 170 c 128,-1,16
437 628 m 1,24,-1
 411 551 l 1,25,-1
 134 617 l 1,26,-1
 176 735 l 1,27,-1
 437 628 l 1,24,-1
EndSplineSet
EndChar

StartChar: oacute
Encoding: 243 243 180
Width: 573
GlyphClass: 2
Flags: W
AnchorPoint: "Anchor-5" 0 0 basechar 0
AnchorPoint: "Anchor-4" 284 0 basechar 0
AnchorPoint: "Anchor-3" 287 517 basechar 0
AnchorPoint: "Anchor-2" 363 10 basechar 0
LayerCount: 2
Fore
SplineSet
147.5 23.5 m 128,-1,1
 88 57 88 57 56 117.5 c 128,-1,2
 24 178 24 178 24 255 c 0,3,4
 24 335 24 335 57.5 397 c 128,-1,5
 91 459 91 459 151 493 c 128,-1,6
 211 527 211 527 287 527 c 0,7,8
 366 527 366 527 425.5 492 c 128,-1,9
 485 457 485 457 517 395 c 128,-1,10
 549 333 549 333 549 255 c 0,11,12
 549 178 549 178 516.5 118 c 128,-1,13
 484 58 484 58 424.5 24 c 128,-1,14
 365 -10 365 -10 286 -10 c 128,-1,0
 207 -10 207 -10 147.5 23.5 c 128,-1,1
344.5 170 m 128,-1,16
 360 209 360 209 360 262 c 0,17,18
 360 388 360 388 287 388 c 0,19,20
 213 388 213 388 213 262 c 0,21,22
 213 208 213 208 229 169.5 c 128,-1,23
 245 131 245 131 287 131 c 128,-1,15
 329 131 329 131 344.5 170 c 128,-1,16
440 617 m 1,24,-1
 163 551 l 1,25,-1
 137 628 l 1,26,-1
 399 735 l 1,27,-1
 440 617 l 1,24,-1
EndSplineSet
EndChar

StartChar: ocircumflex
Encoding: 244 244 181
Width: 573
GlyphClass: 2
Flags: W
AnchorPoint: "Anchor-5" 0 0 basechar 0
AnchorPoint: "Anchor-4" 284 0 basechar 0
AnchorPoint: "Anchor-3" 287 517 basechar 0
AnchorPoint: "Anchor-2" 363 10 basechar 0
LayerCount: 2
Fore
SplineSet
147.5 23.5 m 128,-1,1
 88 57 88 57 56 117.5 c 128,-1,2
 24 178 24 178 24 255 c 0,3,4
 24 335 24 335 57.5 397 c 128,-1,5
 91 459 91 459 151 493 c 128,-1,6
 211 527 211 527 287 527 c 0,7,8
 366 527 366 527 425.5 492 c 128,-1,9
 485 457 485 457 517 395 c 128,-1,10
 549 333 549 333 549 255 c 0,11,12
 549 178 549 178 516.5 118 c 128,-1,13
 484 58 484 58 424.5 24 c 128,-1,14
 365 -10 365 -10 286 -10 c 128,-1,0
 207 -10 207 -10 147.5 23.5 c 128,-1,1
344.5 170 m 128,-1,16
 360 209 360 209 360 262 c 0,17,18
 360 388 360 388 287 388 c 0,19,20
 213 388 213 388 213 262 c 0,21,22
 213 208 213 208 229 169.5 c 128,-1,23
 245 131 245 131 287 131 c 128,-1,15
 329 131 329 131 344.5 170 c 128,-1,16
286 662 m 1,24,-1
 215 580 l 1,25,-1
 83 580 l 1,26,-1
 221 733 l 1,27,-1
 353 733 l 1,28,-1
 487 580 l 1,29,-1
 348 580 l 1,30,-1
 286 662 l 1,24,-1
EndSplineSet
EndChar

StartChar: otilde
Encoding: 245 245 182
Width: 573
GlyphClass: 2
Flags: W
AnchorPoint: "Anchor-5" 0 0 basechar 0
AnchorPoint: "Anchor-4" 284 0 basechar 0
AnchorPoint: "Anchor-3" 287 517 basechar 0
AnchorPoint: "Anchor-2" 363 10 basechar 0
LayerCount: 2
Fore
SplineSet
147.5 23.5 m 128,-1,1
 88 57 88 57 56 117.5 c 128,-1,2
 24 178 24 178 24 255 c 0,3,4
 24 335 24 335 57.5 397 c 128,-1,5
 91 459 91 459 151 493 c 128,-1,6
 211 527 211 527 287 527 c 0,7,8
 366 527 366 527 425.5 492 c 128,-1,9
 485 457 485 457 517 395 c 128,-1,10
 549 333 549 333 549 255 c 0,11,12
 549 178 549 178 516.5 118 c 128,-1,13
 484 58 484 58 424.5 24 c 128,-1,14
 365 -10 365 -10 286 -10 c 128,-1,0
 207 -10 207 -10 147.5 23.5 c 128,-1,1
344.5 170 m 128,-1,16
 360 209 360 209 360 262 c 0,17,18
 360 388 360 388 287 388 c 0,19,20
 213 388 213 388 213 262 c 0,21,22
 213 208 213 208 229 169.5 c 128,-1,23
 245 131 245 131 287 131 c 128,-1,15
 329 131 329 131 344.5 170 c 128,-1,16
423.5 602.5 m 128,-1,25
 397 594 397 594 369 594 c 0,26,27
 350 594 350 594 329 598.5 c 128,-1,28
 308 603 308 603 289 609 c 0,29,30
 242 624 242 624 211 624 c 0,31,32
 191 624 191 624 176 619 c 128,-1,33
 161 614 161 614 142 600 c 0,34,35
 134 595 134 595 130 595 c 0,36,37
 123 595 123 595 119 607 c 2,38,-1
 103 660 l 2,39,40
 102 662 102 662 101 665 c 128,-1,41
 100 668 100 668 100 672 c 0,42,43
 100 679 100 679 111 690 c 0,44,45
 131 709 131 709 152.5 719.5 c 128,-1,46
 174 730 174 730 206 730 c 0,47,48
 225 730 225 730 243.5 726 c 128,-1,49
 262 722 262 722 278 717.5 c 128,-1,50
 294 713 294 713 299 712 c 0,51,52
 346 697 346 697 368 697 c 0,53,54
 405 697 405 697 443 724 c 0,55,56
 448 728 448 728 455 728 c 0,57,58
 464 728 464 728 467 716 c 2,59,-1
 480 652 l 2,60,61
 481 649 481 649 481 645 c 0,62,63
 481 634 481 634 467 623 c 0,64,24
 450 611 450 611 423.5 602.5 c 128,-1,25
EndSplineSet
EndChar

StartChar: odieresis
Encoding: 246 246 183
Width: 573
GlyphClass: 2
Flags: W
AnchorPoint: "Anchor-5" 0 0 basechar 0
AnchorPoint: "Anchor-4" 284 0 basechar 0
AnchorPoint: "Anchor-3" 287 517 basechar 0
AnchorPoint: "Anchor-2" 363 10 basechar 0
LayerCount: 2
Fore
SplineSet
147.5 23.5 m 128,-1,1
 88 57 88 57 56 117.5 c 128,-1,2
 24 178 24 178 24 255 c 0,3,4
 24 335 24 335 57.5 397 c 128,-1,5
 91 459 91 459 151 493 c 128,-1,6
 211 527 211 527 287 527 c 0,7,8
 366 527 366 527 425.5 492 c 128,-1,9
 485 457 485 457 517 395 c 128,-1,10
 549 333 549 333 549 255 c 0,11,12
 549 178 549 178 516.5 118 c 128,-1,13
 484 58 484 58 424.5 24 c 128,-1,14
 365 -10 365 -10 286 -10 c 128,-1,0
 207 -10 207 -10 147.5 23.5 c 128,-1,1
344.5 170 m 128,-1,16
 360 209 360 209 360 262 c 0,17,18
 360 388 360 388 287 388 c 0,19,20
 213 388 213 388 213 262 c 0,21,22
 213 208 213 208 229 169.5 c 128,-1,23
 245 131 245 131 287 131 c 128,-1,15
 329 131 329 131 344.5 170 c 128,-1,16
253 584 m 1,24,-1
 87 584 l 1,25,-1
 87 723 l 1,26,-1
 253 723 l 1,27,-1
 253 584 l 1,24,-1
487 584 m 1,28,-1
 321 584 l 1,29,-1
 321 723 l 1,30,-1
 487 723 l 1,31,-1
 487 584 l 1,28,-1
EndSplineSet
EndChar

StartChar: divide
Encoding: 247 247 184
Width: 610
GlyphClass: 2
Flags: W
LayerCount: 2
Fore
SplineSet
394 491 m 1,0,-1
 209 491 l 1,1,-1
 209 669 l 1,2,-1
 394 669 l 1,3,-1
 394 491 l 1,0,-1
555 295 m 1,4,-1
 46 295 l 1,5,-1
 46 433 l 1,6,-1
 555 433 l 1,7,-1
 555 295 l 1,4,-1
394 59 m 1,8,-1
 209 59 l 1,9,-1
 209 237 l 1,10,-1
 394 237 l 1,11,-1
 394 59 l 1,8,-1
EndSplineSet
EndChar

StartChar: oslash
Encoding: 248 248 185
Width: 612
GlyphClass: 2
Flags: W
AnchorPoint: "Anchor-5" 0 0 basechar 0
AnchorPoint: "Anchor-4" 298 0 basechar 0
AnchorPoint: "Anchor-3" 301 517 basechar 0
AnchorPoint: "Anchor-2" 377 10 basechar 0
LayerCount: 2
Fore
SplineSet
524 408 m 1,0,1
 563 341 563 341 563 255 c 0,2,3
 563 178 563 178 530.5 118 c 128,-1,4
 498 58 498 58 438.5 24 c 128,-1,5
 379 -10 379 -10 300 -10 c 0,6,7
 201 -10 201 -10 132 43 c 1,8,-1
 76 -9 l 1,9,-1
 18 53 l 1,10,-1
 76 107 l 1,11,12
 38 169 38 169 38 255 c 0,13,14
 38 335 38 335 71.5 397 c 128,-1,15
 105 459 105 459 165 493 c 128,-1,16
 225 527 225 527 301 527 c 0,17,18
 401 527 401 527 469 472 c 1,19,-1
 526 525 l 1,20,-1
 583 463 l 1,21,-1
 524 408 l 1,0,1
227 247 m 1,22,-1
 351 363 l 1,23,24
 333 388 333 388 301 388 c 0,25,26
 227 388 227 388 227 262 c 2,27,-1
 227 247 l 1,22,-1
374 268 m 1,28,-1
 252 155 l 1,29,30
 270 131 270 131 301 131 c 0,31,32
 343 131 343 131 358.5 170 c 128,-1,33
 374 209 374 209 374 262 c 2,34,-1
 374 268 l 1,28,-1
EndSplineSet
EndChar

StartChar: ugrave
Encoding: 249 249 186
Width: 625
GlyphClass: 2
Flags: W
AnchorPoint: "Anchor-5" 0 0 basechar 0
AnchorPoint: "Anchor-4" 313 0 basechar 0
AnchorPoint: "Anchor-3" 312 517 basechar 0
AnchorPoint: "Anchor-2" 538 10 basechar 0
LayerCount: 2
Fore
SplineSet
158.5 10 m 128,-1,1
 114 30 114 30 85 67 c 128,-1,2
 56 104 56 104 56 153 c 2,3,-1
 56 517 l 1,4,-1
 251 517 l 1,5,-1
 251 180 l 2,6,7
 251 157 251 157 267 142 c 128,-1,8
 283 127 283 127 311 127 c 128,-1,9
 339 127 339 127 355.5 142 c 128,-1,10
 372 157 372 157 372 180 c 2,11,-1
 372 517 l 1,12,-1
 569 517 l 1,13,-1
 565 0 l 1,14,-1
 421 0 l 1,15,-1
 407 68 l 1,16,17
 383 29 383 29 337 9.5 c 128,-1,18
 291 -10 291 -10 247 -10 c 128,-1,0
 203 -10 203 -10 158.5 10 c 128,-1,1
462 628 m 1,19,-1
 436 551 l 1,20,-1
 159 617 l 1,21,-1
 201 735 l 1,22,-1
 462 628 l 1,19,-1
EndSplineSet
EndChar

StartChar: uacute
Encoding: 250 250 187
Width: 625
GlyphClass: 2
Flags: W
AnchorPoint: "Anchor-5" 0 0 basechar 0
AnchorPoint: "Anchor-4" 313 0 basechar 0
AnchorPoint: "Anchor-3" 312 517 basechar 0
AnchorPoint: "Anchor-2" 538 10 basechar 0
LayerCount: 2
Fore
SplineSet
158.5 10 m 128,-1,1
 114 30 114 30 85 67 c 128,-1,2
 56 104 56 104 56 153 c 2,3,-1
 56 517 l 1,4,-1
 251 517 l 1,5,-1
 251 180 l 2,6,7
 251 157 251 157 267 142 c 128,-1,8
 283 127 283 127 311 127 c 128,-1,9
 339 127 339 127 355.5 142 c 128,-1,10
 372 157 372 157 372 180 c 2,11,-1
 372 517 l 1,12,-1
 569 517 l 1,13,-1
 565 0 l 1,14,-1
 421 0 l 1,15,-1
 407 68 l 1,16,17
 383 29 383 29 337 9.5 c 128,-1,18
 291 -10 291 -10 247 -10 c 128,-1,0
 203 -10 203 -10 158.5 10 c 128,-1,1
465 617 m 1,19,-1
 188 551 l 1,20,-1
 162 628 l 1,21,-1
 424 735 l 1,22,-1
 465 617 l 1,19,-1
EndSplineSet
EndChar

StartChar: ucircumflex
Encoding: 251 251 188
Width: 625
GlyphClass: 2
Flags: W
AnchorPoint: "Anchor-5" 0 0 basechar 0
AnchorPoint: "Anchor-4" 313 0 basechar 0
AnchorPoint: "Anchor-3" 312 517 basechar 0
AnchorPoint: "Anchor-2" 538 10 basechar 0
LayerCount: 2
Fore
SplineSet
158.5 10 m 128,-1,1
 114 30 114 30 85 67 c 128,-1,2
 56 104 56 104 56 153 c 2,3,-1
 56 517 l 1,4,-1
 251 517 l 1,5,-1
 251 180 l 2,6,7
 251 157 251 157 267 142 c 128,-1,8
 283 127 283 127 311 127 c 128,-1,9
 339 127 339 127 355.5 142 c 128,-1,10
 372 157 372 157 372 180 c 2,11,-1
 372 517 l 1,12,-1
 569 517 l 1,13,-1
 565 0 l 1,14,-1
 421 0 l 1,15,-1
 407 68 l 1,16,17
 383 29 383 29 337 9.5 c 128,-1,18
 291 -10 291 -10 247 -10 c 128,-1,0
 203 -10 203 -10 158.5 10 c 128,-1,1
311 662 m 1,19,-1
 240 580 l 1,20,-1
 108 580 l 1,21,-1
 246 733 l 1,22,-1
 378 733 l 1,23,-1
 512 580 l 1,24,-1
 373 580 l 1,25,-1
 311 662 l 1,19,-1
EndSplineSet
EndChar

StartChar: udieresis
Encoding: 252 252 189
Width: 625
GlyphClass: 2
Flags: W
AnchorPoint: "Anchor-5" 0 0 basechar 0
AnchorPoint: "Anchor-4" 313 0 basechar 0
AnchorPoint: "Anchor-3" 312 517 basechar 0
AnchorPoint: "Anchor-2" 538 10 basechar 0
LayerCount: 2
Fore
SplineSet
158.5 10 m 128,-1,1
 114 30 114 30 85 67 c 128,-1,2
 56 104 56 104 56 153 c 2,3,-1
 56 517 l 1,4,-1
 251 517 l 1,5,-1
 251 180 l 2,6,7
 251 157 251 157 267 142 c 128,-1,8
 283 127 283 127 311 127 c 128,-1,9
 339 127 339 127 355.5 142 c 128,-1,10
 372 157 372 157 372 180 c 2,11,-1
 372 517 l 1,12,-1
 569 517 l 1,13,-1
 565 0 l 1,14,-1
 421 0 l 1,15,-1
 407 68 l 1,16,17
 383 29 383 29 337 9.5 c 128,-1,18
 291 -10 291 -10 247 -10 c 128,-1,0
 203 -10 203 -10 158.5 10 c 128,-1,1
278 584 m 1,19,-1
 112 584 l 1,20,-1
 112 723 l 1,21,-1
 278 723 l 1,22,-1
 278 584 l 1,19,-1
512 584 m 1,23,-1
 346 584 l 1,24,-1
 346 723 l 1,25,-1
 512 723 l 1,26,-1
 512 584 l 1,23,-1
EndSplineSet
EndChar

StartChar: yacute
Encoding: 253 253 190
Width: 603
GlyphClass: 2
Flags: W
AnchorPoint: "Anchor-5" 0 0 basechar 0
AnchorPoint: "Anchor-4" 0 0 basechar 0
AnchorPoint: "Anchor-3" 326 517 basechar 0
AnchorPoint: "Anchor-2" 0 0 basechar 0
LayerCount: 2
Fore
SplineSet
105 -160 m 128,-1,1
 80 -155 80 -155 68 -150 c 128,-1,2
 56 -145 56 -145 53 -143 c 2,3,-1
 53 -20 l 1,4,-1
 103 -23 l 2,5,6
 111 -24 111 -24 126 -24 c 0,7,8
 161 -24 161 -24 179.5 -15.5 c 128,-1,9
 198 -7 198 -7 202.5 1 c 128,-1,10
 207 9 207 9 211 20 c 2,11,-1
 213 30 l 1,12,-1
 12 517 l 1,13,-1
 203 517 l 1,14,-1
 301 236 l 1,15,-1
 403 517 l 1,16,-1
 593 517 l 1,17,-1
 391 30 l 2,18,19
 359 -49 359 -49 324.5 -91.5 c 128,-1,20
 290 -134 290 -134 252.5 -149.5 c 128,-1,21
 215 -165 215 -165 166 -165 c 0,22,0
 130 -165 130 -165 105 -160 c 128,-1,1
479 617 m 1,23,-1
 202 551 l 1,24,-1
 176 628 l 1,25,-1
 438 735 l 1,26,-1
 479 617 l 1,23,-1
EndSplineSet
EndChar

StartChar: thorn
Encoding: 254 254 191
Width: 618
GlyphClass: 2
Flags: W
LayerCount: 2
Fore
SplineSet
252 457 m 1,0,1
 285 492 285 492 320 509.5 c 128,-1,2
 355 527 355 527 403 527 c 0,3,4
 488 527 488 527 541 459.5 c 128,-1,5
 594 392 594 392 594 260 c 0,6,7
 594 121 594 121 539.5 55.5 c 128,-1,8
 485 -10 485 -10 396 -10 c 0,9,10
 360 -10 360 -10 330 1 c 128,-1,11
 300 12 300 12 271 40 c 0,12,13
 260 50 260 50 256 50 c 0,14,15
 251 50 251 50 251 35 c 2,16,-1
 251 -161 l 1,17,-1
 56 -161 l 1,18,-1
 56 723 l 1,19,-1
 252 723 l 1,20,-1
 252 457 l 1,0,1
319 108 m 0,21,22
 358 108 358 108 377.5 142.5 c 128,-1,23
 397 177 397 177 397 266 c 0,24,25
 397 347 397 347 378 378 c 128,-1,26
 359 409 359 409 319 409 c 0,27,28
 290 409 290 409 270.5 393 c 128,-1,29
 251 377 251 377 251 354 c 2,30,-1
 251 147 l 1,31,32
 278 108 278 108 319 108 c 0,21,22
EndSplineSet
EndChar

StartChar: ydieresis
Encoding: 255 255 192
Width: 603
GlyphClass: 2
Flags: W
AnchorPoint: "Anchor-5" 0 0 basechar 0
AnchorPoint: "Anchor-4" 0 0 basechar 0
AnchorPoint: "Anchor-3" 326 517 basechar 0
AnchorPoint: "Anchor-2" 0 0 basechar 0
LayerCount: 2
Fore
SplineSet
105 -160 m 128,-1,1
 80 -155 80 -155 68 -150 c 128,-1,2
 56 -145 56 -145 53 -143 c 2,3,-1
 53 -20 l 1,4,-1
 103 -23 l 2,5,6
 111 -24 111 -24 126 -24 c 0,7,8
 161 -24 161 -24 179.5 -15.5 c 128,-1,9
 198 -7 198 -7 202.5 1 c 128,-1,10
 207 9 207 9 211 20 c 2,11,-1
 213 30 l 1,12,-1
 12 517 l 1,13,-1
 203 517 l 1,14,-1
 301 236 l 1,15,-1
 403 517 l 1,16,-1
 593 517 l 1,17,-1
 391 30 l 2,18,19
 359 -49 359 -49 324.5 -91.5 c 128,-1,20
 290 -134 290 -134 252.5 -149.5 c 128,-1,21
 215 -165 215 -165 166 -165 c 0,22,0
 130 -165 130 -165 105 -160 c 128,-1,1
292 584 m 1,23,-1
 126 584 l 1,24,-1
 126 723 l 1,25,-1
 292 723 l 1,26,-1
 292 584 l 1,23,-1
526 584 m 1,27,-1
 360 584 l 1,28,-1
 360 723 l 1,29,-1
 526 723 l 1,30,-1
 526 584 l 1,27,-1
EndSplineSet
EndChar

StartChar: Amacron
Encoding: 256 256 193
Width: 724
GlyphClass: 2
Flags: W
AnchorPoint: "Anchor-5" 0 0 basechar 0
AnchorPoint: "Anchor-4" 0 0 basechar 0
AnchorPoint: "Anchor-3" 377 723 basechar 0
AnchorPoint: "Anchor-2" 720 9 basechar 0
LayerCount: 2
Fore
SplineSet
263 723 m 1,0,-1
 462 723 l 1,1,-1
 718 0 l 1,2,-1
 526 0 l 1,3,-1
 478 140 l 1,4,-1
 250 140 l 1,5,-1
 201 0 l 1,6,-1
 7 0 l 1,7,-1
 263 723 l 1,0,-1
434 306 m 1,8,-1
 363 537 l 1,9,-1
 291 306 l 1,10,-1
 434 306 l 1,8,-1
577 810 m 1,11,-1
 177 810 l 1,12,-1
 177 929 l 1,13,-1
 577 929 l 1,14,-1
 577 810 l 1,11,-1
EndSplineSet
EndChar

StartChar: amacron
Encoding: 257 257 194
Width: 582
GlyphClass: 2
Flags: W
AnchorPoint: "Anchor-5" 0 0 basechar 0
AnchorPoint: "Anchor-4" 0 0 basechar 0
AnchorPoint: "Anchor-3" 292 517 basechar 0
AnchorPoint: "Anchor-2" 498 10 basechar 0
LayerCount: 2
Fore
SplineSet
76 34 m 128,-1,1
 25 78 25 78 25 155 c 0,2,3
 25 241 25 241 93.5 286.5 c 128,-1,4
 162 332 162 332 300 332 c 2,5,-1
 340 332 l 1,6,-1
 340 354 l 2,7,8
 340 401 340 401 287 401 c 0,9,10
 261 401 261 401 237.5 391 c 128,-1,11
 214 381 214 381 203 356 c 1,12,-1
 45 356 l 1,13,14
 49 443 49 443 117 485 c 128,-1,15
 185 527 185 527 292 527 c 0,16,17
 420 527 420 527 473 485 c 128,-1,18
 526 443 526 443 526 366 c 2,19,-1
 526 0 l 1,20,-1
 365 0 l 1,21,-1
 350 60 l 1,22,23
 334 29 334 29 294.5 9.5 c 128,-1,24
 255 -10 255 -10 204 -10 c 0,25,0
 127 -10 127 -10 76 34 c 128,-1,1
319.5 131.5 m 128,-1,27
 339 150 339 150 340 175 c 2,28,-1
 340 236 l 1,29,-1
 309 236 l 2,30,31
 274 236 274 236 241 222 c 128,-1,32
 208 208 208 208 208 175 c 0,33,34
 208 147 208 147 227 130 c 128,-1,35
 246 113 246 113 272 113 c 0,36,26
 300 113 300 113 319.5 131.5 c 128,-1,27
492 604 m 1,37,-1
 92 604 l 1,38,-1
 92 723 l 1,39,-1
 492 723 l 1,40,-1
 492 604 l 1,37,-1
EndSplineSet
EndChar

StartChar: Abreve
Encoding: 258 258 195
Width: 724
GlyphClass: 2
Flags: W
AnchorPoint: "Anchor-5" 0 0 basechar 0
AnchorPoint: "Anchor-4" 0 0 basechar 0
AnchorPoint: "Anchor-3" 377 723 basechar 0
AnchorPoint: "Anchor-2" 720 9 basechar 0
LayerCount: 2
Fore
SplineSet
263 723 m 1,0,-1
 462 723 l 1,1,-1
 718 0 l 1,2,-1
 526 0 l 1,3,-1
 478 140 l 1,4,-1
 250 140 l 1,5,-1
 201 0 l 1,6,-1
 7 0 l 1,7,-1
 263 723 l 1,0,-1
434 306 m 1,8,-1
 363 537 l 1,9,-1
 291 306 l 1,10,-1
 434 306 l 1,8,-1
500 821 m 128,-1,12
 447 784 447 784 378 784 c 128,-1,13
 309 784 309 784 255 820.5 c 128,-1,14
 201 857 201 857 180 929 c 1,15,-1
 285 929 l 1,16,17
 299 903 299 903 325 887 c 128,-1,18
 351 871 351 871 378 871 c 0,19,20
 403 871 403 871 429 887 c 128,-1,21
 455 903 455 903 468 929 c 1,22,-1
 574 929 l 1,23,11
 553 858 553 858 500 821 c 128,-1,12
EndSplineSet
EndChar

StartChar: abreve
Encoding: 259 259 196
Width: 582
GlyphClass: 2
Flags: W
AnchorPoint: "Anchor-5" 0 0 basechar 0
AnchorPoint: "Anchor-4" 0 0 basechar 0
AnchorPoint: "Anchor-3" 292 517 basechar 0
AnchorPoint: "Anchor-2" 498 10 basechar 0
LayerCount: 2
Fore
SplineSet
76 34 m 128,-1,1
 25 78 25 78 25 155 c 0,2,3
 25 241 25 241 93.5 286.5 c 128,-1,4
 162 332 162 332 300 332 c 2,5,-1
 340 332 l 1,6,-1
 340 354 l 2,7,8
 340 401 340 401 287 401 c 0,9,10
 261 401 261 401 237.5 391 c 128,-1,11
 214 381 214 381 203 356 c 1,12,-1
 45 356 l 1,13,14
 49 443 49 443 117 485 c 128,-1,15
 185 527 185 527 292 527 c 0,16,17
 420 527 420 527 473 485 c 128,-1,18
 526 443 526 443 526 366 c 2,19,-1
 526 0 l 1,20,-1
 365 0 l 1,21,-1
 350 60 l 1,22,23
 334 29 334 29 294.5 9.5 c 128,-1,24
 255 -10 255 -10 204 -10 c 0,25,0
 127 -10 127 -10 76 34 c 128,-1,1
319.5 131.5 m 128,-1,27
 339 150 339 150 340 175 c 2,28,-1
 340 236 l 1,29,-1
 309 236 l 2,30,31
 274 236 274 236 241 222 c 128,-1,32
 208 208 208 208 208 175 c 0,33,34
 208 147 208 147 227 130 c 128,-1,35
 246 113 246 113 272 113 c 0,36,26
 300 113 300 113 319.5 131.5 c 128,-1,27
415 615 m 128,-1,38
 362 578 362 578 293 578 c 128,-1,39
 224 578 224 578 170 614.5 c 128,-1,40
 116 651 116 651 95 723 c 1,41,-1
 200 723 l 1,42,43
 214 697 214 697 240 681 c 128,-1,44
 266 665 266 665 293 665 c 0,45,46
 318 665 318 665 344 681 c 128,-1,47
 370 697 370 697 383 723 c 1,48,-1
 489 723 l 1,49,37
 468 652 468 652 415 615 c 128,-1,38
EndSplineSet
EndChar

StartChar: Aogonek
Encoding: 260 260 197
Width: 724
GlyphClass: 2
Flags: W
AnchorPoint: "Anchor-5" 0 0 basechar 0
AnchorPoint: "Anchor-4" 0 0 basechar 0
AnchorPoint: "Anchor-3" 377 723 basechar 0
AnchorPoint: "Anchor-2" 720 9 basechar 0
LayerCount: 2
Fore
SplineSet
263 723 m 1,0,-1
 462 723 l 1,1,-1
 718 0 l 1,2,-1
 526 0 l 1,3,-1
 478 140 l 1,4,-1
 250 140 l 1,5,-1
 201 0 l 1,6,-1
 7 0 l 1,7,-1
 263 723 l 1,0,-1
434 306 m 1,8,-1
 363 537 l 1,9,-1
 291 306 l 1,10,-1
 434 306 l 1,8,-1
537 -36 m 128,-1,12
 556 -14 556 -14 609 5 c 1,13,-1
 742 5 l 1,14,15
 690 -12 690 -12 671 -26.5 c 128,-1,16
 652 -41 652 -41 652 -59 c 0,17,18
 652 -87 652 -87 679 -87 c 0,19,20
 694 -87 694 -87 705.5 -83 c 128,-1,21
 717 -79 717 -79 734 -71 c 0,22,23
 740 -68 740 -68 744 -68 c 0,24,25
 752 -68 752 -68 752 -82 c 2,26,-1
 752 -133 l 2,27,28
 752 -144 752 -144 742 -150 c 0,29,30
 727 -158 727 -158 697.5 -164.5 c 128,-1,31
 668 -171 668 -171 636 -171 c 0,32,33
 581 -171 581 -171 549.5 -149.5 c 128,-1,34
 518 -128 518 -128 518 -86 c 0,35,11
 518 -58 518 -58 537 -36 c 128,-1,12
EndSplineSet
EndChar

StartChar: aogonek
Encoding: 261 261 198
Width: 582
GlyphClass: 2
Flags: W
AnchorPoint: "Anchor-5" 0 0 basechar 0
AnchorPoint: "Anchor-4" 0 0 basechar 0
AnchorPoint: "Anchor-3" 292 517 basechar 0
AnchorPoint: "Anchor-2" 498 10 basechar 0
LayerCount: 2
Fore
SplineSet
76 34 m 128,-1,1
 25 78 25 78 25 155 c 0,2,3
 25 241 25 241 93.5 286.5 c 128,-1,4
 162 332 162 332 300 332 c 2,5,-1
 340 332 l 1,6,-1
 340 354 l 2,7,8
 340 401 340 401 287 401 c 0,9,10
 261 401 261 401 237.5 391 c 128,-1,11
 214 381 214 381 203 356 c 1,12,-1
 45 356 l 1,13,14
 49 443 49 443 117 485 c 128,-1,15
 185 527 185 527 292 527 c 0,16,17
 420 527 420 527 473 485 c 128,-1,18
 526 443 526 443 526 366 c 2,19,-1
 526 0 l 1,20,-1
 365 0 l 1,21,-1
 350 60 l 1,22,23
 334 29 334 29 294.5 9.5 c 128,-1,24
 255 -10 255 -10 204 -10 c 0,25,0
 127 -10 127 -10 76 34 c 128,-1,1
319.5 131.5 m 128,-1,27
 339 150 339 150 340 175 c 2,28,-1
 340 236 l 1,29,-1
 309 236 l 2,30,31
 274 236 274 236 241 222 c 128,-1,32
 208 208 208 208 208 175 c 0,33,34
 208 147 208 147 227 130 c 128,-1,35
 246 113 246 113 272 113 c 0,36,26
 300 113 300 113 319.5 131.5 c 128,-1,27
315 -35 m 128,-1,38
 334 -13 334 -13 387 6 c 1,39,-1
 520 6 l 1,40,41
 468 -11 468 -11 449 -25.5 c 128,-1,42
 430 -40 430 -40 430 -58 c 0,43,44
 430 -86 430 -86 457 -86 c 0,45,46
 472 -86 472 -86 483.5 -82 c 128,-1,47
 495 -78 495 -78 512 -70 c 0,48,49
 518 -67 518 -67 522 -67 c 0,50,51
 530 -67 530 -67 530 -81 c 2,52,-1
 530 -132 l 2,53,54
 530 -143 530 -143 520 -149 c 0,55,56
 505 -157 505 -157 475.5 -163.5 c 128,-1,57
 446 -170 446 -170 414 -170 c 0,58,59
 359 -170 359 -170 327.5 -148.5 c 128,-1,60
 296 -127 296 -127 296 -85 c 0,61,37
 296 -57 296 -57 315 -35 c 128,-1,38
EndSplineSet
EndChar

StartChar: Cacute
Encoding: 262 262 199
Width: 732
GlyphClass: 2
Flags: W
AnchorPoint: "Anchor-5" 0 0 basechar 0
AnchorPoint: "Anchor-4" 382 0 basechar 0
AnchorPoint: "Anchor-3" 382 723 basechar 0
AnchorPoint: "Anchor-2" 0 0 basechar 0
LayerCount: 2
Fore
SplineSet
535.5 699.5 m 128,-1,1
 604 666 604 666 646 605.5 c 128,-1,2
 688 545 688 545 696 468 c 1,3,-1
 493 468 l 1,4,5
 485 519 485 519 454.5 548 c 128,-1,6
 424 577 424 577 375 577 c 0,7,8
 316 577 316 577 282.5 529 c 128,-1,9
 249 481 249 481 249 368 c 0,10,11
 249 253 249 253 283 199.5 c 128,-1,12
 317 146 317 146 375 146 c 0,13,14
 423 146 423 146 453.5 181 c 128,-1,15
 484 216 484 216 493 270 c 1,16,-1
 696 270 l 1,17,18
 679 140 679 140 610 65 c 128,-1,19
 541 -10 541 -10 382 -10 c 0,20,21
 279 -10 279 -10 200.5 39 c 128,-1,22
 122 88 122 88 79 175 c 128,-1,23
 36 262 36 262 36 371 c 128,-1,24
 36 480 36 480 78.5 562 c 128,-1,25
 121 644 121 644 199 688.5 c 128,-1,26
 277 733 277 733 382 733 c 0,27,0
 467 733 467 733 535.5 699.5 c 128,-1,1
535 823 m 1,28,-1
 258 757 l 1,29,-1
 232 834 l 1,30,-1
 494 941 l 1,31,-1
 535 823 l 1,28,-1
EndSplineSet
EndChar

StartChar: cacute
Encoding: 263 263 200
Width: 535
GlyphClass: 2
Flags: W
AnchorPoint: "Anchor-5" 0 0 basechar 0
AnchorPoint: "Anchor-4" 284 0 basechar 0
AnchorPoint: "Anchor-3" 285 517 basechar 0
AnchorPoint: "Anchor-2" 0 0 basechar 0
LayerCount: 2
Fore
SplineSet
406 496.5 m 128,-1,1
 457 466 457 466 483.5 416 c 128,-1,2
 510 366 510 366 512 306 c 1,3,-1
 354 306 l 1,4,5
 350 336 350 336 334.5 359.5 c 128,-1,6
 319 383 319 383 286 383 c 0,7,8
 248 383 248 383 225.5 351 c 128,-1,9
 203 319 203 319 203 258 c 0,10,11
 203 196 203 196 227.5 160 c 128,-1,12
 252 124 252 124 290 124 c 0,13,14
 322 124 322 124 337 149 c 128,-1,15
 352 174 352 174 356 200 c 1,16,-1
 509 200 l 1,17,18
 509 144 509 144 482 96 c 128,-1,19
 455 48 455 48 404 19 c 128,-1,20
 353 -10 353 -10 285 -10 c 0,21,22
 211 -10 211 -10 151.5 23.5 c 128,-1,23
 92 57 92 57 58 117.5 c 128,-1,24
 24 178 24 178 24 256 c 0,25,26
 24 335 24 335 58 396.5 c 128,-1,27
 92 458 92 458 151.5 492.5 c 128,-1,28
 211 527 211 527 285 527 c 0,29,0
 355 527 355 527 406 496.5 c 128,-1,1
438 617 m 1,30,-1
 161 551 l 1,31,-1
 135 628 l 1,32,-1
 397 735 l 1,33,-1
 438 617 l 1,30,-1
EndSplineSet
EndChar

StartChar: Ccircumflex
Encoding: 264 264 201
Width: 732
GlyphClass: 2
Flags: W
AnchorPoint: "Anchor-5" 0 0 basechar 0
AnchorPoint: "Anchor-4" 382 0 basechar 0
AnchorPoint: "Anchor-3" 382 723 basechar 0
AnchorPoint: "Anchor-2" 0 0 basechar 0
LayerCount: 2
Fore
SplineSet
535.5 699.5 m 128,-1,1
 604 666 604 666 646 605.5 c 128,-1,2
 688 545 688 545 696 468 c 1,3,-1
 493 468 l 1,4,5
 485 519 485 519 454.5 548 c 128,-1,6
 424 577 424 577 375 577 c 0,7,8
 316 577 316 577 282.5 529 c 128,-1,9
 249 481 249 481 249 368 c 0,10,11
 249 253 249 253 283 199.5 c 128,-1,12
 317 146 317 146 375 146 c 0,13,14
 423 146 423 146 453.5 181 c 128,-1,15
 484 216 484 216 493 270 c 1,16,-1
 696 270 l 1,17,18
 679 140 679 140 610 65 c 128,-1,19
 541 -10 541 -10 382 -10 c 0,20,21
 279 -10 279 -10 200.5 39 c 128,-1,22
 122 88 122 88 79 175 c 128,-1,23
 36 262 36 262 36 371 c 128,-1,24
 36 480 36 480 78.5 562 c 128,-1,25
 121 644 121 644 199 688.5 c 128,-1,26
 277 733 277 733 382 733 c 0,27,0
 467 733 467 733 535.5 699.5 c 128,-1,1
381 868 m 1,28,-1
 310 786 l 1,29,-1
 178 786 l 1,30,-1
 316 939 l 1,31,-1
 448 939 l 1,32,-1
 582 786 l 1,33,-1
 443 786 l 1,34,-1
 381 868 l 1,28,-1
EndSplineSet
EndChar

StartChar: ccircumflex
Encoding: 265 265 202
Width: 535
GlyphClass: 2
Flags: W
AnchorPoint: "Anchor-5" 0 0 basechar 0
AnchorPoint: "Anchor-4" 284 0 basechar 0
AnchorPoint: "Anchor-3" 285 517 basechar 0
AnchorPoint: "Anchor-2" 0 0 basechar 0
LayerCount: 2
Fore
SplineSet
406 496.5 m 128,-1,1
 457 466 457 466 483.5 416 c 128,-1,2
 510 366 510 366 512 306 c 1,3,-1
 354 306 l 1,4,5
 350 336 350 336 334.5 359.5 c 128,-1,6
 319 383 319 383 286 383 c 0,7,8
 248 383 248 383 225.5 351 c 128,-1,9
 203 319 203 319 203 258 c 0,10,11
 203 196 203 196 227.5 160 c 128,-1,12
 252 124 252 124 290 124 c 0,13,14
 322 124 322 124 337 149 c 128,-1,15
 352 174 352 174 356 200 c 1,16,-1
 509 200 l 1,17,18
 509 144 509 144 482 96 c 128,-1,19
 455 48 455 48 404 19 c 128,-1,20
 353 -10 353 -10 285 -10 c 0,21,22
 211 -10 211 -10 151.5 23.5 c 128,-1,23
 92 57 92 57 58 117.5 c 128,-1,24
 24 178 24 178 24 256 c 0,25,26
 24 335 24 335 58 396.5 c 128,-1,27
 92 458 92 458 151.5 492.5 c 128,-1,28
 211 527 211 527 285 527 c 0,29,0
 355 527 355 527 406 496.5 c 128,-1,1
284 662 m 1,30,-1
 213 580 l 1,31,-1
 81 580 l 1,32,-1
 219 733 l 1,33,-1
 351 733 l 1,34,-1
 485 580 l 1,35,-1
 346 580 l 1,36,-1
 284 662 l 1,30,-1
EndSplineSet
EndChar

StartChar: Cdotaccent
Encoding: 266 266 203
Width: 732
GlyphClass: 2
Flags: W
AnchorPoint: "Anchor-5" 0 0 basechar 0
AnchorPoint: "Anchor-4" 382 0 basechar 0
AnchorPoint: "Anchor-3" 382 723 basechar 0
AnchorPoint: "Anchor-2" 0 0 basechar 0
LayerCount: 2
Fore
SplineSet
535.5 699.5 m 128,-1,1
 604 666 604 666 646 605.5 c 128,-1,2
 688 545 688 545 696 468 c 1,3,-1
 493 468 l 1,4,5
 485 519 485 519 454.5 548 c 128,-1,6
 424 577 424 577 375 577 c 0,7,8
 316 577 316 577 282.5 529 c 128,-1,9
 249 481 249 481 249 368 c 0,10,11
 249 253 249 253 283 199.5 c 128,-1,12
 317 146 317 146 375 146 c 0,13,14
 423 146 423 146 453.5 181 c 128,-1,15
 484 216 484 216 493 270 c 1,16,-1
 696 270 l 1,17,18
 679 140 679 140 610 65 c 128,-1,19
 541 -10 541 -10 382 -10 c 0,20,21
 279 -10 279 -10 200.5 39 c 128,-1,22
 122 88 122 88 79 175 c 128,-1,23
 36 262 36 262 36 371 c 128,-1,24
 36 480 36 480 78.5 562 c 128,-1,25
 121 644 121 644 199 688.5 c 128,-1,26
 277 733 277 733 382 733 c 0,27,0
 467 733 467 733 535.5 699.5 c 128,-1,1
480 766 m 1,28,-1
 285 766 l 1,29,-1
 285 929 l 1,30,-1
 480 929 l 1,31,-1
 480 766 l 1,28,-1
EndSplineSet
EndChar

StartChar: cdotaccent
Encoding: 267 267 204
Width: 535
GlyphClass: 2
Flags: W
AnchorPoint: "Anchor-5" 0 0 basechar 0
AnchorPoint: "Anchor-4" 284 0 basechar 0
AnchorPoint: "Anchor-3" 285 517 basechar 0
AnchorPoint: "Anchor-2" 0 0 basechar 0
LayerCount: 2
Fore
SplineSet
406 496.5 m 128,-1,1
 457 466 457 466 483.5 416 c 128,-1,2
 510 366 510 366 512 306 c 1,3,-1
 354 306 l 1,4,5
 350 336 350 336 334.5 359.5 c 128,-1,6
 319 383 319 383 286 383 c 0,7,8
 248 383 248 383 225.5 351 c 128,-1,9
 203 319 203 319 203 258 c 0,10,11
 203 196 203 196 227.5 160 c 128,-1,12
 252 124 252 124 290 124 c 0,13,14
 322 124 322 124 337 149 c 128,-1,15
 352 174 352 174 356 200 c 1,16,-1
 509 200 l 1,17,18
 509 144 509 144 482 96 c 128,-1,19
 455 48 455 48 404 19 c 128,-1,20
 353 -10 353 -10 285 -10 c 0,21,22
 211 -10 211 -10 151.5 23.5 c 128,-1,23
 92 57 92 57 58 117.5 c 128,-1,24
 24 178 24 178 24 256 c 0,25,26
 24 335 24 335 58 396.5 c 128,-1,27
 92 458 92 458 151.5 492.5 c 128,-1,28
 211 527 211 527 285 527 c 0,29,0
 355 527 355 527 406 496.5 c 128,-1,1
383 560 m 1,30,-1
 188 560 l 1,31,-1
 188 723 l 1,32,-1
 383 723 l 1,33,-1
 383 560 l 1,30,-1
EndSplineSet
EndChar

StartChar: Ccaron
Encoding: 268 268 205
Width: 732
GlyphClass: 2
Flags: W
AnchorPoint: "Anchor-5" 0 0 basechar 0
AnchorPoint: "Anchor-4" 382 0 basechar 0
AnchorPoint: "Anchor-3" 382 723 basechar 0
AnchorPoint: "Anchor-2" 0 0 basechar 0
LayerCount: 2
Fore
SplineSet
535.5 699.5 m 128,-1,1
 604 666 604 666 646 605.5 c 128,-1,2
 688 545 688 545 696 468 c 1,3,-1
 493 468 l 1,4,5
 485 519 485 519 454.5 548 c 128,-1,6
 424 577 424 577 375 577 c 0,7,8
 316 577 316 577 282.5 529 c 128,-1,9
 249 481 249 481 249 368 c 0,10,11
 249 253 249 253 283 199.5 c 128,-1,12
 317 146 317 146 375 146 c 0,13,14
 423 146 423 146 453.5 181 c 128,-1,15
 484 216 484 216 493 270 c 1,16,-1
 696 270 l 1,17,18
 679 140 679 140 610 65 c 128,-1,19
 541 -10 541 -10 382 -10 c 0,20,21
 279 -10 279 -10 200.5 39 c 128,-1,22
 122 88 122 88 79 175 c 128,-1,23
 36 262 36 262 36 371 c 128,-1,24
 36 480 36 480 78.5 562 c 128,-1,25
 121 644 121 644 199 688.5 c 128,-1,26
 277 733 277 733 382 733 c 0,27,0
 467 733 467 733 535.5 699.5 c 128,-1,1
582 930 m 1,28,-1
 448 776 l 1,29,-1
 315 776 l 1,30,-1
 178 930 l 1,31,-1
 310 930 l 1,32,-1
 381 848 l 1,33,-1
 443 930 l 1,34,-1
 582 930 l 1,28,-1
EndSplineSet
EndChar

StartChar: ccaron
Encoding: 269 269 206
Width: 535
GlyphClass: 2
Flags: W
AnchorPoint: "Anchor-5" 0 0 basechar 0
AnchorPoint: "Anchor-4" 284 0 basechar 0
AnchorPoint: "Anchor-3" 285 517 basechar 0
AnchorPoint: "Anchor-2" 0 0 basechar 0
LayerCount: 2
Fore
SplineSet
406 496.5 m 128,-1,1
 457 466 457 466 483.5 416 c 128,-1,2
 510 366 510 366 512 306 c 1,3,-1
 354 306 l 1,4,5
 350 336 350 336 334.5 359.5 c 128,-1,6
 319 383 319 383 286 383 c 0,7,8
 248 383 248 383 225.5 351 c 128,-1,9
 203 319 203 319 203 258 c 0,10,11
 203 196 203 196 227.5 160 c 128,-1,12
 252 124 252 124 290 124 c 0,13,14
 322 124 322 124 337 149 c 128,-1,15
 352 174 352 174 356 200 c 1,16,-1
 509 200 l 1,17,18
 509 144 509 144 482 96 c 128,-1,19
 455 48 455 48 404 19 c 128,-1,20
 353 -10 353 -10 285 -10 c 0,21,22
 211 -10 211 -10 151.5 23.5 c 128,-1,23
 92 57 92 57 58 117.5 c 128,-1,24
 24 178 24 178 24 256 c 0,25,26
 24 335 24 335 58 396.5 c 128,-1,27
 92 458 92 458 151.5 492.5 c 128,-1,28
 211 527 211 527 285 527 c 0,29,0
 355 527 355 527 406 496.5 c 128,-1,1
485 724 m 1,30,-1
 351 570 l 1,31,-1
 218 570 l 1,32,-1
 81 724 l 1,33,-1
 213 724 l 1,34,-1
 284 642 l 1,35,-1
 346 724 l 1,36,-1
 485 724 l 1,30,-1
EndSplineSet
EndChar

StartChar: Dcaron
Encoding: 270 270 207
Width: 735
GlyphClass: 2
Flags: W
AnchorPoint: "Anchor-5" 0 0 basechar 0
AnchorPoint: "Anchor-4" 0 0 basechar 0
AnchorPoint: "Anchor-3" 369 723 basechar 0
AnchorPoint: "Anchor-2" 0 0 basechar 0
LayerCount: 2
Fore
SplineSet
179 723 m 2,0,1
 294 723 294 723 325 722 c 0,2,3
 514 715 514 715 606.5 620 c 128,-1,4
 699 525 699 525 699 364 c 0,5,6
 699 256 699 256 658 174 c 128,-1,7
 617 92 617 92 532.5 46 c 128,-1,8
 448 0 448 0 324 0 c 2,9,-1
 65 0 l 1,10,-1
 65 723 l 1,11,-1
 179 723 l 2,0,1
260 153 m 1,12,-1
 330 153 l 2,13,14
 370 153 370 153 408 175 c 128,-1,15
 446 197 446 197 471 245 c 128,-1,16
 496 293 496 293 496 367 c 0,17,18
 496 465 496 465 451 517.5 c 128,-1,19
 406 570 406 570 330 570 c 2,20,-1
 260 570 l 1,21,-1
 260 153 l 1,12,-1
569 930 m 1,22,-1
 435 776 l 1,23,-1
 302 776 l 1,24,-1
 165 930 l 1,25,-1
 297 930 l 1,26,-1
 368 848 l 1,27,-1
 430 930 l 1,28,-1
 569 930 l 1,22,-1
EndSplineSet
EndChar

StartChar: dcaron
Encoding: 271 271 208
Width: 619
GlyphClass: 2
Flags: W
AnchorPoint: "Anchor-5" 576 517 basechar 0
AnchorPoint: "Anchor-4" 297 0 basechar 0
AnchorPoint: "Anchor-3" 0 0 basechar 0
AnchorPoint: "Anchor-2" 0 0 basechar 0
LayerCount: 2
Fore
SplineSet
82 63 m 128,-1,1
 24 136 24 136 24 262 c 0,2,3
 24 385 24 385 77 456 c 128,-1,4
 130 527 130 527 225 527 c 0,5,6
 269 527 269 527 307.5 511 c 128,-1,7
 346 495 346 495 368 458 c 1,8,-1
 368 743 l 1,9,-1
 563 743 l 1,10,-1
 563 0 l 1,11,-1
 425 0 l 1,12,-1
 410 68 l 1,13,14
 389 34 389 34 347 12 c 128,-1,15
 305 -10 305 -10 246 -10 c 0,16,0
 140 -10 140 -10 82 63 c 128,-1,1
347.5 154.5 m 128,-1,18
 368 183 368 183 368 239 c 2,19,-1
 368 284 l 2,20,21
 368 390 368 390 291 390 c 0,22,23
 256 390 256 390 234 362.5 c 128,-1,24
 212 335 212 335 212 264 c 0,25,26
 212 191 212 191 234 158.5 c 128,-1,27
 256 126 256 126 293 126 c 0,28,17
 327 126 327 126 347.5 154.5 c 128,-1,18
474.5 282 m 128,-1,30
 472 287 472 287 474 292 c 2,31,-1
 504 367 l 2,32,33
 507 375 507 375 507 379 c 0,34,35
 507 387 507 387 497 388 c 2,36,-1
 485 390 l 2,37,38
 476 391 476 391 472 394.5 c 128,-1,39
 468 398 468 398 468 406 c 2,40,-1
 468 502 l 2,41,42
 468 517 468 517 481 517 c 2,43,-1
 576 517 l 2,44,45
 589 517 589 517 589 505 c 2,46,-1
 589 390 l 2,47,48
 589 386 589 386 586 380 c 2,49,-1
 549 292 l 2,50,51
 546 284 546 284 539.5 280.5 c 128,-1,52
 533 277 533 277 519 277 c 2,53,-1
 483 277 l 2,54,29
 477 277 477 277 474.5 282 c 128,-1,30
EndSplineSet
EndChar

StartChar: Dcroat
Encoding: 272 272 209
Width: 769
GlyphClass: 2
Flags: W
AnchorPoint: "Anchor-5" 0 0 basechar 0
AnchorPoint: "Anchor-4" 0 0 basechar 0
AnchorPoint: "Anchor-3" 403 723 basechar 0
AnchorPoint: "Anchor-2" 0 0 basechar 0
LayerCount: 2
Fore
SplineSet
640.5 620 m 128,-1,1
 733 525 733 525 733 364 c 0,2,3
 733 256 733 256 692 174 c 128,-1,4
 651 92 651 92 566.5 46 c 128,-1,5
 482 0 482 0 358 0 c 2,6,-1
 99 0 l 1,7,-1
 99 286 l 1,8,-1
 56 286 l 2,9,10
 41 286 41 286 35.5 291.5 c 128,-1,11
 30 297 30 297 30 310 c 2,12,-1
 30 401 l 2,13,14
 30 423 30 423 49 423 c 2,15,-1
 99 423 l 1,16,-1
 99 723 l 1,17,-1
 213 723 l 2,18,19
 328 723 328 723 359 722 c 0,20,0
 548 715 548 715 640.5 620 c 128,-1,1
442 175 m 128,-1,22
 480 197 480 197 505 245 c 128,-1,23
 530 293 530 293 530 367 c 0,24,25
 530 465 530 465 485 517.5 c 128,-1,26
 440 570 440 570 364 570 c 2,27,-1
 294 570 l 1,28,-1
 294 423 l 1,29,-1
 410 423 l 2,30,31
 418 423 418 423 423 417.5 c 128,-1,32
 428 412 428 412 428 404 c 2,33,-1
 428 313 l 2,34,35
 428 298 428 298 420.5 292 c 128,-1,36
 413 286 413 286 396 286 c 2,37,-1
 294 286 l 1,38,-1
 294 153 l 1,39,-1
 364 153 l 2,40,21
 404 153 404 153 442 175 c 128,-1,22
EndSplineSet
EndChar

StartChar: dcroat
Encoding: 273 273 210
Width: 620
GlyphClass: 2
Flags: W
AnchorPoint: "Anchor-5" 576 517 basechar 0
AnchorPoint: "Anchor-4" 297 0 basechar 0
AnchorPoint: "Anchor-3" 0 0 basechar 0
AnchorPoint: "Anchor-2" 0 0 basechar 0
LayerCount: 2
Fore
SplineSet
591 566 m 1,0,-1
 563 566 l 1,1,-1
 563 0 l 1,2,-1
 425 0 l 1,3,-1
 410 68 l 1,4,5
 389 34 389 34 347 12 c 128,-1,6
 305 -10 305 -10 246 -10 c 0,7,8
 140 -10 140 -10 82 63 c 128,-1,9
 24 136 24 136 24 262 c 0,10,11
 24 385 24 385 77 456 c 128,-1,12
 130 527 130 527 225 527 c 0,13,14
 269 527 269 527 307.5 511 c 128,-1,15
 346 495 346 495 368 458 c 1,16,-1
 368 566 l 1,17,-1
 229 566 l 1,18,-1
 229 670 l 1,19,-1
 368 670 l 1,20,-1
 368 743 l 1,21,-1
 563 743 l 1,22,-1
 563 670 l 1,23,-1
 591 670 l 1,24,-1
 591 566 l 1,0,-1
368 284 m 2,25,26
 368 390 368 390 291 390 c 0,27,28
 256 390 256 390 234 362.5 c 128,-1,29
 212 335 212 335 212 264 c 0,30,31
 212 191 212 191 234 158.5 c 128,-1,32
 256 126 256 126 293 126 c 0,33,34
 327 126 327 126 347.5 154.5 c 128,-1,35
 368 183 368 183 368 239 c 2,36,-1
 368 284 l 2,25,26
EndSplineSet
EndChar

StartChar: Emacron
Encoding: 274 274 211
Width: 650
GlyphClass: 2
Flags: W
AnchorPoint: "Anchor-5" 0 0 basechar 0
AnchorPoint: "Anchor-4" 332 0 basechar 0
AnchorPoint: "Anchor-3" 332 723 basechar 0
AnchorPoint: "Anchor-2" 599 10 basechar 0
LayerCount: 2
Fore
SplineSet
65 723 m 1,0,-1
 599 723 l 1,1,-1
 598 562 l 1,2,-1
 261 562 l 1,3,-1
 261 442 l 1,4,-1
 543 442 l 1,5,-1
 543 285 l 1,6,-1
 260 285 l 1,7,-1
 260 162 l 1,8,-1
 600 162 l 1,9,-1
 600 0 l 1,10,-1
 65 0 l 1,11,-1
 65 723 l 1,0,-1
532 810 m 1,12,-1
 132 810 l 1,13,-1
 132 929 l 1,14,-1
 532 929 l 1,15,-1
 532 810 l 1,12,-1
EndSplineSet
EndChar

StartChar: emacron
Encoding: 275 275 212
Width: 566
GlyphClass: 2
Flags: W
AnchorPoint: "Anchor-5" 0 0 basechar 0
AnchorPoint: "Anchor-4" 291 0 basechar 0
AnchorPoint: "Anchor-3" 288 517 basechar 0
AnchorPoint: "Anchor-2" 416 25 basechar 0
LayerCount: 2
Fore
SplineSet
235 148 m 128,-1,1
 256 126 256 126 290 126 c 0,2,3
 320 126 320 126 340 137 c 128,-1,4
 360 148 360 148 371 176 c 1,5,-1
 543 176 l 1,6,7
 535 121 535 121 498.5 78.5 c 128,-1,8
 462 36 462 36 407.5 13 c 128,-1,9
 353 -10 353 -10 295 -10 c 0,10,11
 215 -10 215 -10 153.5 22.5 c 128,-1,12
 92 55 92 55 58 114.5 c 128,-1,13
 24 174 24 174 24 252 c 0,14,15
 24 327 24 327 55.5 390 c 128,-1,16
 87 453 87 453 147 490 c 128,-1,17
 207 527 207 527 287 527 c 0,18,19
 369 527 369 527 426 492.5 c 128,-1,20
 483 458 483 458 512 397.5 c 128,-1,21
 541 337 541 337 541 259 c 2,22,-1
 541 214 l 1,23,-1
 215 214 l 1,24,0
 214 170 214 170 235 148 c 128,-1,1
362 323 m 1,25,26
 362 354 362 354 342 375 c 128,-1,27
 322 396 322 396 287 396 c 0,28,29
 257 396 257 396 235.5 374 c 128,-1,30
 214 352 214 352 214 323 c 1,31,-1
 362 323 l 1,25,26
488 604 m 1,32,-1
 88 604 l 1,33,-1
 88 723 l 1,34,-1
 488 723 l 1,35,-1
 488 604 l 1,32,-1
EndSplineSet
EndChar

StartChar: Ebreve
Encoding: 276 276 213
Width: 650
GlyphClass: 2
Flags: W
AnchorPoint: "Anchor-5" 0 0 basechar 0
AnchorPoint: "Anchor-4" 332 0 basechar 0
AnchorPoint: "Anchor-3" 332 723 basechar 0
AnchorPoint: "Anchor-2" 599 10 basechar 0
LayerCount: 2
Fore
SplineSet
65 723 m 1,0,-1
 599 723 l 1,1,-1
 598 562 l 1,2,-1
 261 562 l 1,3,-1
 261 442 l 1,4,-1
 543 442 l 1,5,-1
 543 285 l 1,6,-1
 260 285 l 1,7,-1
 260 162 l 1,8,-1
 600 162 l 1,9,-1
 600 0 l 1,10,-1
 65 0 l 1,11,-1
 65 723 l 1,0,-1
455 821 m 128,-1,13
 402 784 402 784 333 784 c 128,-1,14
 264 784 264 784 210 820.5 c 128,-1,15
 156 857 156 857 135 929 c 1,16,-1
 240 929 l 1,17,18
 254 903 254 903 280 887 c 128,-1,19
 306 871 306 871 333 871 c 0,20,21
 358 871 358 871 384 887 c 128,-1,22
 410 903 410 903 423 929 c 1,23,-1
 529 929 l 1,24,12
 508 858 508 858 455 821 c 128,-1,13
EndSplineSet
EndChar

StartChar: ebreve
Encoding: 277 277 214
Width: 566
GlyphClass: 2
Flags: W
AnchorPoint: "Anchor-5" 0 0 basechar 0
AnchorPoint: "Anchor-4" 291 0 basechar 0
AnchorPoint: "Anchor-3" 288 517 basechar 0
AnchorPoint: "Anchor-2" 416 25 basechar 0
LayerCount: 2
Fore
SplineSet
235 148 m 128,-1,1
 256 126 256 126 290 126 c 0,2,3
 320 126 320 126 340 137 c 128,-1,4
 360 148 360 148 371 176 c 1,5,-1
 543 176 l 1,6,7
 535 121 535 121 498.5 78.5 c 128,-1,8
 462 36 462 36 407.5 13 c 128,-1,9
 353 -10 353 -10 295 -10 c 0,10,11
 215 -10 215 -10 153.5 22.5 c 128,-1,12
 92 55 92 55 58 114.5 c 128,-1,13
 24 174 24 174 24 252 c 0,14,15
 24 327 24 327 55.5 390 c 128,-1,16
 87 453 87 453 147 490 c 128,-1,17
 207 527 207 527 287 527 c 0,18,19
 369 527 369 527 426 492.5 c 128,-1,20
 483 458 483 458 512 397.5 c 128,-1,21
 541 337 541 337 541 259 c 2,22,-1
 541 214 l 1,23,-1
 215 214 l 1,24,0
 214 170 214 170 235 148 c 128,-1,1
362 323 m 1,25,26
 362 354 362 354 342 375 c 128,-1,27
 322 396 322 396 287 396 c 0,28,29
 257 396 257 396 235.5 374 c 128,-1,30
 214 352 214 352 214 323 c 1,31,-1
 362 323 l 1,25,26
411 615 m 128,-1,33
 358 578 358 578 289 578 c 128,-1,34
 220 578 220 578 166 614.5 c 128,-1,35
 112 651 112 651 91 723 c 1,36,-1
 196 723 l 1,37,38
 210 697 210 697 236 681 c 128,-1,39
 262 665 262 665 289 665 c 0,40,41
 314 665 314 665 340 681 c 128,-1,42
 366 697 366 697 379 723 c 1,43,-1
 485 723 l 1,44,32
 464 652 464 652 411 615 c 128,-1,33
EndSplineSet
EndChar

StartChar: Edotaccent
Encoding: 278 278 215
Width: 650
GlyphClass: 2
Flags: W
AnchorPoint: "Anchor-5" 0 0 basechar 0
AnchorPoint: "Anchor-4" 332 0 basechar 0
AnchorPoint: "Anchor-3" 332 723 basechar 0
AnchorPoint: "Anchor-2" 599 10 basechar 0
LayerCount: 2
Fore
SplineSet
65 723 m 1,0,-1
 599 723 l 1,1,-1
 598 562 l 1,2,-1
 261 562 l 1,3,-1
 261 442 l 1,4,-1
 543 442 l 1,5,-1
 543 285 l 1,6,-1
 260 285 l 1,7,-1
 260 162 l 1,8,-1
 600 162 l 1,9,-1
 600 0 l 1,10,-1
 65 0 l 1,11,-1
 65 723 l 1,0,-1
430 766 m 1,12,-1
 235 766 l 1,13,-1
 235 929 l 1,14,-1
 430 929 l 1,15,-1
 430 766 l 1,12,-1
EndSplineSet
EndChar

StartChar: edotaccent
Encoding: 279 279 216
Width: 566
GlyphClass: 2
Flags: W
AnchorPoint: "Anchor-5" 0 0 basechar 0
AnchorPoint: "Anchor-4" 291 0 basechar 0
AnchorPoint: "Anchor-3" 288 517 basechar 0
AnchorPoint: "Anchor-2" 416 25 basechar 0
LayerCount: 2
Fore
SplineSet
235 148 m 128,-1,1
 256 126 256 126 290 126 c 0,2,3
 320 126 320 126 340 137 c 128,-1,4
 360 148 360 148 371 176 c 1,5,-1
 543 176 l 1,6,7
 535 121 535 121 498.5 78.5 c 128,-1,8
 462 36 462 36 407.5 13 c 128,-1,9
 353 -10 353 -10 295 -10 c 0,10,11
 215 -10 215 -10 153.5 22.5 c 128,-1,12
 92 55 92 55 58 114.5 c 128,-1,13
 24 174 24 174 24 252 c 0,14,15
 24 327 24 327 55.5 390 c 128,-1,16
 87 453 87 453 147 490 c 128,-1,17
 207 527 207 527 287 527 c 0,18,19
 369 527 369 527 426 492.5 c 128,-1,20
 483 458 483 458 512 397.5 c 128,-1,21
 541 337 541 337 541 259 c 2,22,-1
 541 214 l 1,23,-1
 215 214 l 1,24,0
 214 170 214 170 235 148 c 128,-1,1
362 323 m 1,25,26
 362 354 362 354 342 375 c 128,-1,27
 322 396 322 396 287 396 c 0,28,29
 257 396 257 396 235.5 374 c 128,-1,30
 214 352 214 352 214 323 c 1,31,-1
 362 323 l 1,25,26
386 560 m 1,32,-1
 191 560 l 1,33,-1
 191 723 l 1,34,-1
 386 723 l 1,35,-1
 386 560 l 1,32,-1
EndSplineSet
EndChar

StartChar: Eogonek
Encoding: 280 280 217
Width: 650
GlyphClass: 2
Flags: W
AnchorPoint: "Anchor-5" 0 0 basechar 0
AnchorPoint: "Anchor-4" 332 0 basechar 0
AnchorPoint: "Anchor-3" 332 723 basechar 0
AnchorPoint: "Anchor-2" 599 10 basechar 0
LayerCount: 2
Fore
SplineSet
65 723 m 1,0,-1
 599 723 l 1,1,-1
 598 562 l 1,2,-1
 261 562 l 1,3,-1
 261 442 l 1,4,-1
 543 442 l 1,5,-1
 543 285 l 1,6,-1
 260 285 l 1,7,-1
 260 162 l 1,8,-1
 600 162 l 1,9,-1
 600 0 l 1,10,-1
 65 0 l 1,11,-1
 65 723 l 1,0,-1
416 -35 m 128,-1,13
 435 -13 435 -13 488 6 c 1,14,-1
 621 6 l 1,15,16
 569 -11 569 -11 550 -25.5 c 128,-1,17
 531 -40 531 -40 531 -58 c 0,18,19
 531 -86 531 -86 558 -86 c 0,20,21
 573 -86 573 -86 584.5 -82 c 128,-1,22
 596 -78 596 -78 613 -70 c 0,23,24
 619 -67 619 -67 623 -67 c 0,25,26
 631 -67 631 -67 631 -81 c 2,27,-1
 631 -132 l 2,28,29
 631 -143 631 -143 621 -149 c 0,30,31
 606 -157 606 -157 576.5 -163.5 c 128,-1,32
 547 -170 547 -170 515 -170 c 0,33,34
 460 -170 460 -170 428.5 -148.5 c 128,-1,35
 397 -127 397 -127 397 -85 c 0,36,12
 397 -57 397 -57 416 -35 c 128,-1,13
EndSplineSet
EndChar

StartChar: eogonek
Encoding: 281 281 218
Width: 566
GlyphClass: 2
Flags: W
AnchorPoint: "Anchor-5" 0 0 basechar 0
AnchorPoint: "Anchor-4" 291 0 basechar 0
AnchorPoint: "Anchor-3" 288 517 basechar 0
AnchorPoint: "Anchor-2" 416 25 basechar 0
LayerCount: 2
Fore
SplineSet
235 148 m 128,-1,1
 256 126 256 126 290 126 c 0,2,3
 320 126 320 126 340 137 c 128,-1,4
 360 148 360 148 371 176 c 1,5,-1
 543 176 l 1,6,7
 535 121 535 121 498.5 78.5 c 128,-1,8
 462 36 462 36 407.5 13 c 128,-1,9
 353 -10 353 -10 295 -10 c 0,10,11
 215 -10 215 -10 153.5 22.5 c 128,-1,12
 92 55 92 55 58 114.5 c 128,-1,13
 24 174 24 174 24 252 c 0,14,15
 24 327 24 327 55.5 390 c 128,-1,16
 87 453 87 453 147 490 c 128,-1,17
 207 527 207 527 287 527 c 0,18,19
 369 527 369 527 426 492.5 c 128,-1,20
 483 458 483 458 512 397.5 c 128,-1,21
 541 337 541 337 541 259 c 2,22,-1
 541 214 l 1,23,-1
 215 214 l 1,24,0
 214 170 214 170 235 148 c 128,-1,1
362 323 m 1,25,26
 362 354 362 354 342 375 c 128,-1,27
 322 396 322 396 287 396 c 0,28,29
 257 396 257 396 235.5 374 c 128,-1,30
 214 352 214 352 214 323 c 1,31,-1
 362 323 l 1,25,26
233 -20 m 128,-1,33
 252 2 252 2 305 21 c 1,34,-1
 438 21 l 1,35,36
 386 4 386 4 367 -10.5 c 128,-1,37
 348 -25 348 -25 348 -43 c 0,38,39
 348 -71 348 -71 375 -71 c 0,40,41
 390 -71 390 -71 401.5 -67 c 128,-1,42
 413 -63 413 -63 430 -55 c 0,43,44
 436 -52 436 -52 440 -52 c 0,45,46
 448 -52 448 -52 448 -66 c 2,47,-1
 448 -117 l 2,48,49
 448 -128 448 -128 438 -134 c 0,50,51
 423 -142 423 -142 393.5 -148.5 c 128,-1,52
 364 -155 364 -155 332 -155 c 0,53,54
 277 -155 277 -155 245.5 -133.5 c 128,-1,55
 214 -112 214 -112 214 -70 c 0,56,32
 214 -42 214 -42 233 -20 c 128,-1,33
EndSplineSet
EndChar

StartChar: Ecaron
Encoding: 282 282 219
Width: 650
GlyphClass: 2
Flags: W
AnchorPoint: "Anchor-5" 0 0 basechar 0
AnchorPoint: "Anchor-4" 332 0 basechar 0
AnchorPoint: "Anchor-3" 332 723 basechar 0
AnchorPoint: "Anchor-2" 599 10 basechar 0
LayerCount: 2
Fore
SplineSet
65 723 m 1,0,-1
 599 723 l 1,1,-1
 598 562 l 1,2,-1
 261 562 l 1,3,-1
 261 442 l 1,4,-1
 543 442 l 1,5,-1
 543 285 l 1,6,-1
 260 285 l 1,7,-1
 260 162 l 1,8,-1
 600 162 l 1,9,-1
 600 0 l 1,10,-1
 65 0 l 1,11,-1
 65 723 l 1,0,-1
532 930 m 1,12,-1
 398 776 l 1,13,-1
 265 776 l 1,14,-1
 128 930 l 1,15,-1
 260 930 l 1,16,-1
 331 848 l 1,17,-1
 393 930 l 1,18,-1
 532 930 l 1,12,-1
EndSplineSet
EndChar

StartChar: ecaron
Encoding: 283 283 220
Width: 566
GlyphClass: 2
Flags: W
AnchorPoint: "Anchor-5" 0 0 basechar 0
AnchorPoint: "Anchor-4" 291 0 basechar 0
AnchorPoint: "Anchor-3" 288 517 basechar 0
AnchorPoint: "Anchor-2" 416 25 basechar 0
LayerCount: 2
Fore
SplineSet
235 148 m 128,-1,1
 256 126 256 126 290 126 c 0,2,3
 320 126 320 126 340 137 c 128,-1,4
 360 148 360 148 371 176 c 1,5,-1
 543 176 l 1,6,7
 535 121 535 121 498.5 78.5 c 128,-1,8
 462 36 462 36 407.5 13 c 128,-1,9
 353 -10 353 -10 295 -10 c 0,10,11
 215 -10 215 -10 153.5 22.5 c 128,-1,12
 92 55 92 55 58 114.5 c 128,-1,13
 24 174 24 174 24 252 c 0,14,15
 24 327 24 327 55.5 390 c 128,-1,16
 87 453 87 453 147 490 c 128,-1,17
 207 527 207 527 287 527 c 0,18,19
 369 527 369 527 426 492.5 c 128,-1,20
 483 458 483 458 512 397.5 c 128,-1,21
 541 337 541 337 541 259 c 2,22,-1
 541 214 l 1,23,-1
 215 214 l 1,24,0
 214 170 214 170 235 148 c 128,-1,1
362 323 m 1,25,26
 362 354 362 354 342 375 c 128,-1,27
 322 396 322 396 287 396 c 0,28,29
 257 396 257 396 235.5 374 c 128,-1,30
 214 352 214 352 214 323 c 1,31,-1
 362 323 l 1,25,26
488 724 m 1,32,-1
 354 570 l 1,33,-1
 221 570 l 1,34,-1
 84 724 l 1,35,-1
 216 724 l 1,36,-1
 287 642 l 1,37,-1
 349 724 l 1,38,-1
 488 724 l 1,32,-1
EndSplineSet
EndChar

StartChar: Gcircumflex
Encoding: 284 284 221
Width: 772
GlyphClass: 2
Flags: W
AnchorPoint: "Anchor-5" 0 0 basechar 0
AnchorPoint: "Anchor-4" 380 0 basechar 0
AnchorPoint: "Anchor-3" 380 723 basechar 0
AnchorPoint: "Anchor-2" 0 0 basechar 0
LayerCount: 2
Fore
SplineSet
198.5 36.5 m 128,-1,1
 121 83 121 83 78.5 167 c 128,-1,2
 36 251 36 251 36 359 c 0,3,4
 36 470 36 470 81 555 c 128,-1,5
 126 640 126 640 206.5 686.5 c 128,-1,6
 287 733 287 733 390 733 c 0,7,8
 483 733 483 733 555 695.5 c 128,-1,9
 627 658 627 658 666 597.5 c 128,-1,10
 705 537 705 537 706 468 c 1,11,-1
 503 468 l 1,12,13
 493 515 493 515 463.5 543.5 c 128,-1,14
 434 572 434 572 385 572 c 0,15,16
 325 572 325 572 286.5 523 c 128,-1,17
 248 474 248 474 248 365 c 0,18,19
 248 246 248 246 290.5 202.5 c 128,-1,20
 333 159 333 159 393 159 c 0,21,22
 432 159 432 159 461 179.5 c 128,-1,23
 490 200 490 200 498 227 c 2,24,-1
 507 253 l 1,25,-1
 381 253 l 1,26,-1
 381 384 l 1,27,-1
 712 382 l 1,28,-1
 712 0 l 1,29,-1
 584 0 l 1,30,-1
 584 80 l 1,31,32
 558 53 558 53 534.5 35 c 128,-1,33
 511 17 511 17 472 3.5 c 128,-1,34
 433 -10 433 -10 378 -10 c 0,35,0
 276 -10 276 -10 198.5 36.5 c 128,-1,1
379 868 m 1,36,-1
 308 786 l 1,37,-1
 176 786 l 1,38,-1
 314 939 l 1,39,-1
 446 939 l 1,40,-1
 580 786 l 1,41,-1
 441 786 l 1,42,-1
 379 868 l 1,36,-1
EndSplineSet
EndChar

StartChar: gcircumflex
Encoding: 285 285 222
Width: 653
GlyphClass: 2
Flags: W
AnchorPoint: "Anchor-5" 0 0 basechar 0
AnchorPoint: "Anchor-4" 0 0 basechar 0
AnchorPoint: "Anchor-3" 319 517 basechar 0
AnchorPoint: "Anchor-2" 0 0 basechar 0
LayerCount: 2
Fore
SplineSet
153 -155.5 m 128,-1,1
 85 -140 85 -140 51 -113 c 128,-1,2
 17 -86 17 -86 17 -52 c 0,3,4
 17 -22 17 -22 38.5 -4 c 128,-1,5
 60 14 60 14 76 19.5 c 128,-1,6
 92 25 92 25 120 32 c 1,7,8
 117 33 117 33 97.5 42.5 c 128,-1,9
 78 52 78 52 62.5 72.5 c 128,-1,10
 47 93 47 93 47 119 c 0,11,12
 47 152 47 152 77.5 177 c 128,-1,13
 108 202 108 202 166 210 c 1,14,15
 113 233 113 233 84 276.5 c 128,-1,16
 55 320 55 320 55 364 c 0,17,18
 55 414 55 414 90.5 450.5 c 128,-1,19
 126 487 126 487 186 506 c 128,-1,20
 246 525 246 525 318 525 c 0,21,22
 368 525 368 525 402 515.5 c 128,-1,23
 436 506 436 506 470 488 c 1,24,25
 596 536 596 536 640 555 c 1,26,-1
 639 417 l 1,27,-1
 551 405 l 1,28,29
 557 383 557 383 557 365 c 0,30,31
 557 320 557 320 527.5 279 c 128,-1,32
 498 238 498 238 441 212.5 c 128,-1,33
 384 187 384 187 306 187 c 0,34,35
 262 187 262 187 237 190 c 1,36,37
 223 187 223 187 223 181 c 0,38,39
 223 173 223 173 237.5 170 c 128,-1,40
 252 167 252 167 275 165.5 c 128,-1,41
 298 164 298 164 306 164 c 2,42,-1
 409 158 l 2,43,44
 512 151 512 151 563.5 108.5 c 128,-1,45
 615 66 615 66 615 3 c 0,46,47
 615 -48 615 -48 581.5 -87 c 128,-1,48
 548 -126 548 -126 481.5 -148.5 c 128,-1,49
 415 -171 415 -171 320 -171 c 0,50,0
 221 -171 221 -171 153 -155.5 c 128,-1,1
356.5 308 m 128,-1,52
 374 327 374 327 374 357 c 128,-1,53
 374 387 374 387 356.5 408.5 c 128,-1,54
 339 430 339 430 312 430 c 128,-1,55
 285 430 285 430 267.5 408.5 c 128,-1,56
 250 387 250 387 250 357 c 128,-1,57
 250 327 250 327 267.5 308 c 128,-1,58
 285 289 285 289 312 289 c 128,-1,51
 339 289 339 289 356.5 308 c 128,-1,52
414 -61 m 128,-1,60
 431 -53 431 -53 431 -37 c 128,-1,61
 431 -21 431 -21 414 -10.5 c 128,-1,62
 397 0 397 0 367 2 c 2,63,-1
 273 8 l 2,64,65
 237 10 237 10 221.5 -1.5 c 128,-1,66
 206 -13 206 -13 206 -29 c 0,67,68
 206 -53 206 -53 239 -61 c 128,-1,69
 272 -69 272 -69 350 -69 c 0,70,59
 397 -69 397 -69 414 -61 c 128,-1,60
318 662 m 1,71,-1
 247 580 l 1,72,-1
 115 580 l 1,73,-1
 253 733 l 1,74,-1
 385 733 l 1,75,-1
 519 580 l 1,76,-1
 380 580 l 1,77,-1
 318 662 l 1,71,-1
EndSplineSet
EndChar

